<?xml version="1.0" encoding="utf-8" standalone="no"?>
<!DOCTYPE svg PUBLIC "-//W3C//DTD SVG 1.1//EN"
  "http://www.w3.org/Graphics/SVG/1.1/DTD/svg11.dtd">
<!-- Created with matplotlib (http://matplotlib.org/) -->
<svg height="361pt" version="1.1" viewBox="0 0 658 361" width="658pt" xmlns="http://www.w3.org/2000/svg" xmlns:xlink="http://www.w3.org/1999/xlink">
 <defs>
  <style type="text/css">
*{stroke-linecap:butt;stroke-linejoin:round;}
  </style>
 </defs>
 <g id="figure_1">
  <g id="patch_1">
   <path d="M 0 361.501 
L 658.412 361.501 
L 658.412 0 
L 0 0 
z
" style="fill:none;"/>
  </g>
  <g id="axes_1">
   <g id="patch_2">
    <path clip-path="url(#p52690972a6)" d="M 411.84 151.4555 
C 416.134859 151.4555 420.258206 149.984769 423.29513 147.36964 
C 426.332054 144.75451 428.04 141.203851 428.04 137.5055 
C 428.04 133.807149 426.332054 130.25649 423.29513 127.64136 
C 420.258206 125.026231 416.134859 123.5555 411.84 123.5555 
" style="fill:none;stroke:#000000;stroke-linejoin:miter;stroke-width:1.5;"/>
   </g>
   <g id="patch_3">
    <path clip-path="url(#p52690972a6)" d="M 411.84 193.3055 
C 416.134859 193.3055 420.258206 191.834769 423.29513 189.21964 
C 426.332054 186.60451 428.04 183.053851 428.04 179.3555 
C 428.04 175.657149 426.332054 172.10649 423.29513 169.49136 
C 420.258206 166.876231 416.134859 165.4055 411.84 165.4055 
" style="fill:none;stroke:#000000;stroke-linejoin:miter;stroke-width:1.5;"/>
   </g>
   <g id="patch_4">
    <path clip-path="url(#p52690972a6)" d="M 411.84 290.9555 
C 416.134859 290.9555 420.258206 289.484769 423.29513 286.86964 
C 426.332054 284.25451 428.04 280.703851 428.04 277.0055 
C 428.04 273.307149 426.332054 269.75649 423.29513 267.14136 
C 420.258206 264.526231 416.134859 263.0555 411.84 263.0555 
" style="fill:none;stroke:#000000;stroke-linejoin:miter;stroke-width:1.5;"/>
   </g>
   <g id="patch_5">
    <path clip-path="url(#p52690972a6)" d="M 411.84 332.8055 
C 416.134859 332.8055 420.258206 331.334769 423.29513 328.71964 
C 426.332054 326.10451 428.04 322.553851 428.04 318.8555 
C 428.04 315.157149 426.332054 311.60649 423.29513 308.99136 
C 420.258206 306.376231 416.134859 304.9055 411.84 304.9055 
" style="fill:none;stroke:#000000;stroke-linejoin:miter;stroke-width:1.5;"/>
   </g>
   <g id="patch_6">
    <path clip-path="url(#p52690972a6)" d="M 537.39 72.98675 
L 535.862884 78.662083 
L 534.189085 77.838468 
L 529.275934 85.186079 
L 534.160954 77.824626 
L 532.487155 77.00101 
z
" style="fill:#008000;stroke:#008000;stroke-linejoin:miter;stroke-width:1.5;"/>
   </g>
   <g id="patch_7">
    <path clip-path="url(#p52690972a6)" d="M 530.1 72.98675 
L 528.572884 78.662083 
L 526.899085 77.838468 
L 521.985934 85.186079 
L 526.870954 77.824626 
L 525.197155 77.00101 
z
" style="fill:#008000;stroke:#008000;stroke-linejoin:miter;stroke-width:1.5;"/>
   </g>
   <g id="patch_8">
    <path clip-path="url(#p52690972a6)" d="M 537.39 212.48675 
L 535.862884 218.162083 
L 534.189085 217.338468 
L 529.275934 224.686079 
L 534.160954 217.324626 
L 532.487155 216.50101 
z
" style="fill:#008000;stroke:#008000;stroke-linejoin:miter;stroke-width:1.5;"/>
   </g>
   <g id="patch_9">
    <path clip-path="url(#p52690972a6)" d="M 530.1 212.48675 
L 528.572884 218.162083 
L 526.899085 217.338468 
L 521.985934 224.686079 
L 526.870954 217.324626 
L 525.197155 216.50101 
z
" style="fill:#008000;stroke:#008000;stroke-linejoin:miter;stroke-width:1.5;"/>
   </g>
   <g id="patch_10">
    <path clip-path="url(#p52690972a6)" d="M 537.39 275.26175 
L 535.862884 280.937083 
L 534.189085 280.113468 
L 529.275934 287.461079 
L 534.160954 280.099626 
L 532.487155 279.27601 
z
" style="fill:#ff0000;stroke:#ff0000;stroke-linejoin:miter;stroke-width:1.5;"/>
   </g>
   <g id="patch_11">
    <path clip-path="url(#p52690972a6)" d="M 530.1 275.26175 
L 528.572884 280.937083 
L 526.899085 280.113468 
L 521.985934 287.461079 
L 526.870954 280.099626 
L 525.197155 279.27601 
z
" style="fill:#ff0000;stroke:#ff0000;stroke-linejoin:miter;stroke-width:1.5;"/>
   </g>
   <g id="line2d_1">
    <path clip-path="url(#p52690972a6)" d="M 434.52 95.6555 
L 445.86 95.6555 
" style="fill:none;stroke:#000000;stroke-linecap:round;stroke-width:1.5;"/>
   </g>
   <g id="line2d_2">
    <path clip-path="url(#p52690972a6)" d="M 395.64 109.3265 
L 411.84 109.3265 
L 412.302857 109.320806 
L 412.765714 109.303724 
L 413.228571 109.275255 
L 413.691429 109.235398 
L 414.154286 109.184153 
L 414.617143 109.12152 
L 415.08 109.0475 
L 415.542857 108.962092 
L 416.005714 108.865296 
L 416.468571 108.757112 
L 416.931429 108.637541 
L 417.394286 108.506582 
L 417.857143 108.364235 
L 418.32 108.2105 
L 418.782857 108.045378 
L 419.245714 107.868867 
L 419.708571 107.680969 
L 420.171429 107.481684 
L 420.634286 107.27101 
L 421.097143 107.048949 
L 421.56 106.8155 
L 422.022857 106.570663 
L 422.485714 106.314439 
L 422.948571 106.046827 
L 423.411429 105.767827 
L 423.874286 105.477439 
L 424.337143 105.175663 
L 424.8 104.8625 
L 425.262857 104.537949 
L 425.725714 104.20201 
L 426.188571 103.854684 
L 426.651429 103.495969 
L 427.114286 103.125867 
L 427.577143 102.744378 
L 428.04 102.3515 
L 428.502857 101.947235 
L 428.965714 101.531582 
L 429.428571 101.104541 
L 429.891429 100.666112 
L 430.354286 100.216296 
L 430.817143 99.755092 
L 431.28 99.2825 
L 431.742857 98.79852 
L 432.205714 98.303153 
L 432.668571 97.796398 
L 433.131429 97.278255 
L 433.594286 96.748724 
L 434.057143 96.207806 
L 434.52 95.6555 
" style="fill:none;stroke:#000000;stroke-linecap:round;stroke-width:1.5;"/>
   </g>
   <g id="line2d_3">
    <path clip-path="url(#p52690972a6)" d="M 395.64 81.9845 
L 411.84 81.9845 
L 412.302857 81.990194 
L 412.765714 82.007276 
L 413.228571 82.035745 
L 413.691429 82.075602 
L 414.154286 82.126847 
L 414.617143 82.18948 
L 415.08 82.2635 
L 415.542857 82.348908 
L 416.005714 82.445704 
L 416.468571 82.553888 
L 416.931429 82.673459 
L 417.394286 82.804418 
L 417.857143 82.946765 
L 418.32 83.1005 
L 418.782857 83.265622 
L 419.245714 83.442133 
L 419.708571 83.630031 
L 420.171429 83.829316 
L 420.634286 84.03999 
L 421.097143 84.262051 
L 421.56 84.4955 
L 422.022857 84.740337 
L 422.485714 84.996561 
L 422.948571 85.264173 
L 423.411429 85.543173 
L 423.874286 85.833561 
L 424.337143 86.135337 
L 424.8 86.4485 
L 425.262857 86.773051 
L 425.725714 87.10899 
L 426.188571 87.456316 
L 426.651429 87.815031 
L 427.114286 88.185133 
L 427.577143 88.566622 
L 428.04 88.9595 
L 428.502857 89.363765 
L 428.965714 89.779418 
L 429.428571 90.206459 
L 429.891429 90.644888 
L 430.354286 91.094704 
L 430.817143 91.555908 
L 431.28 92.0285 
L 431.742857 92.51248 
L 432.205714 93.007847 
L 432.668571 93.514602 
L 433.131429 94.032745 
L 433.594286 94.562276 
L 434.057143 95.103194 
L 434.52 95.6555 
" style="fill:none;stroke:#000000;stroke-linecap:round;stroke-width:1.5;"/>
   </g>
   <g id="line2d_4">
    <path clip-path="url(#p52690972a6)" d="M 390.78 109.3265 
L 391.40208 108.7685 
L 391.99824 108.2105 
L 392.56848 107.6525 
L 393.1128 107.0945 
L 393.6312 106.5365 
L 394.12368 105.9785 
L 394.59024 105.4205 
L 395.03088 104.8625 
L 395.4456 104.3045 
L 395.8344 103.7465 
L 396.19728 103.1885 
L 396.53424 102.6305 
L 396.84528 102.0725 
L 397.1304 101.5145 
L 397.3896 100.9565 
L 397.62288 100.3985 
L 397.83024 99.8405 
L 398.01168 99.2825 
L 398.1672 98.7245 
L 398.2968 98.1665 
L 398.40048 97.6085 
L 398.47824 97.0505 
L 398.53008 96.4925 
L 398.556 95.9345 
L 398.556 95.3765 
L 398.53008 94.8185 
L 398.47824 94.2605 
L 398.40048 93.7025 
L 398.2968 93.1445 
L 398.1672 92.5865 
L 398.01168 92.0285 
L 397.83024 91.4705 
L 397.62288 90.9125 
L 397.3896 90.3545 
L 397.1304 89.7965 
L 396.84528 89.2385 
L 396.53424 88.6805 
L 396.19728 88.1225 
L 395.8344 87.5645 
L 395.4456 87.0065 
L 395.03088 86.4485 
L 394.59024 85.8905 
L 394.12368 85.3325 
L 393.6312 84.7745 
L 393.1128 84.2165 
L 392.56848 83.6585 
L 391.99824 83.1005 
L 391.40208 82.5425 
L 390.78 81.9845 
" style="fill:none;stroke:#000000;stroke-linecap:round;stroke-width:1.5;"/>
   </g>
   <g id="line2d_5">
    <path clip-path="url(#p52690972a6)" d="M 395.64 109.3265 
L 396.26208 108.7685 
L 396.85824 108.2105 
L 397.42848 107.6525 
L 397.9728 107.0945 
L 398.4912 106.5365 
L 398.98368 105.9785 
L 399.45024 105.4205 
L 399.89088 104.8625 
L 400.3056 104.3045 
L 400.6944 103.7465 
L 401.05728 103.1885 
L 401.39424 102.6305 
L 401.70528 102.0725 
L 401.9904 101.5145 
L 402.2496 100.9565 
L 402.48288 100.3985 
L 402.69024 99.8405 
L 402.87168 99.2825 
L 403.0272 98.7245 
L 403.1568 98.1665 
L 403.26048 97.6085 
L 403.33824 97.0505 
L 403.39008 96.4925 
L 403.416 95.9345 
L 403.416 95.3765 
L 403.39008 94.8185 
L 403.33824 94.2605 
L 403.26048 93.7025 
L 403.1568 93.1445 
L 403.0272 92.5865 
L 402.87168 92.0285 
L 402.69024 91.4705 
L 402.48288 90.9125 
L 402.2496 90.3545 
L 401.9904 89.7965 
L 401.70528 89.2385 
L 401.39424 88.6805 
L 401.05728 88.1225 
L 400.6944 87.5645 
L 400.3056 87.0065 
L 399.89088 86.4485 
L 399.45024 85.8905 
L 398.98368 85.3325 
L 398.4912 84.7745 
L 397.9728 84.2165 
L 397.42848 83.6585 
L 396.85824 83.1005 
L 396.26208 82.5425 
L 395.64 81.9845 
" style="fill:none;stroke:#000000;stroke-linecap:round;stroke-width:1.5;"/>
   </g>
   <g id="line2d_6">
    <path clip-path="url(#p52690972a6)" d="M 379.44 102.6305 
L 396.53424 102.6305 
" style="fill:none;stroke:#000000;stroke-linecap:round;stroke-width:1.5;"/>
   </g>
   <g id="line2d_7">
    <path clip-path="url(#p52690972a6)" d="M 379.44 88.6805 
L 396.53424 88.6805 
" style="fill:none;stroke:#000000;stroke-linecap:round;stroke-width:1.5;"/>
   </g>
   <g id="line2d_8">
    <path clip-path="url(#p52690972a6)" d="M 428.04 137.5055 
L 439.38 137.5055 
" style="fill:none;stroke:#000000;stroke-linecap:round;stroke-width:1.5;"/>
   </g>
   <g id="line2d_9">
    <path clip-path="url(#p52690972a6)" d="M 390.78 137.5055 
L 390.78 151.4555 
L 411.84 151.4555 
" style="fill:none;stroke:#000000;stroke-linecap:round;stroke-width:1.5;"/>
   </g>
   <g id="line2d_10">
    <path clip-path="url(#p52690972a6)" d="M 390.78 137.5055 
L 390.78 123.5555 
L 411.84 123.5555 
" style="fill:none;stroke:#000000;stroke-linecap:round;stroke-width:1.5;"/>
   </g>
   <g id="line2d_11">
    <path clip-path="url(#p52690972a6)" d="M 379.44 144.4805 
L 390.78 144.4805 
" style="fill:none;stroke:#000000;stroke-linecap:round;stroke-width:1.5;"/>
   </g>
   <g id="line2d_12">
    <path clip-path="url(#p52690972a6)" d="M 379.44 130.5305 
L 390.78 130.5305 
" style="fill:none;stroke:#000000;stroke-linecap:round;stroke-width:1.5;"/>
   </g>
   <g id="line2d_13">
    <path clip-path="url(#p52690972a6)" d="M 379.44 102.6305 
L 379.44 116.5805 
L 379.44 130.5305 
" style="fill:none;stroke:#000000;stroke-linecap:round;stroke-width:1.5;"/>
   </g>
   <g id="line2d_14">
    <path clip-path="url(#p52690972a6)" d="M 428.04 179.3555 
L 439.38 179.3555 
" style="fill:none;stroke:#000000;stroke-linecap:round;stroke-width:1.5;"/>
   </g>
   <g id="line2d_15">
    <path clip-path="url(#p52690972a6)" d="M 390.78 179.3555 
L 390.78 193.3055 
L 411.84 193.3055 
" style="fill:none;stroke:#000000;stroke-linecap:round;stroke-width:1.5;"/>
   </g>
   <g id="line2d_16">
    <path clip-path="url(#p52690972a6)" d="M 390.78 179.3555 
L 390.78 165.4055 
L 411.84 165.4055 
" style="fill:none;stroke:#000000;stroke-linecap:round;stroke-width:1.5;"/>
   </g>
   <g id="line2d_17">
    <path clip-path="url(#p52690972a6)" d="M 379.44 186.3305 
L 390.78 186.3305 
" style="fill:none;stroke:#000000;stroke-linecap:round;stroke-width:1.5;"/>
   </g>
   <g id="line2d_18">
    <path clip-path="url(#p52690972a6)" d="M 379.44 172.3805 
L 390.78 172.3805 
" style="fill:none;stroke:#000000;stroke-linecap:round;stroke-width:1.5;"/>
   </g>
   <g id="line2d_19">
    <path clip-path="url(#p52690972a6)" d="M 379.44 116.5805 
" style="fill:none;stroke:#000000;stroke-linecap:round;stroke-width:1.5;"/>
   </g>
   <g id="line2d_20">
    <path clip-path="url(#p52690972a6)" d="M 379.44 116.5805 
L 298.44 116.5805 
L 217.44 116.5805 
" style="fill:none;stroke:#000000;stroke-linecap:round;stroke-width:1.5;"/>
   </g>
   <g id="line2d_21">
    <path clip-path="url(#p52690972a6)" d="M 217.44 116.5805 
L 217.44 127.7405 
L 209.34 127.7405 
L 225.54 127.7405 
M 211.77 131.0885 
L 223.11 131.0885 
M 215.82 134.4365 
L 219.06 134.4365 
" style="fill:none;stroke:#000000;stroke-linecap:round;stroke-width:1.5;"/>
   </g>
   <g id="line2d_22">
    <path clip-path="url(#p52690972a6)" d="M 379.44 88.6805 
L 363.24 88.6805 
L 347.04 88.6805 
" style="fill:none;stroke:#000000;stroke-linecap:round;stroke-width:1.5;"/>
   </g>
   <g id="line2d_23">
    <path clip-path="url(#p52690972a6)" d="M 363.24 88.6805 
" style="fill:none;stroke:#000000;stroke-linecap:round;stroke-width:1.5;"/>
   </g>
   <g id="line2d_24">
    <path clip-path="url(#p52690972a6)" d="M 379.44 144.4805 
L 371.34 144.4805 
L 363.24 144.4805 
" style="fill:none;stroke:#000000;stroke-linecap:round;stroke-width:1.5;"/>
   </g>
   <g id="line2d_25">
    <path clip-path="url(#p52690972a6)" d="M 363.24 88.6805 
L 363.24 116.5805 
L 363.24 144.4805 
" style="fill:none;stroke:#000000;stroke-linecap:round;stroke-width:1.5;"/>
   </g>
   <g id="line2d_26">
    <path clip-path="url(#p52690972a6)" d="M 335.7 88.6805 
L 347.04 88.6805 
" style="fill:none;stroke:#000000;stroke-linecap:round;stroke-width:1.5;"/>
   </g>
   <g id="line2d_27">
    <path clip-path="url(#p52690972a6)" d="M 296.82 102.3515 
L 313.02 102.3515 
L 313.482857 102.345806 
L 313.945714 102.328724 
L 314.408571 102.300255 
L 314.871429 102.260398 
L 315.334286 102.209153 
L 315.797143 102.14652 
L 316.26 102.0725 
L 316.722857 101.987092 
L 317.185714 101.890296 
L 317.648571 101.782112 
L 318.111429 101.662541 
L 318.574286 101.531582 
L 319.037143 101.389235 
L 319.5 101.2355 
L 319.962857 101.070378 
L 320.425714 100.893867 
L 320.888571 100.705969 
L 321.351429 100.506684 
L 321.814286 100.29601 
L 322.277143 100.073949 
L 322.74 99.8405 
L 323.202857 99.595663 
L 323.665714 99.339439 
L 324.128571 99.071827 
L 324.591429 98.792827 
L 325.054286 98.502439 
L 325.517143 98.200663 
L 325.98 97.8875 
L 326.442857 97.562949 
L 326.905714 97.22701 
L 327.368571 96.879684 
L 327.831429 96.520969 
L 328.294286 96.150867 
L 328.757143 95.769378 
L 329.22 95.3765 
L 329.682857 94.972235 
L 330.145714 94.556582 
L 330.608571 94.129541 
L 331.071429 93.691112 
L 331.534286 93.241296 
L 331.997143 92.780092 
L 332.46 92.3075 
L 332.922857 91.82352 
L 333.385714 91.328153 
L 333.848571 90.821398 
L 334.311429 90.303255 
L 334.774286 89.773724 
L 335.237143 89.232806 
L 335.7 88.6805 
" style="fill:none;stroke:#000000;stroke-linecap:round;stroke-width:1.5;"/>
   </g>
   <g id="line2d_28">
    <path clip-path="url(#p52690972a6)" d="M 296.82 75.0095 
L 313.02 75.0095 
L 313.482857 75.015194 
L 313.945714 75.032276 
L 314.408571 75.060745 
L 314.871429 75.100602 
L 315.334286 75.151847 
L 315.797143 75.21448 
L 316.26 75.2885 
L 316.722857 75.373908 
L 317.185714 75.470704 
L 317.648571 75.578888 
L 318.111429 75.698459 
L 318.574286 75.829418 
L 319.037143 75.971765 
L 319.5 76.1255 
L 319.962857 76.290622 
L 320.425714 76.467133 
L 320.888571 76.655031 
L 321.351429 76.854316 
L 321.814286 77.06499 
L 322.277143 77.287051 
L 322.74 77.5205 
L 323.202857 77.765337 
L 323.665714 78.021561 
L 324.128571 78.289173 
L 324.591429 78.568173 
L 325.054286 78.858561 
L 325.517143 79.160337 
L 325.98 79.4735 
L 326.442857 79.798051 
L 326.905714 80.13399 
L 327.368571 80.481316 
L 327.831429 80.840031 
L 328.294286 81.210133 
L 328.757143 81.591622 
L 329.22 81.9845 
L 329.682857 82.388765 
L 330.145714 82.804418 
L 330.608571 83.231459 
L 331.071429 83.669888 
L 331.534286 84.119704 
L 331.997143 84.580908 
L 332.46 85.0535 
L 332.922857 85.53748 
L 333.385714 86.032847 
L 333.848571 86.539602 
L 334.311429 87.057745 
L 334.774286 87.587276 
L 335.237143 88.128194 
L 335.7 88.6805 
" style="fill:none;stroke:#000000;stroke-linecap:round;stroke-width:1.5;"/>
   </g>
   <g id="line2d_29">
    <path clip-path="url(#p52690972a6)" d="M 291.96 102.3515 
L 292.58208 101.7935 
L 293.17824 101.2355 
L 293.74848 100.6775 
L 294.2928 100.1195 
L 294.8112 99.5615 
L 295.30368 99.0035 
L 295.77024 98.4455 
L 296.21088 97.8875 
L 296.6256 97.3295 
L 297.0144 96.7715 
L 297.37728 96.2135 
L 297.71424 95.6555 
L 298.02528 95.0975 
L 298.3104 94.5395 
L 298.5696 93.9815 
L 298.80288 93.4235 
L 299.01024 92.8655 
L 299.19168 92.3075 
L 299.3472 91.7495 
L 299.4768 91.1915 
L 299.58048 90.6335 
L 299.65824 90.0755 
L 299.71008 89.5175 
L 299.736 88.9595 
L 299.736 88.4015 
L 299.71008 87.8435 
L 299.65824 87.2855 
L 299.58048 86.7275 
L 299.4768 86.1695 
L 299.3472 85.6115 
L 299.19168 85.0535 
L 299.01024 84.4955 
L 298.80288 83.9375 
L 298.5696 83.3795 
L 298.3104 82.8215 
L 298.02528 82.2635 
L 297.71424 81.7055 
L 297.37728 81.1475 
L 297.0144 80.5895 
L 296.6256 80.0315 
L 296.21088 79.4735 
L 295.77024 78.9155 
L 295.30368 78.3575 
L 294.8112 77.7995 
L 294.2928 77.2415 
L 293.74848 76.6835 
L 293.17824 76.1255 
L 292.58208 75.5675 
L 291.96 75.0095 
" style="fill:none;stroke:#000000;stroke-linecap:round;stroke-width:1.5;"/>
   </g>
   <g id="line2d_30">
    <path clip-path="url(#p52690972a6)" d="M 296.82 102.3515 
L 297.44208 101.7935 
L 298.03824 101.2355 
L 298.60848 100.6775 
L 299.1528 100.1195 
L 299.6712 99.5615 
L 300.16368 99.0035 
L 300.63024 98.4455 
L 301.07088 97.8875 
L 301.4856 97.3295 
L 301.8744 96.7715 
L 302.23728 96.2135 
L 302.57424 95.6555 
L 302.88528 95.0975 
L 303.1704 94.5395 
L 303.4296 93.9815 
L 303.66288 93.4235 
L 303.87024 92.8655 
L 304.05168 92.3075 
L 304.2072 91.7495 
L 304.3368 91.1915 
L 304.44048 90.6335 
L 304.51824 90.0755 
L 304.57008 89.5175 
L 304.596 88.9595 
L 304.596 88.4015 
L 304.57008 87.8435 
L 304.51824 87.2855 
L 304.44048 86.7275 
L 304.3368 86.1695 
L 304.2072 85.6115 
L 304.05168 85.0535 
L 303.87024 84.4955 
L 303.66288 83.9375 
L 303.4296 83.3795 
L 303.1704 82.8215 
L 302.88528 82.2635 
L 302.57424 81.7055 
L 302.23728 81.1475 
L 301.8744 80.5895 
L 301.4856 80.0315 
L 301.07088 79.4735 
L 300.63024 78.9155 
L 300.16368 78.3575 
L 299.6712 77.7995 
L 299.1528 77.2415 
L 298.60848 76.6835 
L 298.03824 76.1255 
L 297.44208 75.5675 
L 296.82 75.0095 
" style="fill:none;stroke:#000000;stroke-linecap:round;stroke-width:1.5;"/>
   </g>
   <g id="line2d_31">
    <path clip-path="url(#p52690972a6)" d="M 280.62 95.6555 
L 297.71424 95.6555 
" style="fill:none;stroke:#000000;stroke-linecap:round;stroke-width:1.5;"/>
   </g>
   <g id="line2d_32">
    <path clip-path="url(#p52690972a6)" d="M 280.62 81.7055 
L 297.71424 81.7055 
" style="fill:none;stroke:#000000;stroke-linecap:round;stroke-width:1.5;"/>
   </g>
   <g id="line2d_33">
    <path clip-path="url(#p52690972a6)" d="M 379.44 172.3805 
L 330.84 172.3805 
L 282.24 172.3805 
" style="fill:none;stroke:#000000;stroke-linecap:round;stroke-width:1.5;"/>
   </g>
   <g id="line2d_34">
    <path clip-path="url(#p52690972a6)" d="M 379.44 186.3305 
L 322.74 186.3305 
L 266.04 186.3305 
" style="fill:none;stroke:#000000;stroke-linecap:round;stroke-width:1.5;"/>
   </g>
   <g id="line2d_35">
    <path clip-path="url(#p52690972a6)" d="M 280.62 81.7055 
L 183.42 81.7055 
L 86.22 81.7055 
" style="fill:none;stroke:#000000;stroke-linecap:round;stroke-width:1.5;"/>
   </g>
   <g id="line2d_36">
    <path clip-path="url(#p52690972a6)" d="M 86.22 81.7055 
" style="fill:none;stroke:#000000;stroke-linecap:round;stroke-width:1.5;"/>
   </g>
   <g id="line2d_37">
    <path clip-path="url(#p52690972a6)" d="M 86.22 81.7055 
L 86.22 74.7305 
L 86.22 67.7555 
" style="fill:none;stroke:#000000;stroke-linecap:round;stroke-width:1.5;"/>
   </g>
   <g id="line2d_38">
    <path clip-path="url(#p52690972a6)" d="M 86.22 67.7555 
L 86.22 67.7555 
L 78.12 65.4305 
L 94.32 60.7805 
L 78.12 56.1305 
L 94.32 51.4805 
L 78.12 46.8305 
L 94.32 42.1805 
L 86.22 39.8555 
L 86.22 39.8555 
" style="fill:none;stroke:#000000;stroke-linecap:round;stroke-width:1.5;"/>
   </g>
   <g id="line2d_39">
    <path clip-path="url(#p52690972a6)" d="M 86.22 28.6955 
L 92.295 28.6955 
" style="fill:none;stroke:#000000;stroke-linecap:round;stroke-width:1.5;"/>
   </g>
   <g id="line2d_40">
    <path clip-path="url(#p52690972a6)" d="M 86.22 39.8555 
L 86.22 28.6955 
" style="fill:none;stroke:#000000;stroke-linecap:round;stroke-width:1.5;"/>
   </g>
   <g id="line2d_41">
    <path clip-path="url(#p52690972a6)" d="M 86.22 28.6955 
L 80.145 28.6955 
" style="fill:none;stroke:#000000;stroke-linecap:round;stroke-width:1.5;"/>
   </g>
   <g id="line2d_42">
    <path clip-path="url(#p52690972a6)" d="M 280.62 95.6555 
L 167.22 95.6555 
L 53.82 95.6555 
" style="fill:none;stroke:#000000;stroke-linecap:round;stroke-width:1.5;"/>
   </g>
   <g id="line2d_43">
    <path clip-path="url(#p52690972a6)" d="M 53.82 95.6555 
" style="fill:none;stroke:#000000;stroke-linecap:round;stroke-width:1.5;"/>
   </g>
   <g id="line2d_44">
    <path clip-path="url(#p52690972a6)" d="M 53.82 95.6555 
L 53.82 81.7055 
L 53.82 67.7555 
" style="fill:none;stroke:#000000;stroke-linecap:round;stroke-width:1.5;"/>
   </g>
   <g id="line2d_45">
    <path clip-path="url(#p52690972a6)" d="M 53.82 67.7555 
L 53.82 67.7555 
L 45.72 65.4305 
L 61.92 60.7805 
L 45.72 56.1305 
L 61.92 51.4805 
L 45.72 46.8305 
L 61.92 42.1805 
L 53.82 39.8555 
L 53.82 39.8555 
" style="fill:none;stroke:#000000;stroke-linecap:round;stroke-width:1.5;"/>
   </g>
   <g id="line2d_46">
    <path clip-path="url(#p52690972a6)" d="M 53.82 28.6955 
L 59.895 28.6955 
" style="fill:none;stroke:#000000;stroke-linecap:round;stroke-width:1.5;"/>
   </g>
   <g id="line2d_47">
    <path clip-path="url(#p52690972a6)" d="M 53.82 39.8555 
L 53.82 28.6955 
" style="fill:none;stroke:#000000;stroke-linecap:round;stroke-width:1.5;"/>
   </g>
   <g id="line2d_48">
    <path clip-path="url(#p52690972a6)" d="M 53.82 28.6955 
L 47.745 28.6955 
" style="fill:none;stroke:#000000;stroke-linecap:round;stroke-width:1.5;"/>
   </g>
   <g id="line2d_49">
    <path clip-path="url(#p52690972a6)" d="M 53.82 95.6555 
L 53.82 102.6305 
L 53.82 109.6055 
" style="fill:none;stroke:#000000;stroke-linecap:round;stroke-width:1.5;"/>
   </g>
   <g id="line2d_50">
    <path clip-path="url(#p52690972a6)" d="M 53.82 109.6055 
L 53.82 109.6055 
M 63.54 112.9535 
L 63.54 134.1575 
M 63.54 123.5555 
L 70.02 123.5555 
M 53.82 137.5055 
L 53.82 137.5055 
" style="fill:none;stroke:#000000;stroke-linecap:round;stroke-width:1.5;"/>
   </g>
   <g id="line2d_51">
    <path clip-path="url(#p52690972a6)" d="M 53.82 137.5055 
L 53.82 148.6655 
L 45.72 148.6655 
L 61.92 148.6655 
M 48.15 152.0135 
L 59.49 152.0135 
M 52.2 155.3615 
L 55.44 155.3615 
" style="fill:none;stroke:#000000;stroke-linecap:round;stroke-width:1.5;"/>
   </g>
   <g id="line2d_52">
    <path clip-path="url(#p52690972a6)" d="M 86.22 81.7055 
L 86.22 95.6555 
L 86.22 109.6055 
" style="fill:none;stroke:#000000;stroke-linecap:round;stroke-width:1.5;"/>
   </g>
   <g id="line2d_53">
    <path clip-path="url(#p52690972a6)" d="M 86.22 109.6055 
L 86.22 109.6055 
M 95.94 112.9535 
L 95.94 134.1575 
M 95.94 123.5555 
L 102.42 123.5555 
M 86.22 137.5055 
L 86.22 137.5055 
" style="fill:none;stroke:#000000;stroke-linecap:round;stroke-width:1.5;"/>
   </g>
   <g id="line2d_54">
    <path clip-path="url(#p52690972a6)" d="M 86.22 137.5055 
L 86.22 148.6655 
L 78.12 148.6655 
L 94.32 148.6655 
M 80.55 152.0135 
L 91.89 152.0135 
M 84.6 155.3615 
L 87.84 155.3615 
" style="fill:none;stroke:#000000;stroke-linecap:round;stroke-width:1.5;"/>
   </g>
   <g id="line2d_55">
    <path clip-path="url(#p52690972a6)" d="M 280.62 81.7055 
" style="fill:none;stroke:#000000;stroke-linecap:round;stroke-width:1.5;"/>
   </g>
   <g id="line2d_56">
    <path clip-path="url(#p52690972a6)" d="M 280.62 81.7055 
L 281.43 127.043 
L 282.24 172.3805 
" style="fill:none;stroke:#000000;stroke-linecap:round;stroke-width:1.5;"/>
   </g>
   <g id="line2d_57">
    <path clip-path="url(#p52690972a6)" d="M 264.42 95.6555 
L 265.23 140.993 
L 266.04 186.3305 
" style="fill:none;stroke:#000000;stroke-linecap:round;stroke-width:1.5;"/>
   </g>
   <g id="line2d_58">
    <path clip-path="url(#p52690972a6)" d="M 264.42 95.6555 
" style="fill:none;stroke:#000000;stroke-linecap:round;stroke-width:1.5;"/>
   </g>
   <g id="line2d_59">
    <path clip-path="url(#p52690972a6)" d="M 445.86 95.6555 
L 478.26 95.6555 
L 510.66 95.6555 
" style="fill:none;stroke:#000000;stroke-linecap:round;stroke-width:1.5;"/>
   </g>
   <g id="line2d_60">
    <path clip-path="url(#p52690972a6)" d="M 510.66 95.6555 
L 521.19 95.6555 
M 532.53 88.6805 
L 532.53 102.6305 
M 532.53 95.6555 
L 543.06 95.6555 
" style="fill:none;stroke:#008000;stroke-linecap:round;stroke-width:1.5;"/>
   </g>
   <g id="line2d_61">
    <path clip-path="url(#p52690972a6)" d="M 529.29 85.193 
L 537.39 72.98675 
" style="fill:none;stroke:#008000;stroke-linecap:round;stroke-width:1.5;"/>
   </g>
   <g id="line2d_62">
    <path clip-path="url(#p52690972a6)" d="M 543.06 95.6555 
L 543.06 95.6555 
L 545.76 88.6805 
L 551.16 102.6305 
L 556.56 88.6805 
L 561.96 102.6305 
L 567.36 88.6805 
L 572.76 102.6305 
L 575.46 95.6555 
L 575.46 95.6555 
" style="fill:none;stroke:#000000;stroke-linecap:round;stroke-width:1.5;"/>
   </g>
   <g id="line2d_63">
    <path clip-path="url(#p52690972a6)" d="M 575.46 95.6555 
L 591.66 95.6555 
L 607.86 95.6555 
" style="fill:none;stroke:#000000;stroke-linecap:round;stroke-width:1.5;"/>
   </g>
   <g id="line2d_64">
    <path clip-path="url(#p52690972a6)" d="M 607.86 95.6555 
L 607.86 106.8155 
L 599.76 106.8155 
L 615.96 106.8155 
M 602.19 110.1635 
L 613.53 110.1635 
M 606.24 113.5115 
L 609.48 113.5115 
" style="fill:none;stroke:#000000;stroke-linecap:round;stroke-width:1.5;"/>
   </g>
   <g id="line2d_65">
    <path clip-path="url(#p52690972a6)" d="M 489.6 158.4305 
L 500.94 158.4305 
" style="fill:none;stroke:#000000;stroke-linecap:round;stroke-width:1.5;"/>
   </g>
   <g id="line2d_66">
    <path clip-path="url(#p52690972a6)" d="M 450.72 172.1015 
L 466.92 172.1015 
L 467.382857 172.095806 
L 467.845714 172.078724 
L 468.308571 172.050255 
L 468.771429 172.010398 
L 469.234286 171.959153 
L 469.697143 171.89652 
L 470.16 171.8225 
L 470.622857 171.737092 
L 471.085714 171.640296 
L 471.548571 171.532112 
L 472.011429 171.412541 
L 472.474286 171.281582 
L 472.937143 171.139235 
L 473.4 170.9855 
L 473.862857 170.820378 
L 474.325714 170.643867 
L 474.788571 170.455969 
L 475.251429 170.256684 
L 475.714286 170.04601 
L 476.177143 169.823949 
L 476.64 169.5905 
L 477.102857 169.345663 
L 477.565714 169.089439 
L 478.028571 168.821827 
L 478.491429 168.542827 
L 478.954286 168.252439 
L 479.417143 167.950663 
L 479.88 167.6375 
L 480.342857 167.312949 
L 480.805714 166.97701 
L 481.268571 166.629684 
L 481.731429 166.270969 
L 482.194286 165.900867 
L 482.657143 165.519378 
L 483.12 165.1265 
L 483.582857 164.722235 
L 484.045714 164.306582 
L 484.508571 163.879541 
L 484.971429 163.441112 
L 485.434286 162.991296 
L 485.897143 162.530092 
L 486.36 162.0575 
L 486.822857 161.57352 
L 487.285714 161.078153 
L 487.748571 160.571398 
L 488.211429 160.053255 
L 488.674286 159.523724 
L 489.137143 158.982806 
L 489.6 158.4305 
" style="fill:none;stroke:#000000;stroke-linecap:round;stroke-width:1.5;"/>
   </g>
   <g id="line2d_67">
    <path clip-path="url(#p52690972a6)" d="M 450.72 144.7595 
L 466.92 144.7595 
L 467.382857 144.765194 
L 467.845714 144.782276 
L 468.308571 144.810745 
L 468.771429 144.850602 
L 469.234286 144.901847 
L 469.697143 144.96448 
L 470.16 145.0385 
L 470.622857 145.123908 
L 471.085714 145.220704 
L 471.548571 145.328888 
L 472.011429 145.448459 
L 472.474286 145.579418 
L 472.937143 145.721765 
L 473.4 145.8755 
L 473.862857 146.040622 
L 474.325714 146.217133 
L 474.788571 146.405031 
L 475.251429 146.604316 
L 475.714286 146.81499 
L 476.177143 147.037051 
L 476.64 147.2705 
L 477.102857 147.515337 
L 477.565714 147.771561 
L 478.028571 148.039173 
L 478.491429 148.318173 
L 478.954286 148.608561 
L 479.417143 148.910337 
L 479.88 149.2235 
L 480.342857 149.548051 
L 480.805714 149.88399 
L 481.268571 150.231316 
L 481.731429 150.590031 
L 482.194286 150.960133 
L 482.657143 151.341622 
L 483.12 151.7345 
L 483.582857 152.138765 
L 484.045714 152.554418 
L 484.508571 152.981459 
L 484.971429 153.419888 
L 485.434286 153.869704 
L 485.897143 154.330908 
L 486.36 154.8035 
L 486.822857 155.28748 
L 487.285714 155.782847 
L 487.748571 156.289602 
L 488.211429 156.807745 
L 488.674286 157.337276 
L 489.137143 157.878194 
L 489.6 158.4305 
" style="fill:none;stroke:#000000;stroke-linecap:round;stroke-width:1.5;"/>
   </g>
   <g id="line2d_68">
    <path clip-path="url(#p52690972a6)" d="M 450.72 172.1015 
L 451.34208 171.5435 
L 451.93824 170.9855 
L 452.50848 170.4275 
L 453.0528 169.8695 
L 453.5712 169.3115 
L 454.06368 168.7535 
L 454.53024 168.1955 
L 454.97088 167.6375 
L 455.3856 167.0795 
L 455.7744 166.5215 
L 456.13728 165.9635 
L 456.47424 165.4055 
L 456.78528 164.8475 
L 457.0704 164.2895 
L 457.3296 163.7315 
L 457.56288 163.1735 
L 457.77024 162.6155 
L 457.95168 162.0575 
L 458.1072 161.4995 
L 458.2368 160.9415 
L 458.34048 160.3835 
L 458.41824 159.8255 
L 458.47008 159.2675 
L 458.496 158.7095 
L 458.496 158.1515 
L 458.47008 157.5935 
L 458.41824 157.0355 
L 458.34048 156.4775 
L 458.2368 155.9195 
L 458.1072 155.3615 
L 457.95168 154.8035 
L 457.77024 154.2455 
L 457.56288 153.6875 
L 457.3296 153.1295 
L 457.0704 152.5715 
L 456.78528 152.0135 
L 456.47424 151.4555 
L 456.13728 150.8975 
L 455.7744 150.3395 
L 455.3856 149.7815 
L 454.97088 149.2235 
L 454.53024 148.6655 
L 454.06368 148.1075 
L 453.5712 147.5495 
L 453.0528 146.9915 
L 452.50848 146.4335 
L 451.93824 145.8755 
L 451.34208 145.3175 
L 450.72 144.7595 
" style="fill:none;stroke:#000000;stroke-linecap:round;stroke-width:1.5;"/>
   </g>
   <g id="line2d_69">
    <path clip-path="url(#p52690972a6)" d="M 439.38 165.4055 
L 456.47424 165.4055 
" style="fill:none;stroke:#000000;stroke-linecap:round;stroke-width:1.5;"/>
   </g>
   <g id="line2d_70">
    <path clip-path="url(#p52690972a6)" d="M 439.38 151.4555 
L 456.47424 151.4555 
" style="fill:none;stroke:#000000;stroke-linecap:round;stroke-width:1.5;"/>
   </g>
   <g id="line2d_71">
    <path clip-path="url(#p52690972a6)" d="M 439.38 137.5055 
L 439.38 144.4805 
L 439.38 151.4555 
" style="fill:none;stroke:#000000;stroke-linecap:round;stroke-width:1.5;"/>
   </g>
   <g id="line2d_72">
    <path clip-path="url(#p52690972a6)" d="M 439.38 179.3555 
L 439.38 172.3805 
L 439.38 165.4055 
" style="fill:none;stroke:#000000;stroke-linecap:round;stroke-width:1.5;"/>
   </g>
   <g id="line2d_73">
    <path clip-path="url(#p52690972a6)" d="M 434.52 235.1555 
L 445.86 235.1555 
" style="fill:none;stroke:#000000;stroke-linecap:round;stroke-width:1.5;"/>
   </g>
   <g id="line2d_74">
    <path clip-path="url(#p52690972a6)" d="M 395.64 248.8265 
L 411.84 248.8265 
L 412.302857 248.820806 
L 412.765714 248.803724 
L 413.228571 248.775255 
L 413.691429 248.735398 
L 414.154286 248.684153 
L 414.617143 248.62152 
L 415.08 248.5475 
L 415.542857 248.462092 
L 416.005714 248.365296 
L 416.468571 248.257112 
L 416.931429 248.137541 
L 417.394286 248.006582 
L 417.857143 247.864235 
L 418.32 247.7105 
L 418.782857 247.545378 
L 419.245714 247.368867 
L 419.708571 247.180969 
L 420.171429 246.981684 
L 420.634286 246.77101 
L 421.097143 246.548949 
L 421.56 246.3155 
L 422.022857 246.070663 
L 422.485714 245.814439 
L 422.948571 245.546827 
L 423.411429 245.267827 
L 423.874286 244.977439 
L 424.337143 244.675663 
L 424.8 244.3625 
L 425.262857 244.037949 
L 425.725714 243.70201 
L 426.188571 243.354684 
L 426.651429 242.995969 
L 427.114286 242.625867 
L 427.577143 242.244378 
L 428.04 241.8515 
L 428.502857 241.447235 
L 428.965714 241.031582 
L 429.428571 240.604541 
L 429.891429 240.166112 
L 430.354286 239.716296 
L 430.817143 239.255092 
L 431.28 238.7825 
L 431.742857 238.29852 
L 432.205714 237.803153 
L 432.668571 237.296398 
L 433.131429 236.778255 
L 433.594286 236.248724 
L 434.057143 235.707806 
L 434.52 235.1555 
" style="fill:none;stroke:#000000;stroke-linecap:round;stroke-width:1.5;"/>
   </g>
   <g id="line2d_75">
    <path clip-path="url(#p52690972a6)" d="M 395.64 221.4845 
L 411.84 221.4845 
L 412.302857 221.490194 
L 412.765714 221.507276 
L 413.228571 221.535745 
L 413.691429 221.575602 
L 414.154286 221.626847 
L 414.617143 221.68948 
L 415.08 221.7635 
L 415.542857 221.848908 
L 416.005714 221.945704 
L 416.468571 222.053888 
L 416.931429 222.173459 
L 417.394286 222.304418 
L 417.857143 222.446765 
L 418.32 222.6005 
L 418.782857 222.765622 
L 419.245714 222.942133 
L 419.708571 223.130031 
L 420.171429 223.329316 
L 420.634286 223.53999 
L 421.097143 223.762051 
L 421.56 223.9955 
L 422.022857 224.240337 
L 422.485714 224.496561 
L 422.948571 224.764173 
L 423.411429 225.043173 
L 423.874286 225.333561 
L 424.337143 225.635337 
L 424.8 225.9485 
L 425.262857 226.273051 
L 425.725714 226.60899 
L 426.188571 226.956316 
L 426.651429 227.315031 
L 427.114286 227.685133 
L 427.577143 228.066622 
L 428.04 228.4595 
L 428.502857 228.863765 
L 428.965714 229.279418 
L 429.428571 229.706459 
L 429.891429 230.144888 
L 430.354286 230.594704 
L 430.817143 231.055908 
L 431.28 231.5285 
L 431.742857 232.01248 
L 432.205714 232.507847 
L 432.668571 233.014602 
L 433.131429 233.532745 
L 433.594286 234.062276 
L 434.057143 234.603194 
L 434.52 235.1555 
" style="fill:none;stroke:#000000;stroke-linecap:round;stroke-width:1.5;"/>
   </g>
   <g id="line2d_76">
    <path clip-path="url(#p52690972a6)" d="M 390.78 248.8265 
L 391.40208 248.2685 
L 391.99824 247.7105 
L 392.56848 247.1525 
L 393.1128 246.5945 
L 393.6312 246.0365 
L 394.12368 245.4785 
L 394.59024 244.9205 
L 395.03088 244.3625 
L 395.4456 243.8045 
L 395.8344 243.2465 
L 396.19728 242.6885 
L 396.53424 242.1305 
L 396.84528 241.5725 
L 397.1304 241.0145 
L 397.3896 240.4565 
L 397.62288 239.8985 
L 397.83024 239.3405 
L 398.01168 238.7825 
L 398.1672 238.2245 
L 398.2968 237.6665 
L 398.40048 237.1085 
L 398.47824 236.5505 
L 398.53008 235.9925 
L 398.556 235.4345 
L 398.556 234.8765 
L 398.53008 234.3185 
L 398.47824 233.7605 
L 398.40048 233.2025 
L 398.2968 232.6445 
L 398.1672 232.0865 
L 398.01168 231.5285 
L 397.83024 230.9705 
L 397.62288 230.4125 
L 397.3896 229.8545 
L 397.1304 229.2965 
L 396.84528 228.7385 
L 396.53424 228.1805 
L 396.19728 227.6225 
L 395.8344 227.0645 
L 395.4456 226.5065 
L 395.03088 225.9485 
L 394.59024 225.3905 
L 394.12368 224.8325 
L 393.6312 224.2745 
L 393.1128 223.7165 
L 392.56848 223.1585 
L 391.99824 222.6005 
L 391.40208 222.0425 
L 390.78 221.4845 
" style="fill:none;stroke:#000000;stroke-linecap:round;stroke-width:1.5;"/>
   </g>
   <g id="line2d_77">
    <path clip-path="url(#p52690972a6)" d="M 395.64 248.8265 
L 396.26208 248.2685 
L 396.85824 247.7105 
L 397.42848 247.1525 
L 397.9728 246.5945 
L 398.4912 246.0365 
L 398.98368 245.4785 
L 399.45024 244.9205 
L 399.89088 244.3625 
L 400.3056 243.8045 
L 400.6944 243.2465 
L 401.05728 242.6885 
L 401.39424 242.1305 
L 401.70528 241.5725 
L 401.9904 241.0145 
L 402.2496 240.4565 
L 402.48288 239.8985 
L 402.69024 239.3405 
L 402.87168 238.7825 
L 403.0272 238.2245 
L 403.1568 237.6665 
L 403.26048 237.1085 
L 403.33824 236.5505 
L 403.39008 235.9925 
L 403.416 235.4345 
L 403.416 234.8765 
L 403.39008 234.3185 
L 403.33824 233.7605 
L 403.26048 233.2025 
L 403.1568 232.6445 
L 403.0272 232.0865 
L 402.87168 231.5285 
L 402.69024 230.9705 
L 402.48288 230.4125 
L 402.2496 229.8545 
L 401.9904 229.2965 
L 401.70528 228.7385 
L 401.39424 228.1805 
L 401.05728 227.6225 
L 400.6944 227.0645 
L 400.3056 226.5065 
L 399.89088 225.9485 
L 399.45024 225.3905 
L 398.98368 224.8325 
L 398.4912 224.2745 
L 397.9728 223.7165 
L 397.42848 223.1585 
L 396.85824 222.6005 
L 396.26208 222.0425 
L 395.64 221.4845 
" style="fill:none;stroke:#000000;stroke-linecap:round;stroke-width:1.5;"/>
   </g>
   <g id="line2d_78">
    <path clip-path="url(#p52690972a6)" d="M 379.44 242.1305 
L 396.53424 242.1305 
" style="fill:none;stroke:#000000;stroke-linecap:round;stroke-width:1.5;"/>
   </g>
   <g id="line2d_79">
    <path clip-path="url(#p52690972a6)" d="M 379.44 228.1805 
L 396.53424 228.1805 
" style="fill:none;stroke:#000000;stroke-linecap:round;stroke-width:1.5;"/>
   </g>
   <g id="line2d_80">
    <path clip-path="url(#p52690972a6)" d="M 428.04 277.0055 
L 439.38 277.0055 
" style="fill:none;stroke:#000000;stroke-linecap:round;stroke-width:1.5;"/>
   </g>
   <g id="line2d_81">
    <path clip-path="url(#p52690972a6)" d="M 390.78 277.0055 
L 390.78 290.9555 
L 411.84 290.9555 
" style="fill:none;stroke:#000000;stroke-linecap:round;stroke-width:1.5;"/>
   </g>
   <g id="line2d_82">
    <path clip-path="url(#p52690972a6)" d="M 390.78 277.0055 
L 390.78 263.0555 
L 411.84 263.0555 
" style="fill:none;stroke:#000000;stroke-linecap:round;stroke-width:1.5;"/>
   </g>
   <g id="line2d_83">
    <path clip-path="url(#p52690972a6)" d="M 379.44 283.9805 
L 390.78 283.9805 
" style="fill:none;stroke:#000000;stroke-linecap:round;stroke-width:1.5;"/>
   </g>
   <g id="line2d_84">
    <path clip-path="url(#p52690972a6)" d="M 379.44 270.0305 
L 390.78 270.0305 
" style="fill:none;stroke:#000000;stroke-linecap:round;stroke-width:1.5;"/>
   </g>
   <g id="line2d_85">
    <path clip-path="url(#p52690972a6)" d="M 379.44 242.1305 
L 379.44 256.0805 
L 379.44 270.0305 
" style="fill:none;stroke:#000000;stroke-linecap:round;stroke-width:1.5;"/>
   </g>
   <g id="line2d_86">
    <path clip-path="url(#p52690972a6)" d="M 428.04 318.8555 
L 439.38 318.8555 
" style="fill:none;stroke:#000000;stroke-linecap:round;stroke-width:1.5;"/>
   </g>
   <g id="line2d_87">
    <path clip-path="url(#p52690972a6)" d="M 390.78 318.8555 
L 390.78 332.8055 
L 411.84 332.8055 
" style="fill:none;stroke:#000000;stroke-linecap:round;stroke-width:1.5;"/>
   </g>
   <g id="line2d_88">
    <path clip-path="url(#p52690972a6)" d="M 390.78 318.8555 
L 390.78 304.9055 
L 411.84 304.9055 
" style="fill:none;stroke:#000000;stroke-linecap:round;stroke-width:1.5;"/>
   </g>
   <g id="line2d_89">
    <path clip-path="url(#p52690972a6)" d="M 379.44 325.8305 
L 390.78 325.8305 
" style="fill:none;stroke:#000000;stroke-linecap:round;stroke-width:1.5;"/>
   </g>
   <g id="line2d_90">
    <path clip-path="url(#p52690972a6)" d="M 379.44 311.8805 
L 390.78 311.8805 
" style="fill:none;stroke:#000000;stroke-linecap:round;stroke-width:1.5;"/>
   </g>
   <g id="line2d_91">
    <path clip-path="url(#p52690972a6)" d="M 379.44 256.0805 
" style="fill:none;stroke:#000000;stroke-linecap:round;stroke-width:1.5;"/>
   </g>
   <g id="line2d_92">
    <path clip-path="url(#p52690972a6)" d="M 379.44 256.0805 
L 298.44 256.0805 
L 217.44 256.0805 
" style="fill:none;stroke:#000000;stroke-linecap:round;stroke-width:1.5;"/>
   </g>
   <g id="line2d_93">
    <path clip-path="url(#p52690972a6)" d="M 217.44 256.0805 
L 217.44 228.1805 
L 217.44 200.2805 
" style="fill:none;stroke:#000000;stroke-linecap:round;stroke-width:1.5;"/>
   </g>
   <g id="line2d_94">
    <path clip-path="url(#p52690972a6)" d="M 217.44 200.2805 
L 359.19 200.2805 
L 500.94 200.2805 
" style="fill:none;stroke:#000000;stroke-linecap:round;stroke-width:1.5;"/>
   </g>
   <g id="line2d_95">
    <path clip-path="url(#p52690972a6)" d="M 500.94 200.2805 
L 500.94 179.3555 
L 500.94 158.4305 
" style="fill:none;stroke:#000000;stroke-linecap:round;stroke-width:1.5;"/>
   </g>
   <g id="line2d_96">
    <path clip-path="url(#p52690972a6)" d="M 379.44 228.1805 
L 363.24 228.1805 
L 347.04 228.1805 
" style="fill:none;stroke:#000000;stroke-linecap:round;stroke-width:1.5;"/>
   </g>
   <g id="line2d_97">
    <path clip-path="url(#p52690972a6)" d="M 363.24 88.6805 
" style="fill:none;stroke:#000000;stroke-linecap:round;stroke-width:1.5;"/>
   </g>
   <g id="line2d_98">
    <path clip-path="url(#p52690972a6)" d="M 379.44 283.9805 
L 371.34 283.9805 
L 363.24 283.9805 
" style="fill:none;stroke:#000000;stroke-linecap:round;stroke-width:1.5;"/>
   </g>
   <g id="line2d_99">
    <path clip-path="url(#p52690972a6)" d="M 363.24 228.1805 
L 363.24 256.0805 
L 363.24 283.9805 
" style="fill:none;stroke:#000000;stroke-linecap:round;stroke-width:1.5;"/>
   </g>
   <g id="line2d_100">
    <path clip-path="url(#p52690972a6)" d="M 335.7 228.1805 
L 347.04 228.1805 
" style="fill:none;stroke:#000000;stroke-linecap:round;stroke-width:1.5;"/>
   </g>
   <g id="line2d_101">
    <path clip-path="url(#p52690972a6)" d="M 296.82 241.8515 
L 313.02 241.8515 
L 313.482857 241.845806 
L 313.945714 241.828724 
L 314.408571 241.800255 
L 314.871429 241.760398 
L 315.334286 241.709153 
L 315.797143 241.64652 
L 316.26 241.5725 
L 316.722857 241.487092 
L 317.185714 241.390296 
L 317.648571 241.282112 
L 318.111429 241.162541 
L 318.574286 241.031582 
L 319.037143 240.889235 
L 319.5 240.7355 
L 319.962857 240.570378 
L 320.425714 240.393867 
L 320.888571 240.205969 
L 321.351429 240.006684 
L 321.814286 239.79601 
L 322.277143 239.573949 
L 322.74 239.3405 
L 323.202857 239.095663 
L 323.665714 238.839439 
L 324.128571 238.571827 
L 324.591429 238.292827 
L 325.054286 238.002439 
L 325.517143 237.700663 
L 325.98 237.3875 
L 326.442857 237.062949 
L 326.905714 236.72701 
L 327.368571 236.379684 
L 327.831429 236.020969 
L 328.294286 235.650867 
L 328.757143 235.269378 
L 329.22 234.8765 
L 329.682857 234.472235 
L 330.145714 234.056582 
L 330.608571 233.629541 
L 331.071429 233.191112 
L 331.534286 232.741296 
L 331.997143 232.280092 
L 332.46 231.8075 
L 332.922857 231.32352 
L 333.385714 230.828153 
L 333.848571 230.321398 
L 334.311429 229.803255 
L 334.774286 229.273724 
L 335.237143 228.732806 
L 335.7 228.1805 
" style="fill:none;stroke:#000000;stroke-linecap:round;stroke-width:1.5;"/>
   </g>
   <g id="line2d_102">
    <path clip-path="url(#p52690972a6)" d="M 296.82 214.5095 
L 313.02 214.5095 
L 313.482857 214.515194 
L 313.945714 214.532276 
L 314.408571 214.560745 
L 314.871429 214.600602 
L 315.334286 214.651847 
L 315.797143 214.71448 
L 316.26 214.7885 
L 316.722857 214.873908 
L 317.185714 214.970704 
L 317.648571 215.078888 
L 318.111429 215.198459 
L 318.574286 215.329418 
L 319.037143 215.471765 
L 319.5 215.6255 
L 319.962857 215.790622 
L 320.425714 215.967133 
L 320.888571 216.155031 
L 321.351429 216.354316 
L 321.814286 216.56499 
L 322.277143 216.787051 
L 322.74 217.0205 
L 323.202857 217.265337 
L 323.665714 217.521561 
L 324.128571 217.789173 
L 324.591429 218.068173 
L 325.054286 218.358561 
L 325.517143 218.660337 
L 325.98 218.9735 
L 326.442857 219.298051 
L 326.905714 219.63399 
L 327.368571 219.981316 
L 327.831429 220.340031 
L 328.294286 220.710133 
L 328.757143 221.091622 
L 329.22 221.4845 
L 329.682857 221.888765 
L 330.145714 222.304418 
L 330.608571 222.731459 
L 331.071429 223.169888 
L 331.534286 223.619704 
L 331.997143 224.080908 
L 332.46 224.5535 
L 332.922857 225.03748 
L 333.385714 225.532847 
L 333.848571 226.039602 
L 334.311429 226.557745 
L 334.774286 227.087276 
L 335.237143 227.628194 
L 335.7 228.1805 
" style="fill:none;stroke:#000000;stroke-linecap:round;stroke-width:1.5;"/>
   </g>
   <g id="line2d_103">
    <path clip-path="url(#p52690972a6)" d="M 291.96 241.8515 
L 292.58208 241.2935 
L 293.17824 240.7355 
L 293.74848 240.1775 
L 294.2928 239.6195 
L 294.8112 239.0615 
L 295.30368 238.5035 
L 295.77024 237.9455 
L 296.21088 237.3875 
L 296.6256 236.8295 
L 297.0144 236.2715 
L 297.37728 235.7135 
L 297.71424 235.1555 
L 298.02528 234.5975 
L 298.3104 234.0395 
L 298.5696 233.4815 
L 298.80288 232.9235 
L 299.01024 232.3655 
L 299.19168 231.8075 
L 299.3472 231.2495 
L 299.4768 230.6915 
L 299.58048 230.1335 
L 299.65824 229.5755 
L 299.71008 229.0175 
L 299.736 228.4595 
L 299.736 227.9015 
L 299.71008 227.3435 
L 299.65824 226.7855 
L 299.58048 226.2275 
L 299.4768 225.6695 
L 299.3472 225.1115 
L 299.19168 224.5535 
L 299.01024 223.9955 
L 298.80288 223.4375 
L 298.5696 222.8795 
L 298.3104 222.3215 
L 298.02528 221.7635 
L 297.71424 221.2055 
L 297.37728 220.6475 
L 297.0144 220.0895 
L 296.6256 219.5315 
L 296.21088 218.9735 
L 295.77024 218.4155 
L 295.30368 217.8575 
L 294.8112 217.2995 
L 294.2928 216.7415 
L 293.74848 216.1835 
L 293.17824 215.6255 
L 292.58208 215.0675 
L 291.96 214.5095 
" style="fill:none;stroke:#000000;stroke-linecap:round;stroke-width:1.5;"/>
   </g>
   <g id="line2d_104">
    <path clip-path="url(#p52690972a6)" d="M 296.82 241.8515 
L 297.44208 241.2935 
L 298.03824 240.7355 
L 298.60848 240.1775 
L 299.1528 239.6195 
L 299.6712 239.0615 
L 300.16368 238.5035 
L 300.63024 237.9455 
L 301.07088 237.3875 
L 301.4856 236.8295 
L 301.8744 236.2715 
L 302.23728 235.7135 
L 302.57424 235.1555 
L 302.88528 234.5975 
L 303.1704 234.0395 
L 303.4296 233.4815 
L 303.66288 232.9235 
L 303.87024 232.3655 
L 304.05168 231.8075 
L 304.2072 231.2495 
L 304.3368 230.6915 
L 304.44048 230.1335 
L 304.51824 229.5755 
L 304.57008 229.0175 
L 304.596 228.4595 
L 304.596 227.9015 
L 304.57008 227.3435 
L 304.51824 226.7855 
L 304.44048 226.2275 
L 304.3368 225.6695 
L 304.2072 225.1115 
L 304.05168 224.5535 
L 303.87024 223.9955 
L 303.66288 223.4375 
L 303.4296 222.8795 
L 303.1704 222.3215 
L 302.88528 221.7635 
L 302.57424 221.2055 
L 302.23728 220.6475 
L 301.8744 220.0895 
L 301.4856 219.5315 
L 301.07088 218.9735 
L 300.63024 218.4155 
L 300.16368 217.8575 
L 299.6712 217.2995 
L 299.1528 216.7415 
L 298.60848 216.1835 
L 298.03824 215.6255 
L 297.44208 215.0675 
L 296.82 214.5095 
" style="fill:none;stroke:#000000;stroke-linecap:round;stroke-width:1.5;"/>
   </g>
   <g id="line2d_105">
    <path clip-path="url(#p52690972a6)" d="M 280.62 235.1555 
L 297.71424 235.1555 
" style="fill:none;stroke:#000000;stroke-linecap:round;stroke-width:1.5;"/>
   </g>
   <g id="line2d_106">
    <path clip-path="url(#p52690972a6)" d="M 280.62 221.2055 
L 297.71424 221.2055 
" style="fill:none;stroke:#000000;stroke-linecap:round;stroke-width:1.5;"/>
   </g>
   <g id="line2d_107">
    <path clip-path="url(#p52690972a6)" d="M 379.44 311.8805 
L 330.84 311.8805 
L 282.24 311.8805 
" style="fill:none;stroke:#000000;stroke-linecap:round;stroke-width:1.5;"/>
   </g>
   <g id="line2d_108">
    <path clip-path="url(#p52690972a6)" d="M 379.44 325.8305 
L 322.74 325.8305 
L 266.04 325.8305 
" style="fill:none;stroke:#000000;stroke-linecap:round;stroke-width:1.5;"/>
   </g>
   <g id="line2d_109">
    <path clip-path="url(#p52690972a6)" d="M 280.62 221.2055 
L 232.02 221.2055 
L 183.42 221.2055 
" style="fill:none;stroke:#000000;stroke-linecap:round;stroke-width:1.5;"/>
   </g>
   <g id="line2d_110">
    <path clip-path="url(#p52690972a6)" d="M 183.42 221.2055 
" style="fill:none;stroke:#000000;stroke-linecap:round;stroke-width:1.5;"/>
   </g>
   <g id="line2d_111">
    <path clip-path="url(#p52690972a6)" d="M 183.42 221.2055 
L 183.42 144.4805 
L 183.42 67.7555 
" style="fill:none;stroke:#000000;stroke-linecap:round;stroke-width:1.5;"/>
   </g>
   <g id="line2d_112">
    <path clip-path="url(#p52690972a6)" d="M 183.42 67.7555 
L 183.42 67.7555 
L 175.32 65.4305 
L 191.52 60.7805 
L 175.32 56.1305 
L 191.52 51.4805 
L 175.32 46.8305 
L 191.52 42.1805 
L 183.42 39.8555 
L 183.42 39.8555 
" style="fill:none;stroke:#000000;stroke-linecap:round;stroke-width:1.5;"/>
   </g>
   <g id="line2d_113">
    <path clip-path="url(#p52690972a6)" d="M 183.42 28.6955 
L 189.495 28.6955 
" style="fill:none;stroke:#000000;stroke-linecap:round;stroke-width:1.5;"/>
   </g>
   <g id="line2d_114">
    <path clip-path="url(#p52690972a6)" d="M 183.42 39.8555 
L 183.42 28.6955 
" style="fill:none;stroke:#000000;stroke-linecap:round;stroke-width:1.5;"/>
   </g>
   <g id="line2d_115">
    <path clip-path="url(#p52690972a6)" d="M 183.42 28.6955 
L 177.345 28.6955 
" style="fill:none;stroke:#000000;stroke-linecap:round;stroke-width:1.5;"/>
   </g>
   <g id="line2d_116">
    <path clip-path="url(#p52690972a6)" d="M 280.62 235.1555 
L 215.82 235.1555 
L 151.02 235.1555 
" style="fill:none;stroke:#000000;stroke-linecap:round;stroke-width:1.5;"/>
   </g>
   <g id="line2d_117">
    <path clip-path="url(#p52690972a6)" d="M 151.02 235.1555 
" style="fill:none;stroke:#000000;stroke-linecap:round;stroke-width:1.5;"/>
   </g>
   <g id="line2d_118">
    <path clip-path="url(#p52690972a6)" d="M 151.02 235.1555 
L 151.02 151.4555 
L 151.02 67.7555 
" style="fill:none;stroke:#000000;stroke-linecap:round;stroke-width:1.5;"/>
   </g>
   <g id="line2d_119">
    <path clip-path="url(#p52690972a6)" d="M 151.02 67.7555 
L 151.02 67.7555 
L 142.92 65.4305 
L 159.12 60.7805 
L 142.92 56.1305 
L 159.12 51.4805 
L 142.92 46.8305 
L 159.12 42.1805 
L 151.02 39.8555 
L 151.02 39.8555 
" style="fill:none;stroke:#000000;stroke-linecap:round;stroke-width:1.5;"/>
   </g>
   <g id="line2d_120">
    <path clip-path="url(#p52690972a6)" d="M 151.02 28.6955 
L 157.095 28.6955 
" style="fill:none;stroke:#000000;stroke-linecap:round;stroke-width:1.5;"/>
   </g>
   <g id="line2d_121">
    <path clip-path="url(#p52690972a6)" d="M 151.02 39.8555 
L 151.02 28.6955 
" style="fill:none;stroke:#000000;stroke-linecap:round;stroke-width:1.5;"/>
   </g>
   <g id="line2d_122">
    <path clip-path="url(#p52690972a6)" d="M 151.02 28.6955 
L 144.945 28.6955 
" style="fill:none;stroke:#000000;stroke-linecap:round;stroke-width:1.5;"/>
   </g>
   <g id="line2d_123">
    <path clip-path="url(#p52690972a6)" d="M 151.02 235.1555 
L 151.02 242.1305 
L 151.02 249.1055 
" style="fill:none;stroke:#000000;stroke-linecap:round;stroke-width:1.5;"/>
   </g>
   <g id="line2d_124">
    <path clip-path="url(#p52690972a6)" d="M 151.02 249.1055 
L 151.02 249.1055 
M 160.74 252.4535 
L 160.74 273.6575 
M 160.74 263.0555 
L 167.22 263.0555 
M 151.02 277.0055 
L 151.02 277.0055 
" style="fill:none;stroke:#000000;stroke-linecap:round;stroke-width:1.5;"/>
   </g>
   <g id="line2d_125">
    <path clip-path="url(#p52690972a6)" d="M 151.02 277.0055 
L 151.02 288.1655 
L 142.92 288.1655 
L 159.12 288.1655 
M 145.35 291.5135 
L 156.69 291.5135 
M 149.4 294.8615 
L 152.64 294.8615 
" style="fill:none;stroke:#000000;stroke-linecap:round;stroke-width:1.5;"/>
   </g>
   <g id="line2d_126">
    <path clip-path="url(#p52690972a6)" d="M 183.42 221.2055 
L 183.42 235.1555 
L 183.42 249.1055 
" style="fill:none;stroke:#000000;stroke-linecap:round;stroke-width:1.5;"/>
   </g>
   <g id="line2d_127">
    <path clip-path="url(#p52690972a6)" d="M 183.42 249.1055 
L 183.42 249.1055 
M 193.14 252.4535 
L 193.14 273.6575 
M 193.14 263.0555 
L 199.62 263.0555 
M 183.42 277.0055 
L 183.42 277.0055 
" style="fill:none;stroke:#000000;stroke-linecap:round;stroke-width:1.5;"/>
   </g>
   <g id="line2d_128">
    <path clip-path="url(#p52690972a6)" d="M 183.42 277.0055 
L 183.42 288.1655 
L 175.32 288.1655 
L 191.52 288.1655 
M 177.75 291.5135 
L 189.09 291.5135 
M 181.8 294.8615 
L 185.04 294.8615 
" style="fill:none;stroke:#000000;stroke-linecap:round;stroke-width:1.5;"/>
   </g>
   <g id="line2d_129">
    <path clip-path="url(#p52690972a6)" d="M 280.62 221.2055 
" style="fill:none;stroke:#000000;stroke-linecap:round;stroke-width:1.5;"/>
   </g>
   <g id="line2d_130">
    <path clip-path="url(#p52690972a6)" d="M 280.62 221.2055 
L 281.43 266.543 
L 282.24 311.8805 
" style="fill:none;stroke:#000000;stroke-linecap:round;stroke-width:1.5;"/>
   </g>
   <g id="line2d_131">
    <path clip-path="url(#p52690972a6)" d="M 264.42 235.1555 
L 265.23 280.493 
L 266.04 325.8305 
" style="fill:none;stroke:#000000;stroke-linecap:round;stroke-width:1.5;"/>
   </g>
   <g id="line2d_132">
    <path clip-path="url(#p52690972a6)" d="M 264.42 235.1555 
" style="fill:none;stroke:#000000;stroke-linecap:round;stroke-width:1.5;"/>
   </g>
   <g id="line2d_133">
    <path clip-path="url(#p52690972a6)" d="M 445.86 235.1555 
L 478.26 235.1555 
L 510.66 235.1555 
" style="fill:none;stroke:#000000;stroke-linecap:round;stroke-width:1.5;"/>
   </g>
   <g id="line2d_134">
    <path clip-path="url(#p52690972a6)" d="M 510.66 235.1555 
L 521.19 235.1555 
M 532.53 228.1805 
L 532.53 242.1305 
M 532.53 235.1555 
L 543.06 235.1555 
" style="fill:none;stroke:#008000;stroke-linecap:round;stroke-width:1.5;"/>
   </g>
   <g id="line2d_135">
    <path clip-path="url(#p52690972a6)" d="M 529.29 224.693 
L 537.39 212.48675 
" style="fill:none;stroke:#008000;stroke-linecap:round;stroke-width:1.5;"/>
   </g>
   <g id="line2d_136">
    <path clip-path="url(#p52690972a6)" d="M 543.06 235.1555 
L 543.06 235.1555 
L 545.76 228.1805 
L 551.16 242.1305 
L 556.56 228.1805 
L 561.96 242.1305 
L 567.36 228.1805 
L 572.76 242.1305 
L 575.46 235.1555 
L 575.46 235.1555 
" style="fill:none;stroke:#000000;stroke-linecap:round;stroke-width:1.5;"/>
   </g>
   <g id="line2d_137">
    <path clip-path="url(#p52690972a6)" d="M 575.46 235.1555 
L 591.66 235.1555 
L 607.86 235.1555 
" style="fill:none;stroke:#000000;stroke-linecap:round;stroke-width:1.5;"/>
   </g>
   <g id="line2d_138">
    <path clip-path="url(#p52690972a6)" d="M 607.86 235.1555 
L 607.86 246.3155 
L 599.76 246.3155 
L 615.96 246.3155 
M 602.19 249.6635 
L 613.53 249.6635 
M 606.24 253.0115 
L 609.48 253.0115 
" style="fill:none;stroke:#000000;stroke-linecap:round;stroke-width:1.5;"/>
   </g>
   <g id="line2d_139">
    <path clip-path="url(#p52690972a6)" d="M 489.6 297.9305 
L 500.94 297.9305 
" style="fill:none;stroke:#000000;stroke-linecap:round;stroke-width:1.5;"/>
   </g>
   <g id="line2d_140">
    <path clip-path="url(#p52690972a6)" d="M 450.72 311.6015 
L 466.92 311.6015 
L 467.382857 311.595806 
L 467.845714 311.578724 
L 468.308571 311.550255 
L 468.771429 311.510398 
L 469.234286 311.459153 
L 469.697143 311.39652 
L 470.16 311.3225 
L 470.622857 311.237092 
L 471.085714 311.140296 
L 471.548571 311.032112 
L 472.011429 310.912541 
L 472.474286 310.781582 
L 472.937143 310.639235 
L 473.4 310.4855 
L 473.862857 310.320378 
L 474.325714 310.143867 
L 474.788571 309.955969 
L 475.251429 309.756684 
L 475.714286 309.54601 
L 476.177143 309.323949 
L 476.64 309.0905 
L 477.102857 308.845663 
L 477.565714 308.589439 
L 478.028571 308.321827 
L 478.491429 308.042827 
L 478.954286 307.752439 
L 479.417143 307.450663 
L 479.88 307.1375 
L 480.342857 306.812949 
L 480.805714 306.47701 
L 481.268571 306.129684 
L 481.731429 305.770969 
L 482.194286 305.400867 
L 482.657143 305.019378 
L 483.12 304.6265 
L 483.582857 304.222235 
L 484.045714 303.806582 
L 484.508571 303.379541 
L 484.971429 302.941112 
L 485.434286 302.491296 
L 485.897143 302.030092 
L 486.36 301.5575 
L 486.822857 301.07352 
L 487.285714 300.578153 
L 487.748571 300.071398 
L 488.211429 299.553255 
L 488.674286 299.023724 
L 489.137143 298.482806 
L 489.6 297.9305 
" style="fill:none;stroke:#000000;stroke-linecap:round;stroke-width:1.5;"/>
   </g>
   <g id="line2d_141">
    <path clip-path="url(#p52690972a6)" d="M 450.72 284.2595 
L 466.92 284.2595 
L 467.382857 284.265194 
L 467.845714 284.282276 
L 468.308571 284.310745 
L 468.771429 284.350602 
L 469.234286 284.401847 
L 469.697143 284.46448 
L 470.16 284.5385 
L 470.622857 284.623908 
L 471.085714 284.720704 
L 471.548571 284.828888 
L 472.011429 284.948459 
L 472.474286 285.079418 
L 472.937143 285.221765 
L 473.4 285.3755 
L 473.862857 285.540622 
L 474.325714 285.717133 
L 474.788571 285.905031 
L 475.251429 286.104316 
L 475.714286 286.31499 
L 476.177143 286.537051 
L 476.64 286.7705 
L 477.102857 287.015337 
L 477.565714 287.271561 
L 478.028571 287.539173 
L 478.491429 287.818173 
L 478.954286 288.108561 
L 479.417143 288.410337 
L 479.88 288.7235 
L 480.342857 289.048051 
L 480.805714 289.38399 
L 481.268571 289.731316 
L 481.731429 290.090031 
L 482.194286 290.460133 
L 482.657143 290.841622 
L 483.12 291.2345 
L 483.582857 291.638765 
L 484.045714 292.054418 
L 484.508571 292.481459 
L 484.971429 292.919888 
L 485.434286 293.369704 
L 485.897143 293.830908 
L 486.36 294.3035 
L 486.822857 294.78748 
L 487.285714 295.282847 
L 487.748571 295.789602 
L 488.211429 296.307745 
L 488.674286 296.837276 
L 489.137143 297.378194 
L 489.6 297.9305 
" style="fill:none;stroke:#000000;stroke-linecap:round;stroke-width:1.5;"/>
   </g>
   <g id="line2d_142">
    <path clip-path="url(#p52690972a6)" d="M 450.72 311.6015 
L 451.34208 311.0435 
L 451.93824 310.4855 
L 452.50848 309.9275 
L 453.0528 309.3695 
L 453.5712 308.8115 
L 454.06368 308.2535 
L 454.53024 307.6955 
L 454.97088 307.1375 
L 455.3856 306.5795 
L 455.7744 306.0215 
L 456.13728 305.4635 
L 456.47424 304.9055 
L 456.78528 304.3475 
L 457.0704 303.7895 
L 457.3296 303.2315 
L 457.56288 302.6735 
L 457.77024 302.1155 
L 457.95168 301.5575 
L 458.1072 300.9995 
L 458.2368 300.4415 
L 458.34048 299.8835 
L 458.41824 299.3255 
L 458.47008 298.7675 
L 458.496 298.2095 
L 458.496 297.6515 
L 458.47008 297.0935 
L 458.41824 296.5355 
L 458.34048 295.9775 
L 458.2368 295.4195 
L 458.1072 294.8615 
L 457.95168 294.3035 
L 457.77024 293.7455 
L 457.56288 293.1875 
L 457.3296 292.6295 
L 457.0704 292.0715 
L 456.78528 291.5135 
L 456.47424 290.9555 
L 456.13728 290.3975 
L 455.7744 289.8395 
L 455.3856 289.2815 
L 454.97088 288.7235 
L 454.53024 288.1655 
L 454.06368 287.6075 
L 453.5712 287.0495 
L 453.0528 286.4915 
L 452.50848 285.9335 
L 451.93824 285.3755 
L 451.34208 284.8175 
L 450.72 284.2595 
" style="fill:none;stroke:#000000;stroke-linecap:round;stroke-width:1.5;"/>
   </g>
   <g id="line2d_143">
    <path clip-path="url(#p52690972a6)" d="M 439.38 304.9055 
L 456.47424 304.9055 
" style="fill:none;stroke:#000000;stroke-linecap:round;stroke-width:1.5;"/>
   </g>
   <g id="line2d_144">
    <path clip-path="url(#p52690972a6)" d="M 439.38 290.9555 
L 456.47424 290.9555 
" style="fill:none;stroke:#000000;stroke-linecap:round;stroke-width:1.5;"/>
   </g>
   <g id="line2d_145">
    <path clip-path="url(#p52690972a6)" d="M 439.38 277.0055 
L 439.38 283.9805 
L 439.38 290.9555 
" style="fill:none;stroke:#000000;stroke-linecap:round;stroke-width:1.5;"/>
   </g>
   <g id="line2d_146">
    <path clip-path="url(#p52690972a6)" d="M 439.38 318.8555 
L 439.38 311.8805 
L 439.38 304.9055 
" style="fill:none;stroke:#000000;stroke-linecap:round;stroke-width:1.5;"/>
   </g>
   <g id="line2d_147">
    <path clip-path="url(#p52690972a6)" d="M 500.94 297.9305 
L 505.8 297.9305 
L 510.66 297.9305 
" style="fill:none;stroke:#000000;stroke-linecap:round;stroke-width:1.5;"/>
   </g>
   <g id="line2d_148">
    <path clip-path="url(#p52690972a6)" d="M 510.66 297.9305 
L 521.19 297.9305 
M 532.53 290.9555 
L 532.53 304.9055 
M 532.53 297.9305 
L 543.06 297.9305 
" style="fill:none;stroke:#ff0000;stroke-linecap:round;stroke-width:1.5;"/>
   </g>
   <g id="line2d_149">
    <path clip-path="url(#p52690972a6)" d="M 529.29 287.468 
L 537.39 275.26175 
" style="fill:none;stroke:#ff0000;stroke-linecap:round;stroke-width:1.5;"/>
   </g>
   <g id="line2d_150">
    <path clip-path="url(#p52690972a6)" d="M 543.06 297.9305 
L 543.06 297.9305 
L 545.76 290.9555 
L 551.16 304.9055 
L 556.56 290.9555 
L 561.96 304.9055 
L 567.36 290.9555 
L 572.76 304.9055 
L 575.46 297.9305 
L 575.46 297.9305 
" style="fill:none;stroke:#000000;stroke-linecap:round;stroke-width:1.5;"/>
   </g>
   <g id="line2d_151">
    <path clip-path="url(#p52690972a6)" d="M 575.46 297.9305 
L 591.66 297.9305 
L 607.86 297.9305 
" style="fill:none;stroke:#000000;stroke-linecap:round;stroke-width:1.5;"/>
   </g>
   <g id="line2d_152">
    <path clip-path="url(#p52690972a6)" d="M 607.86 297.9305 
L 607.86 309.0905 
L 599.76 309.0905 
L 615.96 309.0905 
M 602.19 312.4385 
L 613.53 312.4385 
M 606.24 315.7865 
L 609.48 315.7865 
" style="fill:none;stroke:#000000;stroke-linecap:round;stroke-width:1.5;"/>
   </g>
   <g id="patch_12">
    <path clip-path="url(#p52690972a6)" d="M 379.44 118.673 
C 380.084444 118.673 380.702579 118.452521 381.158269 118.060121 
C 381.61396 117.667721 381.87 117.135437 381.87 116.5805 
C 381.87 116.025563 381.61396 115.493279 381.158269 115.100879 
C 380.702579 114.708479 380.084444 114.488 379.44 114.488 
C 378.795556 114.488 378.177421 114.708479 377.721731 115.100879 
C 377.26604 115.493279 377.01 116.025563 377.01 116.5805 
C 377.01 117.135437 377.26604 117.667721 377.721731 118.060121 
C 378.177421 118.452521 378.795556 118.673 379.44 118.673 
z
" style="stroke:#000000;stroke-linejoin:miter;stroke-width:1.5;"/>
   </g>
   <g id="patch_13">
    <path clip-path="url(#p52690972a6)" d="M 363.24 90.773 
C 363.884444 90.773 364.502579 90.552521 364.958269 90.160121 
C 365.41396 89.767721 365.67 89.235437 365.67 88.6805 
C 365.67 88.125563 365.41396 87.593279 364.958269 87.200879 
C 364.502579 86.808479 363.884444 86.588 363.24 86.588 
C 362.595556 86.588 361.977421 86.808479 361.521731 87.200879 
C 361.06604 87.593279 360.81 88.125563 360.81 88.6805 
C 360.81 89.235437 361.06604 89.767721 361.521731 90.160121 
C 361.977421 90.552521 362.595556 90.773 363.24 90.773 
z
" style="stroke:#000000;stroke-linejoin:miter;stroke-width:1.5;"/>
   </g>
   <g id="patch_14">
    <path clip-path="url(#p52690972a6)" d="M 86.22 83.798 
C 86.864444 83.798 87.482579 83.577521 87.938269 83.185121 
C 88.39396 82.792721 88.65 82.260437 88.65 81.7055 
C 88.65 81.150563 88.39396 80.618279 87.938269 80.225879 
C 87.482579 79.833479 86.864444 79.613 86.22 79.613 
C 85.575556 79.613 84.957421 79.833479 84.501731 80.225879 
C 84.04604 80.618279 83.79 81.150563 83.79 81.7055 
C 83.79 82.260437 84.04604 82.792721 84.501731 83.185121 
C 84.957421 83.577521 85.575556 83.798 86.22 83.798 
z
" style="stroke:#000000;stroke-linejoin:miter;stroke-width:1.5;"/>
   </g>
   <g id="patch_15">
    <path clip-path="url(#p52690972a6)" d="M 53.82 97.748 
C 54.464444 97.748 55.082579 97.527521 55.538269 97.135121 
C 55.99396 96.742721 56.25 96.210437 56.25 95.6555 
C 56.25 95.100563 55.99396 94.568279 55.538269 94.175879 
C 55.082579 93.783479 54.464444 93.563 53.82 93.563 
C 53.175556 93.563 52.557421 93.783479 52.101731 94.175879 
C 51.64604 94.568279 51.39 95.100563 51.39 95.6555 
C 51.39 96.210437 51.64604 96.742721 52.101731 97.135121 
C 52.557421 97.527521 53.175556 97.748 53.82 97.748 
z
" style="stroke:#000000;stroke-linejoin:miter;stroke-width:1.5;"/>
   </g>
   <g id="patch_16">
    <path clip-path="url(#p52690972a6)" d="M 53.82 116.3015 
C 54.85111 116.3015 55.840127 115.948734 56.569231 115.320894 
C 57.298336 114.693053 57.708 113.8414 57.708 112.9535 
C 57.708 112.0656 57.298336 111.213947 56.569231 110.586106 
C 55.840127 109.958266 54.85111 109.6055 53.82 109.6055 
C 52.78889 109.6055 51.799873 109.958266 51.070769 110.586106 
C 50.341664 111.213947 49.932 112.0656 49.932 112.9535 
C 49.932 113.8414 50.341664 114.693053 51.070769 115.320894 
C 51.799873 115.948734 52.78889 116.3015 53.82 116.3015 
z
" style="fill:none;stroke:#000000;stroke-linejoin:miter;stroke-width:1.5;"/>
   </g>
   <g id="patch_17">
    <path clip-path="url(#p52690972a6)" d="M 53.82 137.5055 
C 54.85111 137.5055 55.840127 137.152734 56.569231 136.524894 
C 57.298336 135.897053 57.708 135.0454 57.708 134.1575 
C 57.708 133.2696 57.298336 132.417947 56.569231 131.790106 
C 55.840127 131.162266 54.85111 130.8095 53.82 130.8095 
C 52.78889 130.8095 51.799873 131.162266 51.070769 131.790106 
C 50.341664 132.417947 49.932 133.2696 49.932 134.1575 
C 49.932 135.0454 50.341664 135.897053 51.070769 136.524894 
C 51.799873 137.152734 52.78889 137.5055 53.82 137.5055 
z
" style="fill:none;stroke:#000000;stroke-linejoin:miter;stroke-width:1.5;"/>
   </g>
   <g id="patch_18">
    <path clip-path="url(#p52690972a6)" d="M 86.22 116.3015 
C 87.25111 116.3015 88.240127 115.948734 88.969231 115.320894 
C 89.698336 114.693053 90.108 113.8414 90.108 112.9535 
C 90.108 112.0656 89.698336 111.213947 88.969231 110.586106 
C 88.240127 109.958266 87.25111 109.6055 86.22 109.6055 
C 85.18889 109.6055 84.199873 109.958266 83.470769 110.586106 
C 82.741664 111.213947 82.332 112.0656 82.332 112.9535 
C 82.332 113.8414 82.741664 114.693053 83.470769 115.320894 
C 84.199873 115.948734 85.18889 116.3015 86.22 116.3015 
z
" style="fill:none;stroke:#000000;stroke-linejoin:miter;stroke-width:1.5;"/>
   </g>
   <g id="patch_19">
    <path clip-path="url(#p52690972a6)" d="M 86.22 137.5055 
C 87.25111 137.5055 88.240127 137.152734 88.969231 136.524894 
C 89.698336 135.897053 90.108 135.0454 90.108 134.1575 
C 90.108 133.2696 89.698336 132.417947 88.969231 131.790106 
C 88.240127 131.162266 87.25111 130.8095 86.22 130.8095 
C 85.18889 130.8095 84.199873 131.162266 83.470769 131.790106 
C 82.741664 132.417947 82.332 133.2696 82.332 134.1575 
C 82.332 135.0454 82.741664 135.897053 83.470769 136.524894 
C 84.199873 137.152734 85.18889 137.5055 86.22 137.5055 
z
" style="fill:none;stroke:#000000;stroke-linejoin:miter;stroke-width:1.5;"/>
   </g>
   <g id="patch_20">
    <path clip-path="url(#p52690972a6)" d="M 280.62 83.798 
C 281.264444 83.798 281.882579 83.577521 282.338269 83.185121 
C 282.79396 82.792721 283.05 82.260437 283.05 81.7055 
C 283.05 81.150563 282.79396 80.618279 282.338269 80.225879 
C 281.882579 79.833479 281.264444 79.613 280.62 79.613 
C 279.975556 79.613 279.357421 79.833479 278.901731 80.225879 
C 278.44604 80.618279 278.19 81.150563 278.19 81.7055 
C 278.19 82.260437 278.44604 82.792721 278.901731 83.185121 
C 279.357421 83.577521 279.975556 83.798 280.62 83.798 
z
" style="stroke:#000000;stroke-linejoin:miter;stroke-width:1.5;"/>
   </g>
   <g id="patch_21">
    <path clip-path="url(#p52690972a6)" d="M 264.42 97.748 
C 265.064444 97.748 265.682579 97.527521 266.138269 97.135121 
C 266.59396 96.742721 266.85 96.210437 266.85 95.6555 
C 266.85 95.100563 266.59396 94.568279 266.138269 94.175879 
C 265.682579 93.783479 265.064444 93.563 264.42 93.563 
C 263.775556 93.563 263.157421 93.783479 262.701731 94.175879 
C 262.24604 94.568279 261.99 95.100563 261.99 95.6555 
C 261.99 96.210437 262.24604 96.742721 262.701731 97.135121 
C 263.157421 97.527521 263.775556 97.748 264.42 97.748 
z
" style="stroke:#000000;stroke-linejoin:miter;stroke-width:1.5;"/>
   </g>
   <g id="patch_22">
    <path clip-path="url(#p52690972a6)" d="M 521.19 88.6805 
L 532.53 95.6555 
L 521.19 102.6305 
z
" style="fill:none;stroke:#008000;stroke-linejoin:miter;stroke-width:1.5;"/>
   </g>
   <g id="patch_23">
    <path clip-path="url(#p52690972a6)" d="M 379.44 258.173 
C 380.084444 258.173 380.702579 257.952521 381.158269 257.560121 
C 381.61396 257.167721 381.87 256.635437 381.87 256.0805 
C 381.87 255.525563 381.61396 254.993279 381.158269 254.600879 
C 380.702579 254.208479 380.084444 253.988 379.44 253.988 
C 378.795556 253.988 378.177421 254.208479 377.721731 254.600879 
C 377.26604 254.993279 377.01 255.525563 377.01 256.0805 
C 377.01 256.635437 377.26604 257.167721 377.721731 257.560121 
C 378.177421 257.952521 378.795556 258.173 379.44 258.173 
z
" style="stroke:#000000;stroke-linejoin:miter;stroke-width:1.5;"/>
   </g>
   <g id="patch_24">
    <path clip-path="url(#p52690972a6)" d="M 363.24 90.773 
C 363.884444 90.773 364.502579 90.552521 364.958269 90.160121 
C 365.41396 89.767721 365.67 89.235437 365.67 88.6805 
C 365.67 88.125563 365.41396 87.593279 364.958269 87.200879 
C 364.502579 86.808479 363.884444 86.588 363.24 86.588 
C 362.595556 86.588 361.977421 86.808479 361.521731 87.200879 
C 361.06604 87.593279 360.81 88.125563 360.81 88.6805 
C 360.81 89.235437 361.06604 89.767721 361.521731 90.160121 
C 361.977421 90.552521 362.595556 90.773 363.24 90.773 
z
" style="stroke:#000000;stroke-linejoin:miter;stroke-width:1.5;"/>
   </g>
   <g id="patch_25">
    <path clip-path="url(#p52690972a6)" d="M 183.42 223.298 
C 184.064444 223.298 184.682579 223.077521 185.138269 222.685121 
C 185.59396 222.292721 185.85 221.760437 185.85 221.2055 
C 185.85 220.650563 185.59396 220.118279 185.138269 219.725879 
C 184.682579 219.333479 184.064444 219.113 183.42 219.113 
C 182.775556 219.113 182.157421 219.333479 181.701731 219.725879 
C 181.24604 220.118279 180.99 220.650563 180.99 221.2055 
C 180.99 221.760437 181.24604 222.292721 181.701731 222.685121 
C 182.157421 223.077521 182.775556 223.298 183.42 223.298 
z
" style="stroke:#000000;stroke-linejoin:miter;stroke-width:1.5;"/>
   </g>
   <g id="patch_26">
    <path clip-path="url(#p52690972a6)" d="M 151.02 237.248 
C 151.664444 237.248 152.282579 237.027521 152.738269 236.635121 
C 153.19396 236.242721 153.45 235.710437 153.45 235.1555 
C 153.45 234.600563 153.19396 234.068279 152.738269 233.675879 
C 152.282579 233.283479 151.664444 233.063 151.02 233.063 
C 150.375556 233.063 149.757421 233.283479 149.301731 233.675879 
C 148.84604 234.068279 148.59 234.600563 148.59 235.1555 
C 148.59 235.710437 148.84604 236.242721 149.301731 236.635121 
C 149.757421 237.027521 150.375556 237.248 151.02 237.248 
z
" style="stroke:#000000;stroke-linejoin:miter;stroke-width:1.5;"/>
   </g>
   <g id="patch_27">
    <path clip-path="url(#p52690972a6)" d="M 151.02 255.8015 
C 152.05111 255.8015 153.040127 255.448734 153.769231 254.820894 
C 154.498336 254.193053 154.908 253.3414 154.908 252.4535 
C 154.908 251.5656 154.498336 250.713947 153.769231 250.086106 
C 153.040127 249.458266 152.05111 249.1055 151.02 249.1055 
C 149.98889 249.1055 148.999873 249.458266 148.270769 250.086106 
C 147.541664 250.713947 147.132 251.5656 147.132 252.4535 
C 147.132 253.3414 147.541664 254.193053 148.270769 254.820894 
C 148.999873 255.448734 149.98889 255.8015 151.02 255.8015 
z
" style="fill:none;stroke:#000000;stroke-linejoin:miter;stroke-width:1.5;"/>
   </g>
   <g id="patch_28">
    <path clip-path="url(#p52690972a6)" d="M 151.02 277.0055 
C 152.05111 277.0055 153.040127 276.652734 153.769231 276.024894 
C 154.498336 275.397053 154.908 274.5454 154.908 273.6575 
C 154.908 272.7696 154.498336 271.917947 153.769231 271.290106 
C 153.040127 270.662266 152.05111 270.3095 151.02 270.3095 
C 149.98889 270.3095 148.999873 270.662266 148.270769 271.290106 
C 147.541664 271.917947 147.132 272.7696 147.132 273.6575 
C 147.132 274.5454 147.541664 275.397053 148.270769 276.024894 
C 148.999873 276.652734 149.98889 277.0055 151.02 277.0055 
z
" style="fill:none;stroke:#000000;stroke-linejoin:miter;stroke-width:1.5;"/>
   </g>
   <g id="patch_29">
    <path clip-path="url(#p52690972a6)" d="M 183.42 255.8015 
C 184.45111 255.8015 185.440127 255.448734 186.169231 254.820894 
C 186.898336 254.193053 187.308 253.3414 187.308 252.4535 
C 187.308 251.5656 186.898336 250.713947 186.169231 250.086106 
C 185.440127 249.458266 184.45111 249.1055 183.42 249.1055 
C 182.38889 249.1055 181.399873 249.458266 180.670769 250.086106 
C 179.941664 250.713947 179.532 251.5656 179.532 252.4535 
C 179.532 253.3414 179.941664 254.193053 180.670769 254.820894 
C 181.399873 255.448734 182.38889 255.8015 183.42 255.8015 
z
" style="fill:none;stroke:#000000;stroke-linejoin:miter;stroke-width:1.5;"/>
   </g>
   <g id="patch_30">
    <path clip-path="url(#p52690972a6)" d="M 183.42 277.0055 
C 184.45111 277.0055 185.440127 276.652734 186.169231 276.024894 
C 186.898336 275.397053 187.308 274.5454 187.308 273.6575 
C 187.308 272.7696 186.898336 271.917947 186.169231 271.290106 
C 185.440127 270.662266 184.45111 270.3095 183.42 270.3095 
C 182.38889 270.3095 181.399873 270.662266 180.670769 271.290106 
C 179.941664 271.917947 179.532 272.7696 179.532 273.6575 
C 179.532 274.5454 179.941664 275.397053 180.670769 276.024894 
C 181.399873 276.652734 182.38889 277.0055 183.42 277.0055 
z
" style="fill:none;stroke:#000000;stroke-linejoin:miter;stroke-width:1.5;"/>
   </g>
   <g id="patch_31">
    <path clip-path="url(#p52690972a6)" d="M 280.62 223.298 
C 281.264444 223.298 281.882579 223.077521 282.338269 222.685121 
C 282.79396 222.292721 283.05 221.760437 283.05 221.2055 
C 283.05 220.650563 282.79396 220.118279 282.338269 219.725879 
C 281.882579 219.333479 281.264444 219.113 280.62 219.113 
C 279.975556 219.113 279.357421 219.333479 278.901731 219.725879 
C 278.44604 220.118279 278.19 220.650563 278.19 221.2055 
C 278.19 221.760437 278.44604 222.292721 278.901731 222.685121 
C 279.357421 223.077521 279.975556 223.298 280.62 223.298 
z
" style="stroke:#000000;stroke-linejoin:miter;stroke-width:1.5;"/>
   </g>
   <g id="patch_32">
    <path clip-path="url(#p52690972a6)" d="M 264.42 237.248 
C 265.064444 237.248 265.682579 237.027521 266.138269 236.635121 
C 266.59396 236.242721 266.85 235.710437 266.85 235.1555 
C 266.85 234.600563 266.59396 234.068279 266.138269 233.675879 
C 265.682579 233.283479 265.064444 233.063 264.42 233.063 
C 263.775556 233.063 263.157421 233.283479 262.701731 233.675879 
C 262.24604 234.068279 261.99 234.600563 261.99 235.1555 
C 261.99 235.710437 262.24604 236.242721 262.701731 236.635121 
C 263.157421 237.027521 263.775556 237.248 264.42 237.248 
z
" style="stroke:#000000;stroke-linejoin:miter;stroke-width:1.5;"/>
   </g>
   <g id="patch_33">
    <path clip-path="url(#p52690972a6)" d="M 521.19 228.1805 
L 532.53 235.1555 
L 521.19 242.1305 
z
" style="fill:none;stroke:#008000;stroke-linejoin:miter;stroke-width:1.5;"/>
   </g>
   <g id="patch_34">
    <path clip-path="url(#p52690972a6)" d="M 521.19 290.9555 
L 532.53 297.9305 
L 521.19 304.9055 
z
" style="fill:none;stroke:#ff0000;stroke-linejoin:miter;stroke-width:1.5;"/>
   </g>
   <g id="text_1">
    <!-- $ _{74HC86D\_6V}}$ -->
    <defs>
     <path d="M 8.203125 72.90625 
L 55.078125 72.90625 
L 55.078125 68.703125 
L 28.609375 0 
L 18.3125 0 
L 43.21875 64.59375 
L 8.203125 64.59375 
z
" id="DejaVuSans-37"/>
     <path d="M 37.796875 64.3125 
L 12.890625 25.390625 
L 37.796875 25.390625 
z
M 35.203125 72.90625 
L 47.609375 72.90625 
L 47.609375 25.390625 
L 58.015625 25.390625 
L 58.015625 17.1875 
L 47.609375 17.1875 
L 47.609375 0 
L 37.796875 0 
L 37.796875 17.1875 
L 4.890625 17.1875 
L 4.890625 26.703125 
z
" id="DejaVuSans-34"/>
     <path d="M 9.8125 72.90625 
L 19.671875 72.90625 
L 19.671875 43.015625 
L 55.515625 43.015625 
L 55.515625 72.90625 
L 65.375 72.90625 
L 65.375 0 
L 55.515625 0 
L 55.515625 34.71875 
L 19.671875 34.71875 
L 19.671875 0 
L 9.8125 0 
z
" id="DejaVuSans-48"/>
     <path d="M 64.40625 67.28125 
L 64.40625 56.890625 
Q 59.421875 61.53125 53.78125 63.8125 
Q 48.140625 66.109375 41.796875 66.109375 
Q 29.296875 66.109375 22.65625 58.46875 
Q 16.015625 50.828125 16.015625 36.375 
Q 16.015625 21.96875 22.65625 14.328125 
Q 29.296875 6.6875 41.796875 6.6875 
Q 48.140625 6.6875 53.78125 8.984375 
Q 59.421875 11.28125 64.40625 15.921875 
L 64.40625 5.609375 
Q 59.234375 2.09375 53.4375 0.328125 
Q 47.65625 -1.421875 41.21875 -1.421875 
Q 24.65625 -1.421875 15.125 8.703125 
Q 5.609375 18.84375 5.609375 36.375 
Q 5.609375 53.953125 15.125 64.078125 
Q 24.65625 74.21875 41.21875 74.21875 
Q 47.75 74.21875 53.53125 72.484375 
Q 59.328125 70.75 64.40625 67.28125 
" id="DejaVuSans-43"/>
     <path d="M 31.78125 34.625 
Q 24.75 34.625 20.71875 30.859375 
Q 16.703125 27.09375 16.703125 20.515625 
Q 16.703125 13.921875 20.71875 10.15625 
Q 24.75 6.390625 31.78125 6.390625 
Q 38.8125 6.390625 42.859375 10.171875 
Q 46.921875 13.96875 46.921875 20.515625 
Q 46.921875 27.09375 42.890625 30.859375 
Q 38.875 34.625 31.78125 34.625 
M 21.921875 38.8125 
Q 15.578125 40.375 12.03125 44.71875 
Q 8.5 49.078125 8.5 55.328125 
Q 8.5 64.0625 14.71875 69.140625 
Q 20.953125 74.21875 31.78125 74.21875 
Q 42.671875 74.21875 48.875 69.140625 
Q 55.078125 64.0625 55.078125 55.328125 
Q 55.078125 49.078125 51.53125 44.71875 
Q 48 40.375 41.703125 38.8125 
Q 48.828125 37.15625 52.796875 32.3125 
Q 56.78125 27.484375 56.78125 20.515625 
Q 56.78125 9.90625 50.3125 4.234375 
Q 43.84375 -1.421875 31.78125 -1.421875 
Q 19.734375 -1.421875 13.25 4.234375 
Q 6.78125 9.90625 6.78125 20.515625 
Q 6.78125 27.484375 10.78125 32.3125 
Q 14.796875 37.15625 21.921875 38.8125 
M 18.3125 54.390625 
Q 18.3125 48.734375 21.84375 45.5625 
Q 25.390625 42.390625 31.78125 42.390625 
Q 38.140625 42.390625 41.71875 45.5625 
Q 45.3125 48.734375 45.3125 54.390625 
Q 45.3125 60.0625 41.71875 63.234375 
Q 38.140625 66.40625 31.78125 66.40625 
Q 25.390625 66.40625 21.84375 63.234375 
Q 18.3125 60.0625 18.3125 54.390625 
" id="DejaVuSans-38"/>
     <path d="M 33.015625 40.375 
Q 26.375 40.375 22.484375 35.828125 
Q 18.609375 31.296875 18.609375 23.390625 
Q 18.609375 15.53125 22.484375 10.953125 
Q 26.375 6.390625 33.015625 6.390625 
Q 39.65625 6.390625 43.53125 10.953125 
Q 47.40625 15.53125 47.40625 23.390625 
Q 47.40625 31.296875 43.53125 35.828125 
Q 39.65625 40.375 33.015625 40.375 
M 52.59375 71.296875 
L 52.59375 62.3125 
Q 48.875 64.0625 45.09375 64.984375 
Q 41.3125 65.921875 37.59375 65.921875 
Q 27.828125 65.921875 22.671875 59.328125 
Q 17.53125 52.734375 16.796875 39.40625 
Q 19.671875 43.65625 24.015625 45.921875 
Q 28.375 48.1875 33.59375 48.1875 
Q 44.578125 48.1875 50.953125 41.515625 
Q 57.328125 34.859375 57.328125 23.390625 
Q 57.328125 12.15625 50.6875 5.359375 
Q 44.046875 -1.421875 33.015625 -1.421875 
Q 20.359375 -1.421875 13.671875 8.265625 
Q 6.984375 17.96875 6.984375 36.375 
Q 6.984375 53.65625 15.1875 63.9375 
Q 23.390625 74.21875 37.203125 74.21875 
Q 40.921875 74.21875 44.703125 73.484375 
Q 48.484375 72.75 52.59375 71.296875 
" id="DejaVuSans-36"/>
     <path d="M 19.671875 64.796875 
L 19.671875 8.109375 
L 31.59375 8.109375 
Q 46.6875 8.109375 53.6875 14.9375 
Q 60.6875 21.78125 60.6875 36.53125 
Q 60.6875 51.171875 53.6875 57.984375 
Q 46.6875 64.796875 31.59375 64.796875 
z
M 9.8125 72.90625 
L 30.078125 72.90625 
Q 51.265625 72.90625 61.171875 64.09375 
Q 71.09375 55.28125 71.09375 36.53125 
Q 71.09375 17.671875 61.125 8.828125 
Q 51.171875 0 30.078125 0 
L 9.8125 0 
z
" id="DejaVuSans-44"/>
     <path d="M 50.984375 -16.609375 
L 50.984375 -23.578125 
L -0.984375 -23.578125 
L -0.984375 -16.609375 
z
" id="DejaVuSans-5f"/>
     <path d="M 28.609375 0 
L 0.78125 72.90625 
L 11.078125 72.90625 
L 34.1875 11.53125 
L 57.328125 72.90625 
L 67.578125 72.90625 
L 39.796875 0 
z
" id="DejaVuSans-56"/>
    </defs>
    <g transform="translate(384.75 75.2345)scale(0.12 -0.12)">
     <use transform="translate(0.957031 -15.953125)scale(0.7)" xlink:href="#DejaVuSans-37"/>
     <use transform="translate(45.493164 -15.953125)scale(0.7)" xlink:href="#DejaVuSans-34"/>
     <use transform="translate(90.029297 -15.953125)scale(0.7)" xlink:href="#DejaVuSans-48"/>
     <use transform="translate(142.666016 -15.953125)scale(0.7)" xlink:href="#DejaVuSans-43"/>
     <use transform="translate(191.542969 -15.953125)scale(0.7)" xlink:href="#DejaVuSans-38"/>
     <use transform="translate(236.079102 -15.953125)scale(0.7)" xlink:href="#DejaVuSans-36"/>
     <use transform="translate(280.615234 -15.953125)scale(0.7)" xlink:href="#DejaVuSans-44"/>
     <use transform="translate(334.516602 -15.953125)scale(0.7)" xlink:href="#DejaVuSans-5f"/>
     <use transform="translate(369.516602 -15.953125)scale(0.7)" xlink:href="#DejaVuSans-36"/>
     <use transform="translate(414.052734 -15.953125)scale(0.7)" xlink:href="#DejaVuSans-56"/>
    </g>
   </g>
   <g id="text_2">
    <!-- C$_0$ -->
    <defs>
     <path d="M 31.78125 66.40625 
Q 24.171875 66.40625 20.328125 58.90625 
Q 16.5 51.421875 16.5 36.375 
Q 16.5 21.390625 20.328125 13.890625 
Q 24.171875 6.390625 31.78125 6.390625 
Q 39.453125 6.390625 43.28125 13.890625 
Q 47.125 21.390625 47.125 36.375 
Q 47.125 51.421875 43.28125 58.90625 
Q 39.453125 66.40625 31.78125 66.40625 
M 31.78125 74.21875 
Q 44.046875 74.21875 50.515625 64.515625 
Q 56.984375 54.828125 56.984375 36.375 
Q 56.984375 17.96875 50.515625 8.265625 
Q 44.046875 -1.421875 31.78125 -1.421875 
Q 19.53125 -1.421875 13.0625 8.265625 
Q 6.59375 17.96875 6.59375 36.375 
Q 6.59375 54.828125 13.0625 64.515625 
Q 19.53125 74.21875 31.78125 74.21875 
" id="DejaVuSans-30"/>
    </defs>
    <g transform="translate(210.3 111.294875)scale(0.12 -0.12)">
     <use transform="translate(0 0.78125)" xlink:href="#DejaVuSans-43"/>
     <use transform="translate(70.78125 -15.625)scale(0.7)" xlink:href="#DejaVuSans-30"/>
    </g>
   </g>
   <g id="text_3">
    <!-- 10 k$\Omega$ -->
    <defs>
     <path d="M 12.40625 8.296875 
L 28.515625 8.296875 
L 28.515625 63.921875 
L 10.984375 60.40625 
L 10.984375 69.390625 
L 28.421875 72.90625 
L 38.28125 72.90625 
L 38.28125 8.296875 
L 54.390625 8.296875 
L 54.390625 0 
L 12.40625 0 
z
" id="DejaVuSans-31"/>
     <path id="DejaVuSans-20"/>
     <path d="M 9.078125 75.984375 
L 18.109375 75.984375 
L 18.109375 31.109375 
L 44.921875 54.6875 
L 56.390625 54.6875 
L 27.390625 29.109375 
L 57.625 0 
L 45.90625 0 
L 18.109375 26.703125 
L 18.109375 0 
L 9.078125 0 
z
" id="DejaVuSans-6b"/>
     <path d="M 72.609375 8.6875 
L 72.609375 0 
L 43.3125 0 
L 43.3125 8.6875 
Q 51.953125 13.421875 56.78125 21.53125 
Q 61.625 29.640625 61.625 39.5 
Q 61.625 51.21875 55.171875 58.296875 
Q 48.734375 65.375 38.1875 65.375 
Q 27.640625 65.375 21.171875 58.265625 
Q 14.703125 51.171875 14.703125 39.5 
Q 14.703125 29.640625 19.53125 21.53125 
Q 24.421875 13.421875 33.109375 8.6875 
L 33.109375 0 
L 3.8125 0 
L 3.8125 8.6875 
L 19.390625 8.6875 
Q 11.671875 15.484375 8.109375 22.75 
Q 4.59375 30.03125 4.59375 39.015625 
Q 4.59375 54.546875 13.96875 64.15625 
Q 23.296875 73.78125 38.1875 73.78125 
Q 52.984375 73.78125 62.40625 64.15625 
Q 71.78125 54.59375 71.78125 39.5 
Q 71.78125 30.03125 68.3125 22.796875 
Q 64.84375 15.578125 56.984375 8.6875 
z
" id="DejaVuSans-3a9"/>
    </defs>
    <g transform="translate(97.56 57.11675)scale(0.12 -0.12)">
     <use transform="translate(0 0.015625)" xlink:href="#DejaVuSans-31"/>
     <use transform="translate(63.623047 0.015625)" xlink:href="#DejaVuSans-30"/>
     <use transform="translate(127.246094 0.015625)" xlink:href="#DejaVuSans-20"/>
     <use transform="translate(159.033203 0.015625)" xlink:href="#DejaVuSans-6b"/>
     <use transform="translate(216.943359 0.015625)" xlink:href="#DejaVuSans-3a9"/>
    </g>
   </g>
   <g id="text_4">
    <!-- $V_{CC}$ -->
    <g transform="translate(76.02 23.409875)scale(0.12 -0.12)">
     <use transform="translate(0 0.09375)" xlink:href="#DejaVuSans-56"/>
     <use transform="translate(69.365234 -16.3125)scale(0.7)" xlink:href="#DejaVuSans-43"/>
     <use transform="translate(118.242188 -16.3125)scale(0.7)" xlink:href="#DejaVuSans-43"/>
    </g>
   </g>
   <g id="text_5">
    <!-- 10 k$\Omega$ -->
    <g transform="translate(7.2 57.11675)scale(0.12 -0.12)">
     <use transform="translate(0 0.015625)" xlink:href="#DejaVuSans-31"/>
     <use transform="translate(63.623047 0.015625)" xlink:href="#DejaVuSans-30"/>
     <use transform="translate(127.246094 0.015625)" xlink:href="#DejaVuSans-20"/>
     <use transform="translate(159.033203 0.015625)" xlink:href="#DejaVuSans-6b"/>
     <use transform="translate(216.943359 0.015625)" xlink:href="#DejaVuSans-3a9"/>
    </g>
   </g>
   <g id="text_6">
    <!-- $V_{CC}$ -->
    <g transform="translate(43.62 23.409875)scale(0.12 -0.12)">
     <use transform="translate(0 0.09375)" xlink:href="#DejaVuSans-56"/>
     <use transform="translate(69.365234 -16.3125)scale(0.7)" xlink:href="#DejaVuSans-43"/>
     <use transform="translate(118.242188 -16.3125)scale(0.7)" xlink:href="#DejaVuSans-43"/>
    </g>
   </g>
   <g id="text_7">
    <!-- 100 $\Omega$ -->
    <g transform="translate(541.26 83.394875)scale(0.12 -0.12)">
     <use transform="translate(0 0.78125)" xlink:href="#DejaVuSans-31"/>
     <use transform="translate(63.623047 0.78125)" xlink:href="#DejaVuSans-30"/>
     <use transform="translate(127.246094 0.78125)" xlink:href="#DejaVuSans-30"/>
     <use transform="translate(190.869141 0.78125)" xlink:href="#DejaVuSans-20"/>
     <use transform="translate(222.65625 0.78125)" xlink:href="#DejaVuSans-3a9"/>
    </g>
   </g>
   <g id="text_8">
    <!-- $_{74HC32D\_6V}$ -->
    <defs>
     <path d="M 40.578125 39.3125 
Q 47.65625 37.796875 51.625 33 
Q 55.609375 28.21875 55.609375 21.1875 
Q 55.609375 10.40625 48.1875 4.484375 
Q 40.765625 -1.421875 27.09375 -1.421875 
Q 22.515625 -1.421875 17.65625 -0.515625 
Q 12.796875 0.390625 7.625 2.203125 
L 7.625 11.71875 
Q 11.71875 9.328125 16.59375 8.109375 
Q 21.484375 6.890625 26.8125 6.890625 
Q 36.078125 6.890625 40.9375 10.546875 
Q 45.796875 14.203125 45.796875 21.1875 
Q 45.796875 27.640625 41.28125 31.265625 
Q 36.765625 34.90625 28.71875 34.90625 
L 20.21875 34.90625 
L 20.21875 43.015625 
L 29.109375 43.015625 
Q 36.375 43.015625 40.234375 45.921875 
Q 44.09375 48.828125 44.09375 54.296875 
Q 44.09375 59.90625 40.109375 62.90625 
Q 36.140625 65.921875 28.71875 65.921875 
Q 24.65625 65.921875 20.015625 65.03125 
Q 15.375 64.15625 9.8125 62.3125 
L 9.8125 71.09375 
Q 15.4375 72.65625 20.34375 73.4375 
Q 25.25 74.21875 29.59375 74.21875 
Q 40.828125 74.21875 47.359375 69.109375 
Q 53.90625 64.015625 53.90625 55.328125 
Q 53.90625 49.265625 50.4375 45.09375 
Q 46.96875 40.921875 40.578125 39.3125 
" id="DejaVuSans-33"/>
     <path d="M 19.1875 8.296875 
L 53.609375 8.296875 
L 53.609375 0 
L 7.328125 0 
L 7.328125 8.296875 
Q 12.9375 14.109375 22.625 23.890625 
Q 32.328125 33.6875 34.8125 36.53125 
Q 39.546875 41.84375 41.421875 45.53125 
Q 43.3125 49.21875 43.3125 52.78125 
Q 43.3125 58.59375 39.234375 62.25 
Q 35.15625 65.921875 28.609375 65.921875 
Q 23.96875 65.921875 18.8125 64.3125 
Q 13.671875 62.703125 7.8125 59.421875 
L 7.8125 69.390625 
Q 13.765625 71.78125 18.9375 73 
Q 24.125 74.21875 28.421875 74.21875 
Q 39.75 74.21875 46.484375 68.546875 
Q 53.21875 62.890625 53.21875 53.421875 
Q 53.21875 48.921875 51.53125 44.890625 
Q 49.859375 40.875 45.40625 35.40625 
Q 44.1875 33.984375 37.640625 27.21875 
Q 31.109375 20.453125 19.1875 8.296875 
" id="DejaVuSans-32"/>
    </defs>
    <g transform="translate(442.26 138.0095)scale(0.12 -0.12)">
     <use transform="translate(0.957031 -15.953125)scale(0.7)" xlink:href="#DejaVuSans-37"/>
     <use transform="translate(45.493164 -15.953125)scale(0.7)" xlink:href="#DejaVuSans-34"/>
     <use transform="translate(90.029297 -15.953125)scale(0.7)" xlink:href="#DejaVuSans-48"/>
     <use transform="translate(142.666016 -15.953125)scale(0.7)" xlink:href="#DejaVuSans-43"/>
     <use transform="translate(191.542969 -15.953125)scale(0.7)" xlink:href="#DejaVuSans-33"/>
     <use transform="translate(236.079102 -15.953125)scale(0.7)" xlink:href="#DejaVuSans-32"/>
     <use transform="translate(280.615234 -15.953125)scale(0.7)" xlink:href="#DejaVuSans-44"/>
     <use transform="translate(334.516602 -15.953125)scale(0.7)" xlink:href="#DejaVuSans-5f"/>
     <use transform="translate(369.516602 -15.953125)scale(0.7)" xlink:href="#DejaVuSans-36"/>
     <use transform="translate(414.052734 -15.953125)scale(0.7)" xlink:href="#DejaVuSans-56"/>
    </g>
   </g>
   <g id="text_9">
    <!-- $^{74HC08D\_6V}$ -->
    <g transform="translate(383.94 350.293625)scale(0.12 -0.12)">
     <use transform="translate(0.957031 39.046875)scale(0.7)" xlink:href="#DejaVuSans-37"/>
     <use transform="translate(45.493164 39.046875)scale(0.7)" xlink:href="#DejaVuSans-34"/>
     <use transform="translate(90.029297 39.046875)scale(0.7)" xlink:href="#DejaVuSans-48"/>
     <use transform="translate(142.666016 39.046875)scale(0.7)" xlink:href="#DejaVuSans-43"/>
     <use transform="translate(191.542969 39.046875)scale(0.7)" xlink:href="#DejaVuSans-30"/>
     <use transform="translate(236.079102 39.046875)scale(0.7)" xlink:href="#DejaVuSans-38"/>
     <use transform="translate(280.615234 39.046875)scale(0.7)" xlink:href="#DejaVuSans-44"/>
     <use transform="translate(334.516602 39.046875)scale(0.7)" xlink:href="#DejaVuSans-5f"/>
     <use transform="translate(369.516602 39.046875)scale(0.7)" xlink:href="#DejaVuSans-36"/>
     <use transform="translate(414.052734 39.046875)scale(0.7)" xlink:href="#DejaVuSans-56"/>
    </g>
   </g>
   <g id="text_10">
    <!-- 10 k$\Omega$ -->
    <g transform="translate(194.76 57.11675)scale(0.12 -0.12)">
     <use transform="translate(0 0.015625)" xlink:href="#DejaVuSans-31"/>
     <use transform="translate(63.623047 0.015625)" xlink:href="#DejaVuSans-30"/>
     <use transform="translate(127.246094 0.015625)" xlink:href="#DejaVuSans-20"/>
     <use transform="translate(159.033203 0.015625)" xlink:href="#DejaVuSans-6b"/>
     <use transform="translate(216.943359 0.015625)" xlink:href="#DejaVuSans-3a9"/>
    </g>
   </g>
   <g id="text_11">
    <!-- $V_{CC}$ -->
    <g transform="translate(173.22 23.409875)scale(0.12 -0.12)">
     <use transform="translate(0 0.09375)" xlink:href="#DejaVuSans-56"/>
     <use transform="translate(69.365234 -16.3125)scale(0.7)" xlink:href="#DejaVuSans-43"/>
     <use transform="translate(118.242188 -16.3125)scale(0.7)" xlink:href="#DejaVuSans-43"/>
    </g>
   </g>
   <g id="text_12">
    <!-- $V_{CC}$ -->
    <g transform="translate(140.82 23.409875)scale(0.12 -0.12)">
     <use transform="translate(0 0.09375)" xlink:href="#DejaVuSans-56"/>
     <use transform="translate(69.365234 -16.3125)scale(0.7)" xlink:href="#DejaVuSans-43"/>
     <use transform="translate(118.242188 -16.3125)scale(0.7)" xlink:href="#DejaVuSans-43"/>
    </g>
   </g>
   <g id="text_13">
    <!-- 100 $\Omega$ -->
    <g transform="translate(541.26 222.894875)scale(0.12 -0.12)">
     <use transform="translate(0 0.78125)" xlink:href="#DejaVuSans-31"/>
     <use transform="translate(63.623047 0.78125)" xlink:href="#DejaVuSans-30"/>
     <use transform="translate(127.246094 0.78125)" xlink:href="#DejaVuSans-30"/>
     <use transform="translate(190.869141 0.78125)" xlink:href="#DejaVuSans-20"/>
     <use transform="translate(222.65625 0.78125)" xlink:href="#DejaVuSans-3a9"/>
    </g>
   </g>
   <g id="text_14">
    <!-- 100 $\Omega$ -->
    <g transform="translate(541.26 285.669875)scale(0.12 -0.12)">
     <use transform="translate(0 0.78125)" xlink:href="#DejaVuSans-31"/>
     <use transform="translate(63.623047 0.78125)" xlink:href="#DejaVuSans-30"/>
     <use transform="translate(127.246094 0.78125)" xlink:href="#DejaVuSans-30"/>
     <use transform="translate(190.869141 0.78125)" xlink:href="#DejaVuSans-20"/>
     <use transform="translate(222.65625 0.78125)" xlink:href="#DejaVuSans-3a9"/>
    </g>
   </g>
  </g>
 </g>
 <defs>
  <clipPath id="p52690972a6">
   <rect height="340.101" width="633.744" x="13.968" y="10.7"/>
  </clipPath>
 </defs>
</svg>
