<?xml version="1.0" encoding="utf-8" standalone="no"?>
<!DOCTYPE svg PUBLIC "-//W3C//DTD SVG 1.1//EN"
  "http://www.w3.org/Graphics/SVG/1.1/DTD/svg11.dtd">
<!-- Created with matplotlib (http://matplotlib.org/) -->
<svg height="254pt" version="1.1" viewBox="0 0 781 254" width="781pt" xmlns="http://www.w3.org/2000/svg" xmlns:xlink="http://www.w3.org/1999/xlink">
 <defs>
  <style type="text/css">
*{stroke-linecap:butt;stroke-linejoin:round;}
  </style>
 </defs>
 <g id="figure_1">
  <g id="patch_1">
   <path d="M 0 254.28325 
L 781.3096 254.28325 
L 781.3096 0 
L 0 0 
z
" style="fill:none;"/>
  </g>
  <g id="axes_1">
   <g id="patch_2">
    <path clip-path="url(#p3f42121cce)" d="M 265.3478 44.3075 
L 260.686079 48.529394 
L 259.729622 47.088067 
L 251.164763 51.270388 
L 259.713547 47.063843 
L 258.75709 45.622516 
z
" style="stroke:#000000;stroke-linejoin:miter;stroke-width:1.5;"/>
   </g>
   <g id="patch_3">
    <path clip-path="url(#p3f42121cce)" d="M 265.3478 50.585 
L 260.686079 54.806894 
L 259.729622 53.365567 
L 251.164763 57.547888 
L 259.713547 53.341343 
L 258.75709 51.900016 
z
" style="stroke:#000000;stroke-linejoin:miter;stroke-width:1.5;"/>
   </g>
   <g id="patch_4">
    <path clip-path="url(#p3f42121cce)" d="M 374.6978 44.3075 
L 381.28851 45.622516 
L 380.332053 47.063843 
L 388.864763 51.294612 
L 380.315978 47.088067 
L 379.359521 48.529394 
z
" style="stroke:#000000;stroke-linejoin:miter;stroke-width:1.5;"/>
   </g>
   <g id="patch_5">
    <path clip-path="url(#p3f42121cce)" d="M 374.6978 50.585 
L 381.28851 51.900016 
L 380.332053 53.341343 
L 388.864763 57.572112 
L 380.315978 53.365567 
L 379.359521 54.806894 
z
" style="stroke:#000000;stroke-linejoin:miter;stroke-width:1.5;"/>
   </g>
   <g id="patch_6">
    <path clip-path="url(#p3f42121cce)" d="M 698.6978 44.3075 
L 705.28851 45.622516 
L 704.332053 47.063843 
L 712.864763 51.294612 
L 704.315978 47.088067 
L 703.359521 48.529394 
z
" style="stroke:#000000;stroke-linejoin:miter;stroke-width:1.5;"/>
   </g>
   <g id="patch_7">
    <path clip-path="url(#p3f42121cce)" d="M 698.6978 50.585 
L 705.28851 51.900016 
L 704.332053 53.341343 
L 712.864763 57.572112 
L 704.315978 53.365567 
L 703.359521 54.806894 
z
" style="stroke:#000000;stroke-linejoin:miter;stroke-width:1.5;"/>
   </g>
   <g id="patch_8">
    <path clip-path="url(#p3f42121cce)" d="M 536.6978 44.3075 
L 543.28851 45.622516 
L 542.332053 47.063843 
L 550.864763 51.294612 
L 542.315978 47.088067 
L 541.359521 48.529394 
z
" style="stroke:#000000;stroke-linejoin:miter;stroke-width:1.5;"/>
   </g>
   <g id="patch_9">
    <path clip-path="url(#p3f42121cce)" d="M 536.6978 50.585 
L 543.28851 51.900016 
L 542.332053 53.341343 
L 550.864763 57.572112 
L 542.315978 53.365567 
L 541.359521 54.806894 
z
" style="stroke:#000000;stroke-linejoin:miter;stroke-width:1.5;"/>
   </g>
   <g id="line2d_1">
    <path clip-path="url(#p3f42121cce)" d="M 161.5868 216.59 
L 161.5868 230.54 
" style="fill:none;stroke:#000000;stroke-linecap:round;stroke-width:1.5;"/>
   </g>
   <g id="line2d_2">
    <path clip-path="url(#p3f42121cce)" d="M 112.9868 216.59 
L 210.1868 216.59 
L 210.1868 132.89 
L 112.9868 132.89 
L 112.9868 216.59 
" style="fill:none;stroke:#000000;stroke-linecap:round;stroke-width:1.5;"/>
   </g>
   <g id="line2d_3">
    <path clip-path="url(#p3f42121cce)" d="M 112.9868 199.85 
L 96.7868 199.85 
" style="fill:none;stroke:#000000;stroke-linecap:round;stroke-width:1.5;"/>
   </g>
   <g id="line2d_4">
    <path clip-path="url(#p3f42121cce)" d="M 112.9868 174.74 
L 96.7868 174.74 
" style="fill:none;stroke:#000000;stroke-linecap:round;stroke-width:1.5;"/>
   </g>
   <g id="line2d_5">
    <path clip-path="url(#p3f42121cce)" d="M 112.9868 149.63 
L 96.7868 149.63 
" style="fill:none;stroke:#000000;stroke-linecap:round;stroke-width:1.5;"/>
   </g>
   <g id="line2d_6">
    <path clip-path="url(#p3f42121cce)" d="M 210.1868 191.48 
L 226.3868 191.48 
" style="fill:none;stroke:#000000;stroke-linecap:round;stroke-width:1.5;"/>
   </g>
   <g id="line2d_7">
    <path clip-path="url(#p3f42121cce)" d="M 210.1868 158 
L 226.3868 158 
" style="fill:none;stroke:#000000;stroke-linecap:round;stroke-width:1.5;"/>
   </g>
   <g id="line2d_8">
    <path clip-path="url(#p3f42121cce)" d="M 161.5868 132.89 
L 161.5868 118.94 
" style="fill:none;stroke:#000000;stroke-linecap:round;stroke-width:1.5;"/>
   </g>
   <g id="line2d_9">
    <path clip-path="url(#p3f42121cce)" d="M 323.5868 216.59 
L 323.5868 230.54 
" style="fill:none;stroke:#000000;stroke-linecap:round;stroke-width:1.5;"/>
   </g>
   <g id="line2d_10">
    <path clip-path="url(#p3f42121cce)" d="M 274.9868 216.59 
L 372.1868 216.59 
L 372.1868 132.89 
L 274.9868 132.89 
L 274.9868 216.59 
" style="fill:none;stroke:#000000;stroke-linecap:round;stroke-width:1.5;"/>
   </g>
   <g id="line2d_11">
    <path clip-path="url(#p3f42121cce)" d="M 274.9868 199.85 
L 258.7868 199.85 
" style="fill:none;stroke:#000000;stroke-linecap:round;stroke-width:1.5;"/>
   </g>
   <g id="line2d_12">
    <path clip-path="url(#p3f42121cce)" d="M 274.9868 174.74 
L 258.7868 174.74 
" style="fill:none;stroke:#000000;stroke-linecap:round;stroke-width:1.5;"/>
   </g>
   <g id="line2d_13">
    <path clip-path="url(#p3f42121cce)" d="M 274.9868 149.63 
L 258.7868 149.63 
" style="fill:none;stroke:#000000;stroke-linecap:round;stroke-width:1.5;"/>
   </g>
   <g id="line2d_14">
    <path clip-path="url(#p3f42121cce)" d="M 372.1868 191.48 
L 388.3868 191.48 
" style="fill:none;stroke:#000000;stroke-linecap:round;stroke-width:1.5;"/>
   </g>
   <g id="line2d_15">
    <path clip-path="url(#p3f42121cce)" d="M 372.1868 158 
L 388.3868 158 
" style="fill:none;stroke:#000000;stroke-linecap:round;stroke-width:1.5;"/>
   </g>
   <g id="line2d_16">
    <path clip-path="url(#p3f42121cce)" d="M 323.5868 132.89 
L 323.5868 118.94 
" style="fill:none;stroke:#000000;stroke-linecap:round;stroke-width:1.5;"/>
   </g>
   <g id="line2d_17">
    <path clip-path="url(#p3f42121cce)" d="M 485.5868 216.59 
L 485.5868 230.54 
" style="fill:none;stroke:#000000;stroke-linecap:round;stroke-width:1.5;"/>
   </g>
   <g id="line2d_18">
    <path clip-path="url(#p3f42121cce)" d="M 436.9868 216.59 
L 534.1868 216.59 
L 534.1868 132.89 
L 436.9868 132.89 
L 436.9868 216.59 
" style="fill:none;stroke:#000000;stroke-linecap:round;stroke-width:1.5;"/>
   </g>
   <g id="line2d_19">
    <path clip-path="url(#p3f42121cce)" d="M 436.9868 199.85 
L 420.7868 199.85 
" style="fill:none;stroke:#000000;stroke-linecap:round;stroke-width:1.5;"/>
   </g>
   <g id="line2d_20">
    <path clip-path="url(#p3f42121cce)" d="M 436.9868 174.74 
L 420.7868 174.74 
" style="fill:none;stroke:#000000;stroke-linecap:round;stroke-width:1.5;"/>
   </g>
   <g id="line2d_21">
    <path clip-path="url(#p3f42121cce)" d="M 436.9868 149.63 
L 420.7868 149.63 
" style="fill:none;stroke:#000000;stroke-linecap:round;stroke-width:1.5;"/>
   </g>
   <g id="line2d_22">
    <path clip-path="url(#p3f42121cce)" d="M 534.1868 191.48 
L 550.3868 191.48 
" style="fill:none;stroke:#000000;stroke-linecap:round;stroke-width:1.5;"/>
   </g>
   <g id="line2d_23">
    <path clip-path="url(#p3f42121cce)" d="M 534.1868 158 
L 550.3868 158 
" style="fill:none;stroke:#000000;stroke-linecap:round;stroke-width:1.5;"/>
   </g>
   <g id="line2d_24">
    <path clip-path="url(#p3f42121cce)" d="M 485.5868 132.89 
L 485.5868 118.94 
" style="fill:none;stroke:#000000;stroke-linecap:round;stroke-width:1.5;"/>
   </g>
   <g id="line2d_25">
    <path clip-path="url(#p3f42121cce)" d="M 647.5868 216.59 
L 647.5868 230.54 
" style="fill:none;stroke:#000000;stroke-linecap:round;stroke-width:1.5;"/>
   </g>
   <g id="line2d_26">
    <path clip-path="url(#p3f42121cce)" d="M 598.9868 216.59 
L 696.1868 216.59 
L 696.1868 132.89 
L 598.9868 132.89 
L 598.9868 216.59 
" style="fill:none;stroke:#000000;stroke-linecap:round;stroke-width:1.5;"/>
   </g>
   <g id="line2d_27">
    <path clip-path="url(#p3f42121cce)" d="M 598.9868 199.85 
L 582.7868 199.85 
" style="fill:none;stroke:#000000;stroke-linecap:round;stroke-width:1.5;"/>
   </g>
   <g id="line2d_28">
    <path clip-path="url(#p3f42121cce)" d="M 598.9868 174.74 
L 582.7868 174.74 
" style="fill:none;stroke:#000000;stroke-linecap:round;stroke-width:1.5;"/>
   </g>
   <g id="line2d_29">
    <path clip-path="url(#p3f42121cce)" d="M 598.9868 149.63 
L 582.7868 149.63 
" style="fill:none;stroke:#000000;stroke-linecap:round;stroke-width:1.5;"/>
   </g>
   <g id="line2d_30">
    <path clip-path="url(#p3f42121cce)" d="M 696.1868 191.48 
L 712.3868 191.48 
" style="fill:none;stroke:#000000;stroke-linecap:round;stroke-width:1.5;"/>
   </g>
   <g id="line2d_31">
    <path clip-path="url(#p3f42121cce)" d="M 696.1868 158 
L 712.3868 158 
" style="fill:none;stroke:#000000;stroke-linecap:round;stroke-width:1.5;"/>
   </g>
   <g id="line2d_32">
    <path clip-path="url(#p3f42121cce)" d="M 647.5868 132.89 
L 647.5868 118.94 
" style="fill:none;stroke:#000000;stroke-linecap:round;stroke-width:1.5;"/>
   </g>
   <g id="line2d_33">
    <path clip-path="url(#p3f42121cce)" d="M 96.7868 174.74 
L 72.4868 174.74 
L 48.1868 174.74 
" style="fill:none;stroke:#000000;stroke-linecap:round;stroke-width:1.5;"/>
   </g>
   <g id="line2d_34">
    <path clip-path="url(#p3f42121cce)" d="M 226.3868 158 
L 232.7048 158 
L 239.0228 158 
" style="fill:none;stroke:#000000;stroke-linecap:round;stroke-width:1.5;"/>
   </g>
   <g id="line2d_35">
    <path clip-path="url(#p3f42121cce)" d="M 96.7868 199.85 
L 96.7868 174.74 
L 96.7868 149.63 
" style="fill:none;stroke:#000000;stroke-linecap:round;stroke-width:1.5;"/>
   </g>
   <g id="line2d_36">
    <path clip-path="url(#p3f42121cce)" d="M 96.7868 149.63 
" style="fill:none;stroke:#000000;stroke-linecap:round;stroke-width:1.5;"/>
   </g>
   <g id="line2d_37">
    <path clip-path="url(#p3f42121cce)" d="M 96.7868 149.63 
L 96.7868 128.705 
L 96.7868 107.78 
" style="fill:none;stroke:#000000;stroke-linecap:round;stroke-width:1.5;"/>
   </g>
   <g id="line2d_38">
    <path clip-path="url(#p3f42121cce)" d="M 258.7868 199.85 
L 258.7868 174.74 
L 258.7868 149.63 
" style="fill:none;stroke:#000000;stroke-linecap:round;stroke-width:1.5;"/>
   </g>
   <g id="line2d_39">
    <path clip-path="url(#p3f42121cce)" d="M 258.7868 149.63 
" style="fill:none;stroke:#000000;stroke-linecap:round;stroke-width:1.5;"/>
   </g>
   <g id="line2d_40">
    <path clip-path="url(#p3f42121cce)" d="M 258.7868 149.63 
L 258.7868 128.705 
L 258.7868 107.78 
" style="fill:none;stroke:#000000;stroke-linecap:round;stroke-width:1.5;"/>
   </g>
   <g id="line2d_41">
    <path clip-path="url(#p3f42121cce)" d="M 258.7868 107.78 
" style="fill:none;stroke:#000000;stroke-linecap:round;stroke-width:1.5;"/>
   </g>
   <g id="line2d_42">
    <path clip-path="url(#p3f42121cce)" d="M 161.5868 118.94 
L 161.5868 113.4995 
L 161.5868 108.059 
" style="fill:none;stroke:#000000;stroke-linecap:round;stroke-width:1.5;"/>
   </g>
   <g id="line2d_43">
    <path clip-path="url(#p3f42121cce)" d="M 161.5868 108.059 
" style="fill:none;stroke:#000000;stroke-linecap:round;stroke-width:1.5;"/>
   </g>
   <g id="line2d_44">
    <path clip-path="url(#p3f42121cce)" d="M 258.7868 174.74 
L 249.0668 174.74 
L 239.3468 174.74 
" style="fill:none;stroke:#000000;stroke-linecap:round;stroke-width:1.5;"/>
   </g>
   <g id="line2d_45">
    <path clip-path="url(#p3f42121cce)" d="M 388.3868 158 
L 394.7048 158 
L 401.0228 158 
" style="fill:none;stroke:#000000;stroke-linecap:round;stroke-width:1.5;"/>
   </g>
   <g id="line2d_46">
    <path clip-path="url(#p3f42121cce)" d="M 239.3468 174.74 
L 239.1848 166.37 
L 239.0228 158 
" style="fill:none;stroke:#000000;stroke-linecap:round;stroke-width:1.5;"/>
   </g>
   <g id="line2d_47">
    <path clip-path="url(#p3f42121cce)" d="M 239.0228 158 
" style="fill:none;stroke:#000000;stroke-linecap:round;stroke-width:1.5;"/>
   </g>
   <g id="line2d_48">
    <path clip-path="url(#p3f42121cce)" d="M 239.0228 158 
L 239.0228 116.15 
L 239.0228 74.3 
" style="fill:none;stroke:#000000;stroke-linecap:round;stroke-width:1.5;"/>
   </g>
   <g id="line2d_49">
    <path clip-path="url(#p3f42121cce)" d="M 239.0228 74.3 
L 239.0228 58.2575 
M 247.1228 48.4925 
L 230.9228 48.4925 
M 239.0228 48.4925 
L 239.0228 32.45 
" style="fill:none;stroke:#000000;stroke-linecap:round;stroke-width:1.5;"/>
   </g>
   <g id="line2d_50">
    <path clip-path="url(#p3f42121cce)" d="M 251.1728 51.2825 
L 265.3478 44.3075 
" style="fill:none;stroke:#000000;stroke-linecap:round;stroke-width:1.5;"/>
   </g>
   <g id="line2d_51">
    <path clip-path="url(#p3f42121cce)" d="M 239.0228 32.45 
L 230.9228 32.45 
L 228.2228 39.425 
L 222.8228 25.475 
L 217.4228 39.425 
L 212.0228 25.475 
L 206.6228 39.425 
L 201.2228 25.475 
L 198.5228 32.45 
L 190.4228 32.45 
" style="fill:none;stroke:#000000;stroke-linecap:round;stroke-width:1.5;"/>
   </g>
   <g id="line2d_52">
    <path clip-path="url(#p3f42121cce)" d="M 190.4228 32.45 
L 190.4228 43.61 
L 182.3228 43.61 
L 198.5228 43.61 
M 184.7528 46.958 
L 196.0928 46.958 
M 188.8028 50.306 
L 192.0428 50.306 
" style="fill:none;stroke:#000000;stroke-linecap:round;stroke-width:1.5;"/>
   </g>
   <g id="line2d_53">
    <path clip-path="url(#p3f42121cce)" d="M 323.5868 118.94 
L 323.5868 113.4995 
L 323.5868 108.059 
" style="fill:none;stroke:#000000;stroke-linecap:round;stroke-width:1.5;"/>
   </g>
   <g id="line2d_54">
    <path clip-path="url(#p3f42121cce)" d="M 323.5868 108.059 
" style="fill:none;stroke:#000000;stroke-linecap:round;stroke-width:1.5;"/>
   </g>
   <g id="line2d_55">
    <path clip-path="url(#p3f42121cce)" d="M 323.5868 96.899 
L 329.6618 96.899 
" style="fill:none;stroke:#000000;stroke-linecap:round;stroke-width:1.5;"/>
   </g>
   <g id="line2d_56">
    <path clip-path="url(#p3f42121cce)" d="M 323.5868 108.059 
L 323.5868 96.899 
" style="fill:none;stroke:#000000;stroke-linecap:round;stroke-width:1.5;"/>
   </g>
   <g id="line2d_57">
    <path clip-path="url(#p3f42121cce)" d="M 323.5868 96.899 
L 317.5118 96.899 
" style="fill:none;stroke:#000000;stroke-linecap:round;stroke-width:1.5;"/>
   </g>
   <g id="line2d_58">
    <path clip-path="url(#p3f42121cce)" d="M 420.7868 199.85 
L 420.7868 174.74 
L 420.7868 149.63 
" style="fill:none;stroke:#000000;stroke-linecap:round;stroke-width:1.5;"/>
   </g>
   <g id="line2d_59">
    <path clip-path="url(#p3f42121cce)" d="M 420.7868 149.63 
" style="fill:none;stroke:#000000;stroke-linecap:round;stroke-width:1.5;"/>
   </g>
   <g id="line2d_60">
    <path clip-path="url(#p3f42121cce)" d="M 420.7868 149.63 
L 420.7868 128.705 
L 420.7868 107.78 
" style="fill:none;stroke:#000000;stroke-linecap:round;stroke-width:1.5;"/>
   </g>
   <g id="line2d_61">
    <path clip-path="url(#p3f42121cce)" d="M 420.7868 107.78 
" style="fill:none;stroke:#000000;stroke-linecap:round;stroke-width:1.5;"/>
   </g>
   <g id="line2d_62">
    <path clip-path="url(#p3f42121cce)" d="M 420.7868 174.74 
L 411.0668 174.74 
L 401.3468 174.74 
" style="fill:none;stroke:#000000;stroke-linecap:round;stroke-width:1.5;"/>
   </g>
   <g id="line2d_63">
    <path clip-path="url(#p3f42121cce)" d="M 550.3868 158 
L 556.7048 158 
L 563.0228 158 
" style="fill:none;stroke:#000000;stroke-linecap:round;stroke-width:1.5;"/>
   </g>
   <g id="line2d_64">
    <path clip-path="url(#p3f42121cce)" d="M 401.3468 174.74 
L 401.1848 166.37 
L 401.0228 158 
" style="fill:none;stroke:#000000;stroke-linecap:round;stroke-width:1.5;"/>
   </g>
   <g id="line2d_65">
    <path clip-path="url(#p3f42121cce)" d="M 401.0228 158 
" style="fill:none;stroke:#000000;stroke-linecap:round;stroke-width:1.5;"/>
   </g>
   <g id="line2d_66">
    <path clip-path="url(#p3f42121cce)" d="M 401.0228 158 
L 401.0228 116.15 
L 401.0228 74.3 
" style="fill:none;stroke:#000000;stroke-linecap:round;stroke-width:1.5;"/>
   </g>
   <g id="line2d_67">
    <path clip-path="url(#p3f42121cce)" d="M 401.0228 74.3 
L 401.0228 58.2575 
M 392.9228 48.4925 
L 409.1228 48.4925 
M 401.0228 48.4925 
L 401.0228 32.45 
" style="fill:none;stroke:#000000;stroke-linecap:round;stroke-width:1.5;"/>
   </g>
   <g id="line2d_68">
    <path clip-path="url(#p3f42121cce)" d="M 388.8728 51.2825 
L 374.6978 44.3075 
" style="fill:none;stroke:#000000;stroke-linecap:round;stroke-width:1.5;"/>
   </g>
   <g id="line2d_69">
    <path clip-path="url(#p3f42121cce)" d="M 401.0228 32.45 
L 409.1228 32.45 
L 411.8228 25.475 
L 417.2228 39.425 
L 422.6228 25.475 
L 428.0228 39.425 
L 433.4228 25.475 
L 438.8228 39.425 
L 441.5228 32.45 
L 449.6228 32.45 
" style="fill:none;stroke:#000000;stroke-linecap:round;stroke-width:1.5;"/>
   </g>
   <g id="line2d_70">
    <path clip-path="url(#p3f42121cce)" d="M 449.6228 32.45 
L 449.6228 43.61 
L 441.5228 43.61 
L 457.7228 43.61 
M 443.9528 46.958 
L 455.2928 46.958 
M 448.0028 50.306 
L 451.2428 50.306 
" style="fill:none;stroke:#000000;stroke-linecap:round;stroke-width:1.5;"/>
   </g>
   <g id="line2d_71">
    <path clip-path="url(#p3f42121cce)" d="M 485.5868 118.94 
L 485.5868 113.4995 
L 485.5868 108.059 
" style="fill:none;stroke:#000000;stroke-linecap:round;stroke-width:1.5;"/>
   </g>
   <g id="line2d_72">
    <path clip-path="url(#p3f42121cce)" d="M 485.5868 108.059 
" style="fill:none;stroke:#000000;stroke-linecap:round;stroke-width:1.5;"/>
   </g>
   <g id="line2d_73">
    <path clip-path="url(#p3f42121cce)" d="M 582.7868 199.85 
L 582.7868 174.74 
L 582.7868 149.63 
" style="fill:none;stroke:#000000;stroke-linecap:round;stroke-width:1.5;"/>
   </g>
   <g id="line2d_74">
    <path clip-path="url(#p3f42121cce)" d="M 582.7868 149.63 
" style="fill:none;stroke:#000000;stroke-linecap:round;stroke-width:1.5;"/>
   </g>
   <g id="line2d_75">
    <path clip-path="url(#p3f42121cce)" d="M 582.7868 149.63 
L 582.7868 128.705 
L 582.7868 107.78 
" style="fill:none;stroke:#000000;stroke-linecap:round;stroke-width:1.5;"/>
   </g>
   <g id="line2d_76">
    <path clip-path="url(#p3f42121cce)" d="M 582.7868 107.78 
" style="fill:none;stroke:#000000;stroke-linecap:round;stroke-width:1.5;"/>
   </g>
   <g id="line2d_77">
    <path clip-path="url(#p3f42121cce)" d="M 582.7868 174.74 
L 573.0668 174.74 
L 563.3468 174.74 
" style="fill:none;stroke:#000000;stroke-linecap:round;stroke-width:1.5;"/>
   </g>
   <g id="line2d_78">
    <path clip-path="url(#p3f42121cce)" d="M 712.3868 158 
L 718.7048 158 
L 725.0228 158 
" style="fill:none;stroke:#000000;stroke-linecap:round;stroke-width:1.5;"/>
   </g>
   <g id="line2d_79">
    <path clip-path="url(#p3f42121cce)" d="M 725.0228 158 
L 725.0228 116.15 
L 725.0228 74.3 
" style="fill:none;stroke:#000000;stroke-linecap:round;stroke-width:1.5;"/>
   </g>
   <g id="line2d_80">
    <path clip-path="url(#p3f42121cce)" d="M 725.0228 74.3 
L 725.0228 58.2575 
M 716.9228 48.4925 
L 733.1228 48.4925 
M 725.0228 48.4925 
L 725.0228 32.45 
" style="fill:none;stroke:#000000;stroke-linecap:round;stroke-width:1.5;"/>
   </g>
   <g id="line2d_81">
    <path clip-path="url(#p3f42121cce)" d="M 712.8728 51.2825 
L 698.6978 44.3075 
" style="fill:none;stroke:#000000;stroke-linecap:round;stroke-width:1.5;"/>
   </g>
   <g id="line2d_82">
    <path clip-path="url(#p3f42121cce)" d="M 725.0228 32.45 
L 716.9228 32.45 
L 714.2228 39.425 
L 708.8228 25.475 
L 703.4228 39.425 
L 698.0228 25.475 
L 692.6228 39.425 
L 687.2228 25.475 
L 684.5228 32.45 
L 676.4228 32.45 
" style="fill:none;stroke:#000000;stroke-linecap:round;stroke-width:1.5;"/>
   </g>
   <g id="line2d_83">
    <path clip-path="url(#p3f42121cce)" d="M 676.4228 32.45 
L 676.4228 43.61 
L 668.3228 43.61 
L 684.5228 43.61 
M 670.7528 46.958 
L 682.0928 46.958 
M 674.8028 50.306 
L 678.0428 50.306 
" style="fill:none;stroke:#000000;stroke-linecap:round;stroke-width:1.5;"/>
   </g>
   <g id="line2d_84">
    <path clip-path="url(#p3f42121cce)" d="M 563.3468 174.74 
L 563.1848 166.37 
L 563.0228 158 
" style="fill:none;stroke:#000000;stroke-linecap:round;stroke-width:1.5;"/>
   </g>
   <g id="line2d_85">
    <path clip-path="url(#p3f42121cce)" d="M 563.0228 158 
" style="fill:none;stroke:#000000;stroke-linecap:round;stroke-width:1.5;"/>
   </g>
   <g id="line2d_86">
    <path clip-path="url(#p3f42121cce)" d="M 563.0228 158 
L 563.0228 116.15 
L 563.0228 74.3 
" style="fill:none;stroke:#000000;stroke-linecap:round;stroke-width:1.5;"/>
   </g>
   <g id="line2d_87">
    <path clip-path="url(#p3f42121cce)" d="M 563.0228 74.3 
L 563.0228 58.2575 
M 554.9228 48.4925 
L 571.1228 48.4925 
M 563.0228 48.4925 
L 563.0228 32.45 
" style="fill:none;stroke:#000000;stroke-linecap:round;stroke-width:1.5;"/>
   </g>
   <g id="line2d_88">
    <path clip-path="url(#p3f42121cce)" d="M 550.8728 51.2825 
L 536.6978 44.3075 
" style="fill:none;stroke:#000000;stroke-linecap:round;stroke-width:1.5;"/>
   </g>
   <g id="line2d_89">
    <path clip-path="url(#p3f42121cce)" d="M 563.0228 32.45 
L 571.1228 32.45 
L 573.8228 25.475 
L 579.2228 39.425 
L 584.6228 25.475 
L 590.0228 39.425 
L 595.4228 25.475 
L 600.8228 39.425 
L 603.5228 32.45 
L 611.6228 32.45 
" style="fill:none;stroke:#000000;stroke-linecap:round;stroke-width:1.5;"/>
   </g>
   <g id="line2d_90">
    <path clip-path="url(#p3f42121cce)" d="M 611.6228 32.45 
L 611.6228 43.61 
L 603.5228 43.61 
L 619.7228 43.61 
M 605.9528 46.958 
L 617.2928 46.958 
M 610.0028 50.306 
L 613.2428 50.306 
" style="fill:none;stroke:#000000;stroke-linecap:round;stroke-width:1.5;"/>
   </g>
   <g id="line2d_91">
    <path clip-path="url(#p3f42121cce)" d="M 647.5868 118.94 
L 647.5868 113.4995 
L 647.5868 108.059 
" style="fill:none;stroke:#000000;stroke-linecap:round;stroke-width:1.5;"/>
   </g>
   <g id="line2d_92">
    <path clip-path="url(#p3f42121cce)" d="M 96.7868 107.78 
L 372.1868 107.9195 
L 647.5868 108.059 
" style="fill:none;stroke:#000000;stroke-linecap:round;stroke-width:1.5;"/>
   </g>
   <g id="line2d_93">
    <path clip-path="url(#p3f42121cce)" d="M 161.5868 230.54 
L 404.5868 230.54 
L 647.5868 230.54 
" style="fill:none;stroke:#000000;stroke-linecap:round;stroke-width:1.5;"/>
   </g>
   <g id="line2d_94">
    <path clip-path="url(#p3f42121cce)" d="M 161.5868 230.54 
L 105.6968 230.54 
L 49.8068 230.54 
" style="fill:none;stroke:#000000;stroke-linecap:round;stroke-width:1.5;"/>
   </g>
   <g id="patch_10">
    <path clip-path="url(#p3f42121cce)" d="M 96.7868 151.7225 
C 97.431244 151.7225 98.049379 151.502021 98.505069 151.109621 
C 98.96076 150.717221 99.2168 150.184937 99.2168 149.63 
C 99.2168 149.075063 98.96076 148.542779 98.505069 148.150379 
C 98.049379 147.757979 97.431244 147.5375 96.7868 147.5375 
C 96.142356 147.5375 95.524221 147.757979 95.068531 148.150379 
C 94.61284 148.542779 94.3568 149.075063 94.3568 149.63 
C 94.3568 150.184937 94.61284 150.717221 95.068531 151.109621 
C 95.524221 151.502021 96.142356 151.7225 96.7868 151.7225 
z
" style="stroke:#000000;stroke-linejoin:miter;stroke-width:1.5;"/>
   </g>
   <g id="patch_11">
    <path clip-path="url(#p3f42121cce)" d="M 258.7868 151.7225 
C 259.431244 151.7225 260.049379 151.502021 260.505069 151.109621 
C 260.96076 150.717221 261.2168 150.184937 261.2168 149.63 
C 261.2168 149.075063 260.96076 148.542779 260.505069 148.150379 
C 260.049379 147.757979 259.431244 147.5375 258.7868 147.5375 
C 258.142356 147.5375 257.524221 147.757979 257.068531 148.150379 
C 256.61284 148.542779 256.3568 149.075063 256.3568 149.63 
C 256.3568 150.184937 256.61284 150.717221 257.068531 151.109621 
C 257.524221 151.502021 258.142356 151.7225 258.7868 151.7225 
z
" style="stroke:#000000;stroke-linejoin:miter;stroke-width:1.5;"/>
   </g>
   <g id="patch_12">
    <path clip-path="url(#p3f42121cce)" d="M 258.7868 109.8725 
C 259.431244 109.8725 260.049379 109.652021 260.505069 109.259621 
C 260.96076 108.867221 261.2168 108.334937 261.2168 107.78 
C 261.2168 107.225063 260.96076 106.692779 260.505069 106.300379 
C 260.049379 105.907979 259.431244 105.6875 258.7868 105.6875 
C 258.142356 105.6875 257.524221 105.907979 257.068531 106.300379 
C 256.61284 106.692779 256.3568 107.225063 256.3568 107.78 
C 256.3568 108.334937 256.61284 108.867221 257.068531 109.259621 
C 257.524221 109.652021 258.142356 109.8725 258.7868 109.8725 
z
" style="stroke:#000000;stroke-linejoin:miter;stroke-width:1.5;"/>
   </g>
   <g id="patch_13">
    <path clip-path="url(#p3f42121cce)" d="M 161.5868 110.1515 
C 162.231244 110.1515 162.849379 109.931021 163.305069 109.538621 
C 163.76076 109.146221 164.0168 108.613937 164.0168 108.059 
C 164.0168 107.504063 163.76076 106.971779 163.305069 106.579379 
C 162.849379 106.186979 162.231244 105.9665 161.5868 105.9665 
C 160.942356 105.9665 160.324221 106.186979 159.868531 106.579379 
C 159.41284 106.971779 159.1568 107.504063 159.1568 108.059 
C 159.1568 108.613937 159.41284 109.146221 159.868531 109.538621 
C 160.324221 109.931021 160.942356 110.1515 161.5868 110.1515 
z
" style="stroke:#000000;stroke-linejoin:miter;stroke-width:1.5;"/>
   </g>
   <g id="patch_14">
    <path clip-path="url(#p3f42121cce)" d="M 239.0228 160.0925 
C 239.667244 160.0925 240.285379 159.872021 240.741069 159.479621 
C 241.19676 159.087221 241.4528 158.554937 241.4528 158 
C 241.4528 157.445063 241.19676 156.912779 240.741069 156.520379 
C 240.285379 156.127979 239.667244 155.9075 239.0228 155.9075 
C 238.378356 155.9075 237.760221 156.127979 237.304531 156.520379 
C 236.84884 156.912779 236.5928 157.445063 236.5928 158 
C 236.5928 158.554937 236.84884 159.087221 237.304531 159.479621 
C 237.760221 159.872021 238.378356 160.0925 239.0228 160.0925 
z
" style="stroke:#000000;stroke-linejoin:miter;stroke-width:1.5;"/>
   </g>
   <g id="patch_15">
    <path clip-path="url(#p3f42121cce)" d="M 247.1228 58.2575 
L 239.0228 48.4925 
L 230.9228 58.2575 
z
" style="fill:none;stroke:#000000;stroke-linejoin:miter;stroke-width:1.5;"/>
   </g>
   <g id="patch_16">
    <path clip-path="url(#p3f42121cce)" d="M 323.5868 110.1515 
C 324.231244 110.1515 324.849379 109.931021 325.305069 109.538621 
C 325.76076 109.146221 326.0168 108.613937 326.0168 108.059 
C 326.0168 107.504063 325.76076 106.971779 325.305069 106.579379 
C 324.849379 106.186979 324.231244 105.9665 323.5868 105.9665 
C 322.942356 105.9665 322.324221 106.186979 321.868531 106.579379 
C 321.41284 106.971779 321.1568 107.504063 321.1568 108.059 
C 321.1568 108.613937 321.41284 109.146221 321.868531 109.538621 
C 322.324221 109.931021 322.942356 110.1515 323.5868 110.1515 
z
" style="stroke:#000000;stroke-linejoin:miter;stroke-width:1.5;"/>
   </g>
   <g id="patch_17">
    <path clip-path="url(#p3f42121cce)" d="M 420.7868 151.7225 
C 421.431244 151.7225 422.049379 151.502021 422.505069 151.109621 
C 422.96076 150.717221 423.2168 150.184937 423.2168 149.63 
C 423.2168 149.075063 422.96076 148.542779 422.505069 148.150379 
C 422.049379 147.757979 421.431244 147.5375 420.7868 147.5375 
C 420.142356 147.5375 419.524221 147.757979 419.068531 148.150379 
C 418.61284 148.542779 418.3568 149.075063 418.3568 149.63 
C 418.3568 150.184937 418.61284 150.717221 419.068531 151.109621 
C 419.524221 151.502021 420.142356 151.7225 420.7868 151.7225 
z
" style="stroke:#000000;stroke-linejoin:miter;stroke-width:1.5;"/>
   </g>
   <g id="patch_18">
    <path clip-path="url(#p3f42121cce)" d="M 420.7868 109.8725 
C 421.431244 109.8725 422.049379 109.652021 422.505069 109.259621 
C 422.96076 108.867221 423.2168 108.334937 423.2168 107.78 
C 423.2168 107.225063 422.96076 106.692779 422.505069 106.300379 
C 422.049379 105.907979 421.431244 105.6875 420.7868 105.6875 
C 420.142356 105.6875 419.524221 105.907979 419.068531 106.300379 
C 418.61284 106.692779 418.3568 107.225063 418.3568 107.78 
C 418.3568 108.334937 418.61284 108.867221 419.068531 109.259621 
C 419.524221 109.652021 420.142356 109.8725 420.7868 109.8725 
z
" style="stroke:#000000;stroke-linejoin:miter;stroke-width:1.5;"/>
   </g>
   <g id="patch_19">
    <path clip-path="url(#p3f42121cce)" d="M 401.0228 160.0925 
C 401.667244 160.0925 402.285379 159.872021 402.741069 159.479621 
C 403.19676 159.087221 403.4528 158.554937 403.4528 158 
C 403.4528 157.445063 403.19676 156.912779 402.741069 156.520379 
C 402.285379 156.127979 401.667244 155.9075 401.0228 155.9075 
C 400.378356 155.9075 399.760221 156.127979 399.304531 156.520379 
C 398.84884 156.912779 398.5928 157.445063 398.5928 158 
C 398.5928 158.554937 398.84884 159.087221 399.304531 159.479621 
C 399.760221 159.872021 400.378356 160.0925 401.0228 160.0925 
z
" style="stroke:#000000;stroke-linejoin:miter;stroke-width:1.5;"/>
   </g>
   <g id="patch_20">
    <path clip-path="url(#p3f42121cce)" d="M 392.9228 58.2575 
L 401.0228 48.4925 
L 409.1228 58.2575 
z
" style="fill:none;stroke:#000000;stroke-linejoin:miter;stroke-width:1.5;"/>
   </g>
   <g id="patch_21">
    <path clip-path="url(#p3f42121cce)" d="M 485.5868 110.1515 
C 486.231244 110.1515 486.849379 109.931021 487.305069 109.538621 
C 487.76076 109.146221 488.0168 108.613937 488.0168 108.059 
C 488.0168 107.504063 487.76076 106.971779 487.305069 106.579379 
C 486.849379 106.186979 486.231244 105.9665 485.5868 105.9665 
C 484.942356 105.9665 484.324221 106.186979 483.868531 106.579379 
C 483.41284 106.971779 483.1568 107.504063 483.1568 108.059 
C 483.1568 108.613937 483.41284 109.146221 483.868531 109.538621 
C 484.324221 109.931021 484.942356 110.1515 485.5868 110.1515 
z
" style="stroke:#000000;stroke-linejoin:miter;stroke-width:1.5;"/>
   </g>
   <g id="patch_22">
    <path clip-path="url(#p3f42121cce)" d="M 582.7868 151.7225 
C 583.431244 151.7225 584.049379 151.502021 584.505069 151.109621 
C 584.96076 150.717221 585.2168 150.184937 585.2168 149.63 
C 585.2168 149.075063 584.96076 148.542779 584.505069 148.150379 
C 584.049379 147.757979 583.431244 147.5375 582.7868 147.5375 
C 582.142356 147.5375 581.524221 147.757979 581.068531 148.150379 
C 580.61284 148.542779 580.3568 149.075063 580.3568 149.63 
C 580.3568 150.184937 580.61284 150.717221 581.068531 151.109621 
C 581.524221 151.502021 582.142356 151.7225 582.7868 151.7225 
z
" style="stroke:#000000;stroke-linejoin:miter;stroke-width:1.5;"/>
   </g>
   <g id="patch_23">
    <path clip-path="url(#p3f42121cce)" d="M 582.7868 109.8725 
C 583.431244 109.8725 584.049379 109.652021 584.505069 109.259621 
C 584.96076 108.867221 585.2168 108.334937 585.2168 107.78 
C 585.2168 107.225063 584.96076 106.692779 584.505069 106.300379 
C 584.049379 105.907979 583.431244 105.6875 582.7868 105.6875 
C 582.142356 105.6875 581.524221 105.907979 581.068531 106.300379 
C 580.61284 106.692779 580.3568 107.225063 580.3568 107.78 
C 580.3568 108.334937 580.61284 108.867221 581.068531 109.259621 
C 581.524221 109.652021 582.142356 109.8725 582.7868 109.8725 
z
" style="stroke:#000000;stroke-linejoin:miter;stroke-width:1.5;"/>
   </g>
   <g id="patch_24">
    <path clip-path="url(#p3f42121cce)" d="M 716.9228 58.2575 
L 725.0228 48.4925 
L 733.1228 58.2575 
z
" style="fill:none;stroke:#000000;stroke-linejoin:miter;stroke-width:1.5;"/>
   </g>
   <g id="patch_25">
    <path clip-path="url(#p3f42121cce)" d="M 563.0228 160.0925 
C 563.667244 160.0925 564.285379 159.872021 564.741069 159.479621 
C 565.19676 159.087221 565.4528 158.554937 565.4528 158 
C 565.4528 157.445063 565.19676 156.912779 564.741069 156.520379 
C 564.285379 156.127979 563.667244 155.9075 563.0228 155.9075 
C 562.378356 155.9075 561.760221 156.127979 561.304531 156.520379 
C 560.84884 156.912779 560.5928 157.445063 560.5928 158 
C 560.5928 158.554937 560.84884 159.087221 561.304531 159.479621 
C 561.760221 159.872021 562.378356 160.0925 563.0228 160.0925 
z
" style="stroke:#000000;stroke-linejoin:miter;stroke-width:1.5;"/>
   </g>
   <g id="patch_26">
    <path clip-path="url(#p3f42121cce)" d="M 554.9228 58.2575 
L 563.0228 48.4925 
L 571.1228 58.2575 
z
" style="fill:none;stroke:#000000;stroke-linejoin:miter;stroke-width:1.5;"/>
   </g>
   <g id="text_1">
    <!-- K -->
    <defs>
     <path d="M 9.8125 72.90625 
L 19.671875 72.90625 
L 19.671875 42.09375 
L 52.390625 72.90625 
L 65.09375 72.90625 
L 28.90625 38.921875 
L 67.671875 0 
L 54.6875 0 
L 19.671875 35.109375 
L 19.671875 0 
L 9.8125 0 
z
" id="DejaVuSans-4b"/>
    </defs>
    <g transform="translate(117.8468 203.16125)scale(0.12 -0.12)">
     <use xlink:href="#DejaVuSans-4b"/>
    </g>
   </g>
   <g id="text_2">
    <!-- 2 -->
    <defs>
     <path d="M 19.1875 8.296875 
L 53.609375 8.296875 
L 53.609375 0 
L 7.328125 0 
L 7.328125 8.296875 
Q 12.9375 14.109375 22.625 23.890625 
Q 32.328125 33.6875 34.8125 36.53125 
Q 39.546875 41.84375 41.421875 45.53125 
Q 43.3125 49.21875 43.3125 52.78125 
Q 43.3125 58.59375 39.234375 62.25 
Q 35.15625 65.921875 28.609375 65.921875 
Q 23.96875 65.921875 18.8125 64.3125 
Q 13.671875 62.703125 7.8125 59.421875 
L 7.8125 69.390625 
Q 13.765625 71.78125 18.9375 73 
Q 24.125 74.21875 28.421875 74.21875 
Q 39.75 74.21875 46.484375 68.546875 
Q 53.21875 62.890625 53.21875 53.421875 
Q 53.21875 48.921875 51.53125 44.890625 
Q 49.859375 40.875 45.40625 35.40625 
Q 44.1875 33.984375 37.640625 27.21875 
Q 31.109375 20.453125 19.1875 8.296875 
" id="DejaVuSans-32"/>
    </defs>
    <g transform="translate(102.1118 197.354375)scale(0.12 -0.12)">
     <use xlink:href="#DejaVuSans-32"/>
    </g>
   </g>
   <g id="text_3">
    <!-- CLK -->
    <defs>
     <path d="M 64.40625 67.28125 
L 64.40625 56.890625 
Q 59.421875 61.53125 53.78125 63.8125 
Q 48.140625 66.109375 41.796875 66.109375 
Q 29.296875 66.109375 22.65625 58.46875 
Q 16.015625 50.828125 16.015625 36.375 
Q 16.015625 21.96875 22.65625 14.328125 
Q 29.296875 6.6875 41.796875 6.6875 
Q 48.140625 6.6875 53.78125 8.984375 
Q 59.421875 11.28125 64.40625 15.921875 
L 64.40625 5.609375 
Q 59.234375 2.09375 53.4375 0.328125 
Q 47.65625 -1.421875 41.21875 -1.421875 
Q 24.65625 -1.421875 15.125 8.703125 
Q 5.609375 18.84375 5.609375 36.375 
Q 5.609375 53.953125 15.125 64.078125 
Q 24.65625 74.21875 41.21875 74.21875 
Q 47.75 74.21875 53.53125 72.484375 
Q 59.328125 70.75 64.40625 67.28125 
" id="DejaVuSans-43"/>
     <path d="M 9.8125 72.90625 
L 19.671875 72.90625 
L 19.671875 8.296875 
L 55.171875 8.296875 
L 55.171875 0 
L 9.8125 0 
z
" id="DejaVuSans-4c"/>
    </defs>
    <g transform="translate(117.8468 178.05125)scale(0.12 -0.12)">
     <use xlink:href="#DejaVuSans-43"/>
     <use x="69.824219" xlink:href="#DejaVuSans-4c"/>
     <use x="125.537109" xlink:href="#DejaVuSans-4b"/>
    </g>
   </g>
   <g id="text_4">
    <!-- 1 -->
    <defs>
     <path d="M 12.40625 8.296875 
L 28.515625 8.296875 
L 28.515625 63.921875 
L 10.984375 60.40625 
L 10.984375 69.390625 
L 28.421875 72.90625 
L 38.28125 72.90625 
L 38.28125 8.296875 
L 54.390625 8.296875 
L 54.390625 0 
L 12.40625 0 
z
" id="DejaVuSans-31"/>
    </defs>
    <g transform="translate(102.1118 172.244375)scale(0.12 -0.12)">
     <use xlink:href="#DejaVuSans-31"/>
    </g>
   </g>
   <g id="text_5">
    <!-- J -->
    <defs>
     <path d="M 9.8125 72.90625 
L 19.671875 72.90625 
L 19.671875 5.078125 
Q 19.671875 -8.109375 14.671875 -14.0625 
Q 9.671875 -20.015625 -1.421875 -20.015625 
L -5.171875 -20.015625 
L -5.171875 -11.71875 
L -2.09375 -11.71875 
Q 4.4375 -11.71875 7.125 -8.046875 
Q 9.8125 -4.390625 9.8125 5.078125 
z
" id="DejaVuSans-4a"/>
    </defs>
    <g transform="translate(117.8468 152.94125)scale(0.12 -0.12)">
     <use xlink:href="#DejaVuSans-4a"/>
    </g>
   </g>
   <g id="text_6">
    <!-- 3 -->
    <defs>
     <path d="M 40.578125 39.3125 
Q 47.65625 37.796875 51.625 33 
Q 55.609375 28.21875 55.609375 21.1875 
Q 55.609375 10.40625 48.1875 4.484375 
Q 40.765625 -1.421875 27.09375 -1.421875 
Q 22.515625 -1.421875 17.65625 -0.515625 
Q 12.796875 0.390625 7.625 2.203125 
L 7.625 11.71875 
Q 11.71875 9.328125 16.59375 8.109375 
Q 21.484375 6.890625 26.8125 6.890625 
Q 36.078125 6.890625 40.9375 10.546875 
Q 45.796875 14.203125 45.796875 21.1875 
Q 45.796875 27.640625 41.28125 31.265625 
Q 36.765625 34.90625 28.71875 34.90625 
L 20.21875 34.90625 
L 20.21875 43.015625 
L 29.109375 43.015625 
Q 36.375 43.015625 40.234375 45.921875 
Q 44.09375 48.828125 44.09375 54.296875 
Q 44.09375 59.90625 40.109375 62.90625 
Q 36.140625 65.921875 28.71875 65.921875 
Q 24.65625 65.921875 20.015625 65.03125 
Q 15.375 64.15625 9.8125 62.3125 
L 9.8125 71.09375 
Q 15.4375 72.65625 20.34375 73.4375 
Q 25.25 74.21875 29.59375 74.21875 
Q 40.828125 74.21875 47.359375 69.109375 
Q 53.90625 64.015625 53.90625 55.328125 
Q 53.90625 49.265625 50.4375 45.09375 
Q 46.96875 40.921875 40.578125 39.3125 
" id="DejaVuSans-33"/>
    </defs>
    <g transform="translate(102.1118 147.134375)scale(0.12 -0.12)">
     <use xlink:href="#DejaVuSans-33"/>
    </g>
   </g>
   <g id="text_7">
    <!-- $\overline{Q}$ -->
    <defs>
     <path d="M 39.40625 66.21875 
Q 28.65625 66.21875 22.328125 58.203125 
Q 16.015625 50.203125 16.015625 36.375 
Q 16.015625 22.609375 22.328125 14.59375 
Q 28.65625 6.59375 39.40625 6.59375 
Q 50.140625 6.59375 56.421875 14.59375 
Q 62.703125 22.609375 62.703125 36.375 
Q 62.703125 50.203125 56.421875 58.203125 
Q 50.140625 66.21875 39.40625 66.21875 
M 53.21875 1.3125 
L 66.21875 -12.890625 
L 54.296875 -12.890625 
L 43.5 -1.21875 
Q 41.890625 -1.3125 41.03125 -1.359375 
Q 40.1875 -1.421875 39.40625 -1.421875 
Q 24.03125 -1.421875 14.8125 8.859375 
Q 5.609375 19.140625 5.609375 36.375 
Q 5.609375 53.65625 14.8125 63.9375 
Q 24.03125 74.21875 39.40625 74.21875 
Q 54.734375 74.21875 63.90625 63.9375 
Q 73.09375 53.65625 73.09375 36.375 
Q 73.09375 23.6875 67.984375 14.640625 
Q 62.890625 5.609375 53.21875 1.3125 
" id="DejaVuSans-51"/>
    </defs>
    <g transform="translate(195.8468 195.704375)scale(0.12 -0.12)">
     <use transform="translate(0 0.53125)" xlink:href="#DejaVuSans-51"/>
     <path d="M 0 86.5 
L 0 92.75 
L 78.710938 92.75 
L 78.710938 86.5 
L 0 86.5 
z
"/>
    </g>
   </g>
   <g id="text_8">
    <!-- Q -->
    <g transform="translate(195.88055 161.31125)scale(0.12 -0.12)">
     <use xlink:href="#DejaVuSans-51"/>
    </g>
   </g>
   <g id="text_9">
    <!-- Vcc -->
    <defs>
     <path d="M 28.609375 0 
L 0.78125 72.90625 
L 11.078125 72.90625 
L 34.1875 11.53125 
L 57.328125 72.90625 
L 67.578125 72.90625 
L 39.796875 0 
z
" id="DejaVuSans-56"/>
     <path d="M 48.78125 52.59375 
L 48.78125 44.1875 
Q 44.96875 46.296875 41.140625 47.34375 
Q 37.3125 48.390625 33.40625 48.390625 
Q 24.65625 48.390625 19.8125 42.84375 
Q 14.984375 37.3125 14.984375 27.296875 
Q 14.984375 17.28125 19.8125 11.734375 
Q 24.65625 6.203125 33.40625 6.203125 
Q 37.3125 6.203125 41.140625 7.25 
Q 44.96875 8.296875 48.78125 10.40625 
L 48.78125 2.09375 
Q 45.015625 0.34375 40.984375 -0.53125 
Q 36.96875 -1.421875 32.421875 -1.421875 
Q 20.0625 -1.421875 12.78125 6.34375 
Q 5.515625 14.109375 5.515625 27.296875 
Q 5.515625 40.671875 12.859375 48.328125 
Q 20.21875 56 33.015625 56 
Q 37.15625 56 41.109375 55.140625 
Q 45.0625 54.296875 48.78125 52.59375 
" id="DejaVuSans-63"/>
    </defs>
    <g transform="translate(150.8843 146.193125)scale(0.12 -0.12)">
     <use xlink:href="#DejaVuSans-56"/>
     <use x="68.408203" xlink:href="#DejaVuSans-63"/>
     <use x="123.388672" xlink:href="#DejaVuSans-63"/>
    </g>
   </g>
   <g id="text_10">
    <!-- 4 -->
    <defs>
     <path d="M 37.796875 64.3125 
L 12.890625 25.390625 
L 37.796875 25.390625 
z
M 35.203125 72.90625 
L 47.609375 72.90625 
L 47.609375 25.390625 
L 58.015625 25.390625 
L 58.015625 17.1875 
L 47.609375 17.1875 
L 47.609375 0 
L 37.796875 0 
L 37.796875 17.1875 
L 4.890625 17.1875 
L 4.890625 26.703125 
z
" id="DejaVuSans-34"/>
    </defs>
    <g transform="translate(164.8268 130.394375)scale(0.12 -0.12)">
     <use xlink:href="#DejaVuSans-34"/>
    </g>
   </g>
   <g id="text_11">
    <!-- CLR -->
    <defs>
     <path d="M 44.390625 34.1875 
Q 47.5625 33.109375 50.5625 29.59375 
Q 53.5625 26.078125 56.59375 19.921875 
L 66.609375 0 
L 56 0 
L 46.6875 18.703125 
Q 43.0625 26.03125 39.671875 28.421875 
Q 36.28125 30.8125 30.421875 30.8125 
L 19.671875 30.8125 
L 19.671875 0 
L 9.8125 0 
L 9.8125 72.90625 
L 32.078125 72.90625 
Q 44.578125 72.90625 50.734375 67.671875 
Q 56.890625 62.453125 56.890625 51.90625 
Q 56.890625 45.015625 53.6875 40.46875 
Q 50.484375 35.9375 44.390625 34.1875 
M 19.671875 64.796875 
L 19.671875 38.921875 
L 32.078125 38.921875 
Q 39.203125 38.921875 42.84375 42.21875 
Q 46.484375 45.515625 46.484375 51.90625 
Q 46.484375 58.296875 42.84375 61.546875 
Q 39.203125 64.796875 32.078125 64.796875 
z
" id="DejaVuSans-52"/>
    </defs>
    <g transform="translate(149.884925 209.909375)scale(0.12 -0.12)">
     <use xlink:href="#DejaVuSans-43"/>
     <use x="69.824219" xlink:href="#DejaVuSans-4c"/>
     <use x="125.537109" xlink:href="#DejaVuSans-52"/>
    </g>
   </g>
   <g id="text_12">
    <!-- 1 -->
    <g transform="translate(164.8268 228.498125)scale(0.12 -0.12)">
     <use xlink:href="#DejaVuSans-31"/>
    </g>
   </g>
   <g id="text_13">
    <!-- K -->
    <g transform="translate(279.8468 203.16125)scale(0.12 -0.12)">
     <use xlink:href="#DejaVuSans-4b"/>
    </g>
   </g>
   <g id="text_14">
    <!-- 2 -->
    <g transform="translate(264.1118 197.354375)scale(0.12 -0.12)">
     <use xlink:href="#DejaVuSans-32"/>
    </g>
   </g>
   <g id="text_15">
    <!-- CLK -->
    <g transform="translate(279.8468 178.05125)scale(0.12 -0.12)">
     <use xlink:href="#DejaVuSans-43"/>
     <use x="69.824219" xlink:href="#DejaVuSans-4c"/>
     <use x="125.537109" xlink:href="#DejaVuSans-4b"/>
    </g>
   </g>
   <g id="text_16">
    <!-- 1 -->
    <g transform="translate(264.1118 172.244375)scale(0.12 -0.12)">
     <use xlink:href="#DejaVuSans-31"/>
    </g>
   </g>
   <g id="text_17">
    <!-- J -->
    <g transform="translate(279.8468 152.94125)scale(0.12 -0.12)">
     <use xlink:href="#DejaVuSans-4a"/>
    </g>
   </g>
   <g id="text_18">
    <!-- 3 -->
    <g transform="translate(264.1118 147.134375)scale(0.12 -0.12)">
     <use xlink:href="#DejaVuSans-33"/>
    </g>
   </g>
   <g id="text_19">
    <!-- $\overline{Q}$ -->
    <g transform="translate(357.8468 195.704375)scale(0.12 -0.12)">
     <use transform="translate(0 0.53125)" xlink:href="#DejaVuSans-51"/>
     <path d="M 0 86.5 
L 0 92.75 
L 78.710938 92.75 
L 78.710938 86.5 
L 0 86.5 
z
"/>
    </g>
   </g>
   <g id="text_20">
    <!-- Q -->
    <g transform="translate(357.88055 161.31125)scale(0.12 -0.12)">
     <use xlink:href="#DejaVuSans-51"/>
    </g>
   </g>
   <g id="text_21">
    <!-- Vcc -->
    <g transform="translate(312.8843 146.193125)scale(0.12 -0.12)">
     <use xlink:href="#DejaVuSans-56"/>
     <use x="68.408203" xlink:href="#DejaVuSans-63"/>
     <use x="123.388672" xlink:href="#DejaVuSans-63"/>
    </g>
   </g>
   <g id="text_22">
    <!-- 4 -->
    <g transform="translate(326.8268 130.394375)scale(0.12 -0.12)">
     <use xlink:href="#DejaVuSans-34"/>
    </g>
   </g>
   <g id="text_23">
    <!-- CLR -->
    <g transform="translate(311.884925 209.909375)scale(0.12 -0.12)">
     <use xlink:href="#DejaVuSans-43"/>
     <use x="69.824219" xlink:href="#DejaVuSans-4c"/>
     <use x="125.537109" xlink:href="#DejaVuSans-52"/>
    </g>
   </g>
   <g id="text_24">
    <!-- 1 -->
    <g transform="translate(326.8268 228.498125)scale(0.12 -0.12)">
     <use xlink:href="#DejaVuSans-31"/>
    </g>
   </g>
   <g id="text_25">
    <!-- K -->
    <g transform="translate(441.8468 203.16125)scale(0.12 -0.12)">
     <use xlink:href="#DejaVuSans-4b"/>
    </g>
   </g>
   <g id="text_26">
    <!-- 2 -->
    <g transform="translate(426.1118 197.354375)scale(0.12 -0.12)">
     <use xlink:href="#DejaVuSans-32"/>
    </g>
   </g>
   <g id="text_27">
    <!-- CLK -->
    <g transform="translate(441.8468 178.05125)scale(0.12 -0.12)">
     <use xlink:href="#DejaVuSans-43"/>
     <use x="69.824219" xlink:href="#DejaVuSans-4c"/>
     <use x="125.537109" xlink:href="#DejaVuSans-4b"/>
    </g>
   </g>
   <g id="text_28">
    <!-- 1 -->
    <g transform="translate(426.1118 172.244375)scale(0.12 -0.12)">
     <use xlink:href="#DejaVuSans-31"/>
    </g>
   </g>
   <g id="text_29">
    <!-- J -->
    <g transform="translate(441.8468 152.94125)scale(0.12 -0.12)">
     <use xlink:href="#DejaVuSans-4a"/>
    </g>
   </g>
   <g id="text_30">
    <!-- 3 -->
    <g transform="translate(426.1118 147.134375)scale(0.12 -0.12)">
     <use xlink:href="#DejaVuSans-33"/>
    </g>
   </g>
   <g id="text_31">
    <!-- $\overline{Q}$ -->
    <g transform="translate(519.8468 195.704375)scale(0.12 -0.12)">
     <use transform="translate(0 0.53125)" xlink:href="#DejaVuSans-51"/>
     <path d="M 0 86.5 
L 0 92.75 
L 78.710938 92.75 
L 78.710938 86.5 
L 0 86.5 
z
"/>
    </g>
   </g>
   <g id="text_32">
    <!-- Q -->
    <g transform="translate(519.88055 161.31125)scale(0.12 -0.12)">
     <use xlink:href="#DejaVuSans-51"/>
    </g>
   </g>
   <g id="text_33">
    <!-- Vcc -->
    <g transform="translate(474.8843 146.193125)scale(0.12 -0.12)">
     <use xlink:href="#DejaVuSans-56"/>
     <use x="68.408203" xlink:href="#DejaVuSans-63"/>
     <use x="123.388672" xlink:href="#DejaVuSans-63"/>
    </g>
   </g>
   <g id="text_34">
    <!-- 4 -->
    <g transform="translate(488.8268 130.394375)scale(0.12 -0.12)">
     <use xlink:href="#DejaVuSans-34"/>
    </g>
   </g>
   <g id="text_35">
    <!-- CLR -->
    <g transform="translate(473.884925 209.909375)scale(0.12 -0.12)">
     <use xlink:href="#DejaVuSans-43"/>
     <use x="69.824219" xlink:href="#DejaVuSans-4c"/>
     <use x="125.537109" xlink:href="#DejaVuSans-52"/>
    </g>
   </g>
   <g id="text_36">
    <!-- 1 -->
    <g transform="translate(488.8268 228.498125)scale(0.12 -0.12)">
     <use xlink:href="#DejaVuSans-31"/>
    </g>
   </g>
   <g id="text_37">
    <!-- K -->
    <g transform="translate(603.8468 203.16125)scale(0.12 -0.12)">
     <use xlink:href="#DejaVuSans-4b"/>
    </g>
   </g>
   <g id="text_38">
    <!-- 2 -->
    <g transform="translate(588.1118 197.354375)scale(0.12 -0.12)">
     <use xlink:href="#DejaVuSans-32"/>
    </g>
   </g>
   <g id="text_39">
    <!-- CLK -->
    <g transform="translate(603.8468 178.05125)scale(0.12 -0.12)">
     <use xlink:href="#DejaVuSans-43"/>
     <use x="69.824219" xlink:href="#DejaVuSans-4c"/>
     <use x="125.537109" xlink:href="#DejaVuSans-4b"/>
    </g>
   </g>
   <g id="text_40">
    <!-- 1 -->
    <g transform="translate(588.1118 172.244375)scale(0.12 -0.12)">
     <use xlink:href="#DejaVuSans-31"/>
    </g>
   </g>
   <g id="text_41">
    <!-- J -->
    <g transform="translate(603.8468 152.94125)scale(0.12 -0.12)">
     <use xlink:href="#DejaVuSans-4a"/>
    </g>
   </g>
   <g id="text_42">
    <!-- 3 -->
    <g transform="translate(588.1118 147.134375)scale(0.12 -0.12)">
     <use xlink:href="#DejaVuSans-33"/>
    </g>
   </g>
   <g id="text_43">
    <!-- $\overline{Q}$ -->
    <g transform="translate(681.8468 195.704375)scale(0.12 -0.12)">
     <use transform="translate(0 0.53125)" xlink:href="#DejaVuSans-51"/>
     <path d="M 0 86.5 
L 0 92.75 
L 78.710938 92.75 
L 78.710938 86.5 
L 0 86.5 
z
"/>
    </g>
   </g>
   <g id="text_44">
    <!-- Q -->
    <g transform="translate(681.88055 161.31125)scale(0.12 -0.12)">
     <use xlink:href="#DejaVuSans-51"/>
    </g>
   </g>
   <g id="text_45">
    <!-- Vcc -->
    <g transform="translate(636.8843 146.193125)scale(0.12 -0.12)">
     <use xlink:href="#DejaVuSans-56"/>
     <use x="68.408203" xlink:href="#DejaVuSans-63"/>
     <use x="123.388672" xlink:href="#DejaVuSans-63"/>
    </g>
   </g>
   <g id="text_46">
    <!-- 4 -->
    <g transform="translate(650.8268 130.394375)scale(0.12 -0.12)">
     <use xlink:href="#DejaVuSans-34"/>
    </g>
   </g>
   <g id="text_47">
    <!-- CLR -->
    <g transform="translate(635.884925 209.909375)scale(0.12 -0.12)">
     <use xlink:href="#DejaVuSans-43"/>
     <use x="69.824219" xlink:href="#DejaVuSans-4c"/>
     <use x="125.537109" xlink:href="#DejaVuSans-52"/>
    </g>
   </g>
   <g id="text_48">
    <!-- 1 -->
    <g transform="translate(650.8268 228.498125)scale(0.12 -0.12)">
     <use xlink:href="#DejaVuSans-31"/>
    </g>
   </g>
   <g id="text_49">
    <!-- CLK -->
    <g transform="translate(14.3668 179.155)scale(0.16 -0.16)">
     <use xlink:href="#DejaVuSans-43"/>
     <use x="69.824219" xlink:href="#DejaVuSans-4c"/>
     <use x="125.537109" xlink:href="#DejaVuSans-4b"/>
    </g>
   </g>
   <g id="text_50">
    <!-- Q1 -->
    <g transform="translate(204.9078 57.79)scale(0.16 -0.16)">
     <use xlink:href="#DejaVuSans-51"/>
     <use x="78.710938" xlink:href="#DejaVuSans-31"/>
    </g>
   </g>
   <g id="text_51">
    <!-- 100 $\Omega$ -->
    <defs>
     <path d="M 31.78125 66.40625 
Q 24.171875 66.40625 20.328125 58.90625 
Q 16.5 51.421875 16.5 36.375 
Q 16.5 21.390625 20.328125 13.890625 
Q 24.171875 6.390625 31.78125 6.390625 
Q 39.453125 6.390625 43.28125 13.890625 
Q 47.125 21.390625 47.125 36.375 
Q 47.125 51.421875 43.28125 58.90625 
Q 39.453125 66.40625 31.78125 66.40625 
M 31.78125 74.21875 
Q 44.046875 74.21875 50.515625 64.515625 
Q 56.984375 54.828125 56.984375 36.375 
Q 56.984375 17.96875 50.515625 8.265625 
Q 44.046875 -1.421875 31.78125 -1.421875 
Q 19.53125 -1.421875 13.0625 8.265625 
Q 6.59375 17.96875 6.59375 36.375 
Q 6.59375 54.828125 13.0625 64.515625 
Q 19.53125 74.21875 31.78125 74.21875 
" id="DejaVuSans-30"/>
     <path id="DejaVuSans-20"/>
     <path d="M 72.609375 8.6875 
L 72.609375 0 
L 43.3125 0 
L 43.3125 8.6875 
Q 51.953125 13.421875 56.78125 21.53125 
Q 61.625 29.640625 61.625 39.5 
Q 61.625 51.21875 55.171875 58.296875 
Q 48.734375 65.375 38.1875 65.375 
Q 27.640625 65.375 21.171875 58.265625 
Q 14.703125 51.171875 14.703125 39.5 
Q 14.703125 29.640625 19.53125 21.53125 
Q 24.421875 13.421875 33.109375 8.6875 
L 33.109375 0 
L 3.8125 0 
L 3.8125 8.6875 
L 19.390625 8.6875 
Q 11.671875 15.484375 8.109375 22.75 
Q 4.59375 30.03125 4.59375 39.015625 
Q 4.59375 54.546875 13.96875 64.15625 
Q 23.296875 73.78125 38.1875 73.78125 
Q 52.984375 73.78125 62.40625 64.15625 
Q 71.78125 54.59375 71.78125 39.5 
Q 71.78125 30.03125 68.3125 22.796875 
Q 64.84375 15.578125 56.984375 8.6875 
z
" id="DejaVuSans-3a9"/>
    </defs>
    <g transform="translate(190.7228 19.3575)scale(0.16 -0.16)">
     <use transform="translate(0 0.78125)" xlink:href="#DejaVuSans-31"/>
     <use transform="translate(63.623047 0.78125)" xlink:href="#DejaVuSans-30"/>
     <use transform="translate(127.246094 0.78125)" xlink:href="#DejaVuSans-30"/>
     <use transform="translate(190.869141 0.78125)" xlink:href="#DejaVuSans-20"/>
     <use transform="translate(222.65625 0.78125)" xlink:href="#DejaVuSans-3a9"/>
    </g>
   </g>
   <g id="text_52">
    <!-- $V_{CC}$ 5V -->
    <defs>
     <path d="M 10.796875 72.90625 
L 49.515625 72.90625 
L 49.515625 64.59375 
L 19.828125 64.59375 
L 19.828125 46.734375 
Q 21.96875 47.46875 24.109375 47.828125 
Q 26.265625 48.1875 28.421875 48.1875 
Q 40.625 48.1875 47.75 41.5 
Q 54.890625 34.8125 54.890625 23.390625 
Q 54.890625 11.625 47.5625 5.09375 
Q 40.234375 -1.421875 26.90625 -1.421875 
Q 22.3125 -1.421875 17.546875 -0.640625 
Q 12.796875 0.140625 7.71875 1.703125 
L 7.71875 11.625 
Q 12.109375 9.234375 16.796875 8.0625 
Q 21.484375 6.890625 26.703125 6.890625 
Q 35.15625 6.890625 40.078125 11.328125 
Q 45.015625 15.765625 45.015625 23.390625 
Q 45.015625 31 40.078125 35.4375 
Q 35.15625 39.890625 26.703125 39.890625 
Q 22.75 39.890625 18.8125 39.015625 
Q 14.890625 38.140625 10.796875 36.28125 
z
" id="DejaVuSans-35"/>
    </defs>
    <g transform="translate(296.8668 90.7815)scale(0.16 -0.16)">
     <use transform="translate(0 0.09375)" xlink:href="#DejaVuSans-56"/>
     <use transform="translate(69.365234 -16.3125)scale(0.7)" xlink:href="#DejaVuSans-43"/>
     <use transform="translate(118.242188 -16.3125)scale(0.7)" xlink:href="#DejaVuSans-43"/>
     <use transform="translate(169.853516 0.09375)" xlink:href="#DejaVuSans-20"/>
     <use transform="translate(201.640625 0.09375)" xlink:href="#DejaVuSans-35"/>
     <use transform="translate(265.263672 0.09375)" xlink:href="#DejaVuSans-56"/>
    </g>
   </g>
   <g id="text_53">
    <!-- Q2 -->
    <g transform="translate(348.6828 57.79)scale(0.16 -0.16)">
     <use xlink:href="#DejaVuSans-51"/>
     <use x="78.710938" xlink:href="#DejaVuSans-32"/>
    </g>
   </g>
   <g id="text_54">
    <!-- 100 $\Omega$ -->
    <g transform="translate(401.3228 19.3575)scale(0.16 -0.16)">
     <use transform="translate(0 0.78125)" xlink:href="#DejaVuSans-31"/>
     <use transform="translate(63.623047 0.78125)" xlink:href="#DejaVuSans-30"/>
     <use transform="translate(127.246094 0.78125)" xlink:href="#DejaVuSans-30"/>
     <use transform="translate(190.869141 0.78125)" xlink:href="#DejaVuSans-20"/>
     <use transform="translate(222.65625 0.78125)" xlink:href="#DejaVuSans-3a9"/>
    </g>
   </g>
   <g id="text_55">
    <!-- Q4 -->
    <g transform="translate(736.3628 57.79)scale(0.16 -0.16)">
     <use xlink:href="#DejaVuSans-51"/>
     <use x="78.710938" xlink:href="#DejaVuSans-34"/>
    </g>
   </g>
   <g id="text_56">
    <!-- 100 $\Omega$ -->
    <g transform="translate(676.7228 19.3575)scale(0.16 -0.16)">
     <use transform="translate(0 0.78125)" xlink:href="#DejaVuSans-31"/>
     <use transform="translate(63.623047 0.78125)" xlink:href="#DejaVuSans-30"/>
     <use transform="translate(127.246094 0.78125)" xlink:href="#DejaVuSans-30"/>
     <use transform="translate(190.869141 0.78125)" xlink:href="#DejaVuSans-20"/>
     <use transform="translate(222.65625 0.78125)" xlink:href="#DejaVuSans-3a9"/>
    </g>
   </g>
   <g id="text_57">
    <!-- Q3 -->
    <g transform="translate(510.6828 57.79)scale(0.16 -0.16)">
     <use xlink:href="#DejaVuSans-51"/>
     <use x="78.710938" xlink:href="#DejaVuSans-33"/>
    </g>
   </g>
   <g id="text_58">
    <!-- 100 $\Omega$ -->
    <g transform="translate(563.3228 19.3575)scale(0.16 -0.16)">
     <use transform="translate(0 0.78125)" xlink:href="#DejaVuSans-31"/>
     <use transform="translate(63.623047 0.78125)" xlink:href="#DejaVuSans-30"/>
     <use transform="translate(127.246094 0.78125)" xlink:href="#DejaVuSans-30"/>
     <use transform="translate(190.869141 0.78125)" xlink:href="#DejaVuSans-20"/>
     <use transform="translate(222.65625 0.78125)" xlink:href="#DejaVuSans-3a9"/>
    </g>
   </g>
   <g id="text_59">
    <!-- CLR -->
    <g transform="translate(15.3618 234.955)scale(0.16 -0.16)">
     <use xlink:href="#DejaVuSans-43"/>
     <use x="69.824219" xlink:href="#DejaVuSans-4c"/>
     <use x="125.537109" xlink:href="#DejaVuSans-52"/>
    </g>
   </g>
  </g>
 </g>
 <defs>
  <clipPath id="p3f42121cce">
   <rect height="231.1515" width="759.9096" x="10.7" y="12.43175"/>
  </clipPath>
 </defs>
</svg>
