<?xml version="1.0" encoding="utf-8" standalone="no"?>
<!DOCTYPE svg PUBLIC "-//W3C//DTD SVG 1.1//EN"
  "http://www.w3.org/Graphics/SVG/1.1/DTD/svg11.dtd">
<!-- Created with matplotlib (http://matplotlib.org/) -->
<svg height="152pt" version="1.1" viewBox="0 0 161 152" width="161pt" xmlns="http://www.w3.org/2000/svg" xmlns:xlink="http://www.w3.org/1999/xlink">
 <defs>
  <style type="text/css">
*{stroke-linecap:butt;stroke-linejoin:round;}
  </style>
 </defs>
 <g id="figure_1">
  <g id="patch_1">
   <path d="M 0 152.225 
L 161.36 152.225 
L 161.36 0 
L 0 0 
z
" style="fill:none;"/>
  </g>
  <g id="axes_1">
   <g id="patch_2">
    <path clip-path="url(#paca9c04422)" d="M 70.24 53.375 
C 74.534859 53.375 78.658206 51.904269 81.69513 49.28914 
C 84.732054 46.67401 86.44 43.123351 86.44 39.425 
C 86.44 35.726649 84.732054 32.17599 81.69513 29.56086 
C 78.658206 26.945731 74.534859 25.475 70.24 25.475 
" style="fill:none;stroke:#000000;stroke-linejoin:miter;stroke-width:1.5;"/>
   </g>
   <g id="patch_3">
    <path clip-path="url(#paca9c04422)" d="M 70.24 123.125 
C 74.534859 123.125 78.658206 121.654269 81.69513 119.03914 
C 84.732054 116.42401 86.44 112.873351 86.44 109.175 
C 86.44 105.476649 84.732054 101.92599 81.69513 99.31086 
C 78.658206 96.695731 74.534859 95.225 70.24 95.225 
" style="fill:none;stroke:#000000;stroke-linejoin:miter;stroke-width:1.5;"/>
   </g>
   <g id="line2d_1">
    <path clip-path="url(#paca9c04422)" d="M 94.216 39.425 
L 97.78 39.425 
" style="fill:none;stroke:#000000;stroke-linecap:round;stroke-width:1.5;"/>
   </g>
   <g id="line2d_2">
    <path clip-path="url(#paca9c04422)" d="M 49.18 39.425 
L 49.18 53.375 
L 70.24 53.375 
" style="fill:none;stroke:#000000;stroke-linecap:round;stroke-width:1.5;"/>
   </g>
   <g id="line2d_3">
    <path clip-path="url(#paca9c04422)" d="M 49.18 39.425 
L 49.18 25.475 
L 70.24 25.475 
" style="fill:none;stroke:#000000;stroke-linecap:round;stroke-width:1.5;"/>
   </g>
   <g id="line2d_4">
    <path clip-path="url(#paca9c04422)" d="M 37.84 46.4 
L 49.18 46.4 
" style="fill:none;stroke:#000000;stroke-linecap:round;stroke-width:1.5;"/>
   </g>
   <g id="line2d_5">
    <path clip-path="url(#paca9c04422)" d="M 37.84 32.45 
L 49.18 32.45 
" style="fill:none;stroke:#000000;stroke-linecap:round;stroke-width:1.5;"/>
   </g>
   <g id="line2d_6">
    <path clip-path="url(#paca9c04422)" d="M 97.78 39.425 
L 105.88 39.425 
L 113.98 39.425 
" style="fill:none;stroke:#000000;stroke-linecap:round;stroke-width:1.5;"/>
   </g>
   <g id="line2d_7">
    <path clip-path="url(#paca9c04422)" d="M 113.98 39.425 
" style="fill:none;stroke:#000000;stroke-linecap:round;stroke-width:1.5;"/>
   </g>
   <g id="line2d_8">
    <path clip-path="url(#paca9c04422)" d="M 113.98 39.425 
L 126.13 39.425 
L 138.28 39.425 
" style="fill:none;stroke:#000000;stroke-linecap:round;stroke-width:1.5;"/>
   </g>
   <g id="line2d_9">
    <path clip-path="url(#paca9c04422)" d="M 94.216 109.175 
L 97.78 109.175 
" style="fill:none;stroke:#000000;stroke-linecap:round;stroke-width:1.5;"/>
   </g>
   <g id="line2d_10">
    <path clip-path="url(#paca9c04422)" d="M 49.18 109.175 
L 49.18 123.125 
L 70.24 123.125 
" style="fill:none;stroke:#000000;stroke-linecap:round;stroke-width:1.5;"/>
   </g>
   <g id="line2d_11">
    <path clip-path="url(#paca9c04422)" d="M 49.18 109.175 
L 49.18 95.225 
L 70.24 95.225 
" style="fill:none;stroke:#000000;stroke-linecap:round;stroke-width:1.5;"/>
   </g>
   <g id="line2d_12">
    <path clip-path="url(#paca9c04422)" d="M 37.84 116.15 
L 49.18 116.15 
" style="fill:none;stroke:#000000;stroke-linecap:round;stroke-width:1.5;"/>
   </g>
   <g id="line2d_13">
    <path clip-path="url(#paca9c04422)" d="M 37.84 102.2 
L 49.18 102.2 
" style="fill:none;stroke:#000000;stroke-linecap:round;stroke-width:1.5;"/>
   </g>
   <g id="line2d_14">
    <path clip-path="url(#paca9c04422)" d="M 97.78 109.175 
L 105.88 109.175 
L 113.98 109.175 
" style="fill:none;stroke:#000000;stroke-linecap:round;stroke-width:1.5;"/>
   </g>
   <g id="line2d_15">
    <path clip-path="url(#paca9c04422)" d="M 113.98 109.175 
" style="fill:none;stroke:#000000;stroke-linecap:round;stroke-width:1.5;"/>
   </g>
   <g id="line2d_16">
    <path clip-path="url(#paca9c04422)" d="M 113.98 109.175 
L 126.13 109.175 
L 138.28 109.175 
" style="fill:none;stroke:#000000;stroke-linecap:round;stroke-width:1.5;"/>
   </g>
   <g id="line2d_17">
    <path clip-path="url(#paca9c04422)" d="M 37.84 102.2 
L 37.84 95.225 
L 37.84 88.25 
" style="fill:none;stroke:#000000;stroke-linecap:round;stroke-width:1.5;"/>
   </g>
   <g id="line2d_18">
    <path clip-path="url(#paca9c04422)" d="M 113.98 39.425 
L 113.98 46.4 
L 113.98 53.375 
" style="fill:none;stroke:#000000;stroke-linecap:round;stroke-width:1.5;"/>
   </g>
   <g id="line2d_19">
    <path clip-path="url(#paca9c04422)" d="M 113.98 53.375 
L 75.91 70.8125 
L 37.84 88.25 
" style="fill:none;stroke:#000000;stroke-linecap:round;stroke-width:1.5;"/>
   </g>
   <g id="line2d_20">
    <path clip-path="url(#paca9c04422)" d="M 37.84 46.4 
L 37.84 53.375 
L 37.84 60.35 
" style="fill:none;stroke:#000000;stroke-linecap:round;stroke-width:1.5;"/>
   </g>
   <g id="line2d_21">
    <path clip-path="url(#paca9c04422)" d="M 113.98 109.175 
L 113.98 102.2 
L 113.98 95.225 
" style="fill:none;stroke:#000000;stroke-linecap:round;stroke-width:1.5;"/>
   </g>
   <g id="line2d_22">
    <path clip-path="url(#paca9c04422)" d="M 113.98 95.225 
L 75.91 77.7875 
L 37.84 60.35 
" style="fill:none;stroke:#000000;stroke-linecap:round;stroke-width:1.5;"/>
   </g>
   <g id="line2d_23">
    <path clip-path="url(#paca9c04422)" d="M 37.84 32.45 
L 29.74 32.45 
L 21.64 32.45 
" style="fill:none;stroke:#000000;stroke-linecap:round;stroke-width:1.5;"/>
   </g>
   <g id="line2d_24">
    <path clip-path="url(#paca9c04422)" d="M 37.84 116.15 
L 29.74 116.15 
L 21.64 116.15 
" style="fill:none;stroke:#000000;stroke-linecap:round;stroke-width:1.5;"/>
   </g>
   <g id="patch_4">
    <path clip-path="url(#paca9c04422)" d="M 90.328 42.773 
C 91.35911 42.773 92.348127 42.420234 93.077231 41.792394 
C 93.806336 41.164553 94.216 40.3129 94.216 39.425 
C 94.216 38.5371 93.806336 37.685447 93.077231 37.057606 
C 92.348127 36.429766 91.35911 36.077 90.328 36.077 
C 89.29689 36.077 88.307873 36.429766 87.578769 37.057606 
C 86.849664 37.685447 86.44 38.5371 86.44 39.425 
C 86.44 40.3129 86.849664 41.164553 87.578769 41.792394 
C 88.307873 42.420234 89.29689 42.773 90.328 42.773 
z
" style="fill:none;stroke:#000000;stroke-linejoin:miter;stroke-width:1.5;"/>
   </g>
   <g id="patch_5">
    <path clip-path="url(#paca9c04422)" d="M 113.98 41.5175 
C 114.624444 41.5175 115.242579 41.297021 115.698269 40.904621 
C 116.15396 40.512221 116.41 39.979937 116.41 39.425 
C 116.41 38.870063 116.15396 38.337779 115.698269 37.945379 
C 115.242579 37.552979 114.624444 37.3325 113.98 37.3325 
C 113.335556 37.3325 112.717421 37.552979 112.261731 37.945379 
C 111.80604 38.337779 111.55 38.870063 111.55 39.425 
C 111.55 39.979937 111.80604 40.512221 112.261731 40.904621 
C 112.717421 41.297021 113.335556 41.5175 113.98 41.5175 
z
" style="stroke:#000000;stroke-linejoin:miter;stroke-width:1.5;"/>
   </g>
   <g id="patch_6">
    <path clip-path="url(#paca9c04422)" d="M 90.328 112.523 
C 91.35911 112.523 92.348127 112.170234 93.077231 111.542394 
C 93.806336 110.914553 94.216 110.0629 94.216 109.175 
C 94.216 108.2871 93.806336 107.435447 93.077231 106.807606 
C 92.348127 106.179766 91.35911 105.827 90.328 105.827 
C 89.29689 105.827 88.307873 106.179766 87.578769 106.807606 
C 86.849664 107.435447 86.44 108.2871 86.44 109.175 
C 86.44 110.0629 86.849664 110.914553 87.578769 111.542394 
C 88.307873 112.170234 89.29689 112.523 90.328 112.523 
z
" style="fill:none;stroke:#000000;stroke-linejoin:miter;stroke-width:1.5;"/>
   </g>
   <g id="patch_7">
    <path clip-path="url(#paca9c04422)" d="M 113.98 111.2675 
C 114.624444 111.2675 115.242579 111.047021 115.698269 110.654621 
C 116.15396 110.262221 116.41 109.729937 116.41 109.175 
C 116.41 108.620063 116.15396 108.087779 115.698269 107.695379 
C 115.242579 107.302979 114.624444 107.0825 113.98 107.0825 
C 113.335556 107.0825 112.717421 107.302979 112.261731 107.695379 
C 111.80604 108.087779 111.55 108.620063 111.55 109.175 
C 111.55 109.729937 111.80604 110.262221 112.261731 110.654621 
C 112.717421 111.047021 113.335556 111.2675 113.98 111.2675 
z
" style="stroke:#000000;stroke-linejoin:miter;stroke-width:1.5;"/>
   </g>
   <g id="text_1">
    <!-- $ _{_{74HC00D\_6V}}$ -->
    <defs>
     <path d="M 8.203125 72.90625 
L 55.078125 72.90625 
L 55.078125 68.703125 
L 28.609375 0 
L 18.3125 0 
L 43.21875 64.59375 
L 8.203125 64.59375 
z
" id="DejaVuSans-37"/>
     <path d="M 37.796875 64.3125 
L 12.890625 25.390625 
L 37.796875 25.390625 
z
M 35.203125 72.90625 
L 47.609375 72.90625 
L 47.609375 25.390625 
L 58.015625 25.390625 
L 58.015625 17.1875 
L 47.609375 17.1875 
L 47.609375 0 
L 37.796875 0 
L 37.796875 17.1875 
L 4.890625 17.1875 
L 4.890625 26.703125 
z
" id="DejaVuSans-34"/>
     <path d="M 9.8125 72.90625 
L 19.671875 72.90625 
L 19.671875 43.015625 
L 55.515625 43.015625 
L 55.515625 72.90625 
L 65.375 72.90625 
L 65.375 0 
L 55.515625 0 
L 55.515625 34.71875 
L 19.671875 34.71875 
L 19.671875 0 
L 9.8125 0 
z
" id="DejaVuSans-48"/>
     <path d="M 64.40625 67.28125 
L 64.40625 56.890625 
Q 59.421875 61.53125 53.78125 63.8125 
Q 48.140625 66.109375 41.796875 66.109375 
Q 29.296875 66.109375 22.65625 58.46875 
Q 16.015625 50.828125 16.015625 36.375 
Q 16.015625 21.96875 22.65625 14.328125 
Q 29.296875 6.6875 41.796875 6.6875 
Q 48.140625 6.6875 53.78125 8.984375 
Q 59.421875 11.28125 64.40625 15.921875 
L 64.40625 5.609375 
Q 59.234375 2.09375 53.4375 0.328125 
Q 47.65625 -1.421875 41.21875 -1.421875 
Q 24.65625 -1.421875 15.125 8.703125 
Q 5.609375 18.84375 5.609375 36.375 
Q 5.609375 53.953125 15.125 64.078125 
Q 24.65625 74.21875 41.21875 74.21875 
Q 47.75 74.21875 53.53125 72.484375 
Q 59.328125 70.75 64.40625 67.28125 
" id="DejaVuSans-43"/>
     <path d="M 31.78125 66.40625 
Q 24.171875 66.40625 20.328125 58.90625 
Q 16.5 51.421875 16.5 36.375 
Q 16.5 21.390625 20.328125 13.890625 
Q 24.171875 6.390625 31.78125 6.390625 
Q 39.453125 6.390625 43.28125 13.890625 
Q 47.125 21.390625 47.125 36.375 
Q 47.125 51.421875 43.28125 58.90625 
Q 39.453125 66.40625 31.78125 66.40625 
M 31.78125 74.21875 
Q 44.046875 74.21875 50.515625 64.515625 
Q 56.984375 54.828125 56.984375 36.375 
Q 56.984375 17.96875 50.515625 8.265625 
Q 44.046875 -1.421875 31.78125 -1.421875 
Q 19.53125 -1.421875 13.0625 8.265625 
Q 6.59375 17.96875 6.59375 36.375 
Q 6.59375 54.828125 13.0625 64.515625 
Q 19.53125 74.21875 31.78125 74.21875 
" id="DejaVuSans-30"/>
     <path d="M 19.671875 64.796875 
L 19.671875 8.109375 
L 31.59375 8.109375 
Q 46.6875 8.109375 53.6875 14.9375 
Q 60.6875 21.78125 60.6875 36.53125 
Q 60.6875 51.171875 53.6875 57.984375 
Q 46.6875 64.796875 31.59375 64.796875 
z
M 9.8125 72.90625 
L 30.078125 72.90625 
Q 51.265625 72.90625 61.171875 64.09375 
Q 71.09375 55.28125 71.09375 36.53125 
Q 71.09375 17.671875 61.125 8.828125 
Q 51.171875 0 30.078125 0 
L 9.8125 0 
z
" id="DejaVuSans-44"/>
     <path d="M 50.984375 -16.609375 
L 50.984375 -23.578125 
L -0.984375 -23.578125 
L -0.984375 -16.609375 
z
" id="DejaVuSans-5f"/>
     <path d="M 33.015625 40.375 
Q 26.375 40.375 22.484375 35.828125 
Q 18.609375 31.296875 18.609375 23.390625 
Q 18.609375 15.53125 22.484375 10.953125 
Q 26.375 6.390625 33.015625 6.390625 
Q 39.65625 6.390625 43.53125 10.953125 
Q 47.40625 15.53125 47.40625 23.390625 
Q 47.40625 31.296875 43.53125 35.828125 
Q 39.65625 40.375 33.015625 40.375 
M 52.59375 71.296875 
L 52.59375 62.3125 
Q 48.875 64.0625 45.09375 64.984375 
Q 41.3125 65.921875 37.59375 65.921875 
Q 27.828125 65.921875 22.671875 59.328125 
Q 17.53125 52.734375 16.796875 39.40625 
Q 19.671875 43.65625 24.015625 45.921875 
Q 28.375 48.1875 33.59375 48.1875 
Q 44.578125 48.1875 50.953125 41.515625 
Q 57.328125 34.859375 57.328125 23.390625 
Q 57.328125 12.15625 50.6875 5.359375 
Q 44.046875 -1.421875 33.015625 -1.421875 
Q 20.359375 -1.421875 13.671875 8.265625 
Q 6.984375 17.96875 6.984375 36.375 
Q 6.984375 53.65625 15.1875 63.9375 
Q 23.390625 74.21875 37.203125 74.21875 
Q 40.921875 74.21875 44.703125 73.484375 
Q 48.484375 72.75 52.59375 71.296875 
" id="DejaVuSans-36"/>
     <path d="M 28.609375 0 
L 0.78125 72.90625 
L 11.078125 72.90625 
L 34.1875 11.53125 
L 57.328125 72.90625 
L 67.578125 72.90625 
L 39.796875 0 
z
" id="DejaVuSans-56"/>
    </defs>
    <g transform="translate(43.92 16.285)scale(0.16 -0.16)">
     <use transform="translate(1.626953 -27.367188)scale(0.49)" xlink:href="#DejaVuSans-37"/>
     <use transform="translate(32.802246 -27.367188)scale(0.49)" xlink:href="#DejaVuSans-34"/>
     <use transform="translate(63.977539 -27.367188)scale(0.49)" xlink:href="#DejaVuSans-48"/>
     <use transform="translate(100.823242 -27.367188)scale(0.49)" xlink:href="#DejaVuSans-43"/>
     <use transform="translate(135.037109 -27.367188)scale(0.49)" xlink:href="#DejaVuSans-30"/>
     <use transform="translate(166.212402 -27.367188)scale(0.49)" xlink:href="#DejaVuSans-30"/>
     <use transform="translate(197.387695 -27.367188)scale(0.49)" xlink:href="#DejaVuSans-44"/>
     <use transform="translate(235.118652 -27.367188)scale(0.49)" xlink:href="#DejaVuSans-5f"/>
     <use transform="translate(259.618652 -27.367188)scale(0.49)" xlink:href="#DejaVuSans-36"/>
     <use transform="translate(290.793945 -27.367188)scale(0.49)" xlink:href="#DejaVuSans-56"/>
    </g>
   </g>
   <g id="text_2">
    <!-- $Q$ -->
    <defs>
     <path d="M 39.40625 66.21875 
Q 28.65625 66.21875 22.328125 58.203125 
Q 16.015625 50.203125 16.015625 36.375 
Q 16.015625 22.609375 22.328125 14.59375 
Q 28.65625 6.59375 39.40625 6.59375 
Q 50.140625 6.59375 56.421875 14.59375 
Q 62.703125 22.609375 62.703125 36.375 
Q 62.703125 50.203125 56.421875 58.203125 
Q 50.140625 66.21875 39.40625 66.21875 
M 53.21875 1.3125 
L 66.21875 -12.890625 
L 54.296875 -12.890625 
L 43.5 -1.21875 
Q 41.890625 -1.3125 41.03125 -1.359375 
Q 40.1875 -1.421875 39.40625 -1.421875 
Q 24.03125 -1.421875 14.8125 8.859375 
Q 5.609375 19.140625 5.609375 36.375 
Q 5.609375 53.65625 14.8125 63.9375 
Q 24.03125 74.21875 39.40625 74.21875 
Q 54.734375 74.21875 63.90625 63.9375 
Q 73.09375 53.65625 73.09375 36.375 
Q 73.09375 23.6875 67.984375 14.640625 
Q 62.890625 5.609375 53.21875 1.3125 
" id="DejaVuSans-51"/>
    </defs>
    <g transform="translate(141.52 43.84)scale(0.16 -0.16)">
     <use transform="translate(0 0.78125)" xlink:href="#DejaVuSans-51"/>
    </g>
   </g>
   <g id="text_3">
    <!-- $ ^{^{74HC00D\_6V}}$ -->
    <g transform="translate(43.92 141.6975)scale(0.16 -0.16)">
     <use transform="translate(1.626953 65.632812)scale(0.49)" xlink:href="#DejaVuSans-37"/>
     <use transform="translate(32.802246 65.632812)scale(0.49)" xlink:href="#DejaVuSans-34"/>
     <use transform="translate(63.977539 65.632812)scale(0.49)" xlink:href="#DejaVuSans-48"/>
     <use transform="translate(100.823242 65.632812)scale(0.49)" xlink:href="#DejaVuSans-43"/>
     <use transform="translate(135.037109 65.632812)scale(0.49)" xlink:href="#DejaVuSans-30"/>
     <use transform="translate(166.212402 65.632812)scale(0.49)" xlink:href="#DejaVuSans-30"/>
     <use transform="translate(197.387695 65.632812)scale(0.49)" xlink:href="#DejaVuSans-44"/>
     <use transform="translate(235.118652 65.632812)scale(0.49)" xlink:href="#DejaVuSans-5f"/>
     <use transform="translate(259.618652 65.632812)scale(0.49)" xlink:href="#DejaVuSans-36"/>
     <use transform="translate(290.793945 65.632812)scale(0.49)" xlink:href="#DejaVuSans-56"/>
    </g>
   </g>
   <g id="text_4">
    <!-- $\overline{Q}$ -->
    <g transform="translate(141.52 114.8075)scale(0.16 -0.16)">
     <use transform="translate(0 0.53125)" xlink:href="#DejaVuSans-51"/>
     <path d="M 0 86.5 
L 0 92.75 
L 78.710938 92.75 
L 78.710938 86.5 
L 0 86.5 
z
"/>
    </g>
   </g>
   <g id="text_5">
    <!-- $R$ -->
    <defs>
     <path d="M 44.390625 34.1875 
Q 47.5625 33.109375 50.5625 29.59375 
Q 53.5625 26.078125 56.59375 19.921875 
L 66.609375 0 
L 56 0 
L 46.6875 18.703125 
Q 43.0625 26.03125 39.671875 28.421875 
Q 36.28125 30.8125 30.421875 30.8125 
L 19.671875 30.8125 
L 19.671875 0 
L 9.8125 0 
L 9.8125 72.90625 
L 32.078125 72.90625 
Q 44.578125 72.90625 50.734375 67.671875 
Q 56.890625 62.453125 56.890625 51.90625 
Q 56.890625 45.015625 53.6875 40.46875 
Q 50.484375 35.9375 44.390625 34.1875 
M 19.671875 64.796875 
L 19.671875 38.921875 
L 32.078125 38.921875 
Q 39.203125 38.921875 42.84375 42.21875 
Q 46.484375 45.515625 46.484375 51.90625 
Q 46.484375 58.296875 42.84375 61.546875 
Q 39.203125 64.796875 32.078125 64.796875 
z
" id="DejaVuSans-52"/>
    </defs>
    <g transform="translate(7.2 36.865)scale(0.16 -0.16)">
     <use transform="translate(0 0.09375)" xlink:href="#DejaVuSans-52"/>
    </g>
   </g>
   <g id="text_6">
    <!-- $S$ -->
    <defs>
     <path d="M 53.515625 70.515625 
L 53.515625 60.890625 
Q 47.90625 63.578125 42.921875 64.890625 
Q 37.9375 66.21875 33.296875 66.21875 
Q 25.25 66.21875 20.875 63.09375 
Q 16.5 59.96875 16.5 54.203125 
Q 16.5 49.359375 19.40625 46.890625 
Q 22.3125 44.4375 30.421875 42.921875 
L 36.375 41.703125 
Q 47.40625 39.59375 52.65625 34.296875 
Q 57.90625 29 57.90625 20.125 
Q 57.90625 9.515625 50.796875 4.046875 
Q 43.703125 -1.421875 29.984375 -1.421875 
Q 24.8125 -1.421875 18.96875 -0.25 
Q 13.140625 0.921875 6.890625 3.21875 
L 6.890625 13.375 
Q 12.890625 10.015625 18.65625 8.296875 
Q 24.421875 6.59375 29.984375 6.59375 
Q 38.421875 6.59375 43.015625 9.90625 
Q 47.609375 13.234375 47.609375 19.390625 
Q 47.609375 24.75 44.3125 27.78125 
Q 41.015625 30.8125 33.5 32.328125 
L 27.484375 33.5 
Q 16.453125 35.6875 11.515625 40.375 
Q 6.59375 45.0625 6.59375 53.421875 
Q 6.59375 63.09375 13.40625 68.65625 
Q 20.21875 74.21875 32.171875 74.21875 
Q 37.3125 74.21875 42.625 73.28125 
Q 47.953125 72.359375 53.515625 70.515625 
" id="DejaVuSans-53"/>
    </defs>
    <g transform="translate(8.16 120.565)scale(0.16 -0.16)">
     <use transform="translate(0 0.78125)" xlink:href="#DejaVuSans-53"/>
    </g>
   </g>
  </g>
 </g>
 <defs>
  <clipPath id="paca9c04422">
   <rect height="112.995" width="134.784" x="12.568" y="17.8025"/>
  </clipPath>
 </defs>
</svg>
